<?xml version="1.0" encoding="iso-8859-1"?>
<!-- Uploaded to: SVG Repo, www.svgrepo.com, Generator: SVG Repo Mixer Tools -->
<svg  height="800px" width="800px" version="1.1" id="Capa_1" xmlns="http://www.w3.org/2000/svg" xmlns:xlink="http://www.w3.org/1999/xlink" 
	 viewBox="0 0 463 463" xml:space="preserve">
<path d="M455.712,122.606c-7.486-7.237-20.264-10.607-40.212-10.607c-23.385,0-40.255,7.573-55.14,14.254
	c-11.65,5.229-21.711,9.746-32.86,9.746h-25l14.119-18.825l38.74-23.244c3.552-2.131,4.704-6.738,2.572-10.29
	c-2.131-3.552-6.737-4.704-10.29-2.572l-40,24c-0.832,0.499-1.559,1.155-2.141,1.931l-21.75,29h-10.997
	c-0.282-0.493-0.568-0.984-0.867-1.466c7.242-21.092-3.244-30.871-10.323-37.462c-2.843-2.648-4.654-4.454-5.639-6.175l9.659-6.439
	c5.356-3.571,11.59-5.458,18.028-5.458H319.5c4.142,0,7.5-3.358,7.5-7.5s-3.358-7.5-7.5-7.5h-35.889
	c-9.409,0-18.52,2.758-26.348,7.978l-12.033,8.022h-27.459l-12.033-8.022c-7.829-5.219-16.939-7.978-26.348-7.978H143.5
	c-4.142,0-7.5,3.358-7.5,7.5s3.358,7.5,7.5,7.5h35.889c6.438,0,12.671,1.887,18.028,5.458l9.659,6.439
	c-0.984,1.721-2.795,3.527-5.639,6.175c-7.079,6.591-17.566,16.37-10.323,37.462c-0.299,0.482-0.585,0.973-0.867,1.466H179.25
	l-21.75-29c-0.582-0.776-1.309-1.432-2.141-1.931l-40-24c-3.554-2.132-8.159-0.979-10.29,2.572
	c-2.131,3.552-0.979,8.159,2.572,10.29l38.74,23.244l14.119,18.825h-25c-11.149,0-21.21-4.516-32.86-9.746
	c-14.885-6.682-31.755-14.254-55.14-14.254c-19.948,0-32.726,3.371-40.212,10.607C0,129.651,0,138.32,0,143.499
	c0,10.689,18.382,24.333,26.285,29.704c7.875,5.351,28.045,17.796,45.215,17.796c0.219,0,0.441-0.008,0.661-0.01
	c0.821,6.018,3.313,11.328,7.465,15.849c7.383,8.04,19.024,12.12,30.524,14.174c0.288,0.068,0.581,0.12,0.879,0.153
	c9.597,1.631,19.013,1.882,25.688,1.882c1.46,0,2.78-0.012,3.951-0.024l-20.191,53.843c-1.455,3.878,0.511,8.201,4.389,9.656
	c0.868,0.325,1.757,0.479,2.632,0.479c3.037,0,5.895-1.858,7.023-4.869l23.464-62.572c10.408-5.252,17.744-15.672,24.441-25.196
	c2.733-3.885,5.4-7.675,8.11-10.908c1.815,3.061,3.982,5.932,6.485,8.556c-10.506,10.426-19.001,25.075-24.025,40.825
	l-18.584,17.149c-1.269,1.17-2.095,2.743-2.339,4.451l-8,56c-0.149,1.043-0.076,2.107,0.213,3.121l12.601,44.101
	c1.807,6.325,1.663,12.966-0.417,19.207l-4.087,12.26c-1.31,3.929,0.814,8.177,4.744,9.487c0.787,0.262,1.586,0.387,2.373,0.387
	c3.14,0,6.066-1.987,7.114-5.13l4.087-12.26c3.04-9.12,3.251-18.826,0.61-28.07l-12.161-42.563l7.396-51.775l1.648-1.521
	c-0.127,1.949-0.195,3.89-0.195,5.818c0,39.425,28.486,71.5,63.5,71.5s63.5-32.075,63.5-71.5c0-1.928-0.068-3.87-0.195-5.818
	l1.648,1.521l7.396,51.775l-12.161,42.564c-2.641,9.244-2.43,18.95,0.61,28.07l4.087,12.26c1.048,3.143,3.974,5.131,7.114,5.13
	c0.786,0,1.586-0.125,2.373-0.387c3.93-1.31,6.053-5.558,4.744-9.487l-4.087-12.26c-2.08-6.24-2.225-12.881-0.417-19.206
	l12.601-44.102c0.29-1.014,0.362-2.078,0.213-3.121l-8-56c-0.244-1.708-1.07-3.281-2.339-4.451l-18.584-17.149
	c-5.025-15.75-13.52-30.398-24.025-40.825c2.503-2.624,4.67-5.495,6.485-8.556c2.71,3.233,5.378,7.022,8.11,10.908
	c6.698,9.524,14.033,19.944,24.441,25.196l23.464,62.572c1.129,3.011,3.987,4.869,7.023,4.869c0.875,0,1.765-0.154,2.632-0.479
	c3.878-1.455,5.844-5.777,4.389-9.656l-20.191-53.843c1.171,0.012,2.49,0.024,3.951,0.024c6.673,0,16.09-0.252,25.684-1.882
	c0.301-0.034,0.597-0.086,0.887-0.155c11.499-2.055,23.139-6.134,30.521-14.173c4.152-4.521,6.645-9.831,7.465-15.849
	c0.22,0.002,0.442,0.01,0.661,0.01c17.17,0,37.34-12.446,45.215-17.796c7.903-5.37,26.285-19.014,26.285-29.704
	C463,138.32,463,129.651,455.712,122.606z M263.987,159.959l-0.916,0.053c-3.618,0.208-6.57,2.973-7.014,6.569
	c-0.404,3.277,1.383,6.385,4.32,7.73c-1.897,3.633-4.503,6.918-7.733,9.689h-42.287c-3.23-2.771-5.836-6.055-7.733-9.689
	c2.937-1.345,4.724-4.452,4.32-7.73c-0.443-3.597-3.396-6.361-7.014-6.569l-0.916-0.053c-0.002-0.154-0.013-0.306-0.013-0.46
	c0-2.941,0.4-5.789,1.135-8.5h7.365c4.142,0,7.5-3.358,7.5-7.5c0-3.65-2.609-6.688-6.063-7.359
	c5.85-5.653,13.804-9.141,22.563-9.141s16.712,3.489,22.562,9.141c-3.454,0.671-6.062,3.709-6.062,7.359c0,4.142,3.358,7.5,7.5,7.5
	h7.365c0.736,2.711,1.135,5.559,1.135,8.5C264,159.653,263.989,159.805,263.987,159.959z M278.378,247.999h-93.756
	c1.166-5.81,2.929-11.626,5.169-17.203c0.55,0.128,1.12,0.203,1.708,0.203h80c0.589,0,1.159-0.075,1.708-0.203
	C275.449,236.373,277.212,242.189,278.378,247.999z M183,263.499c0-0.174,0.007-0.35,0.009-0.525
	c0.163,0.011,0.326,0.025,0.491,0.025h96c0.166,0,0.328-0.014,0.491-0.025c0.001,0.174,0.009,0.351,0.009,0.525
	c0,5.739-0.743,11.278-2.115,16.5h-92.77C183.743,274.777,183,269.238,183,263.499z M197.234,215.999
	c4.201-6.792,9.109-12.684,14.428-17h39.677c5.319,4.316,10.227,10.208,14.428,17H197.234z M211.659,108.049
	c3.635-3.384,7.909-7.364,10.022-13.05h19.639c2.113,5.687,6.387,9.666,10.022,13.05c4.413,4.109,7.844,7.304,8.009,13.006
	c-7.831-5.689-17.453-9.057-27.85-9.057s-20.019,3.367-27.85,9.057C203.815,115.353,207.245,112.158,211.659,108.049z
	 M17.712,133.392c3.017-2.917,10.634-6.393,29.788-6.393c20.172,0,34.826,6.578,48.998,12.939
	c12.672,5.688,24.642,11.061,39.002,11.061h16.316c-1.481,0.638-2.979,1.284-4.491,1.937c-7.444,3.214-15.183,6.554-22.973,9.663
	c-11.485,1.364-20.996-3.401-31.968-8.916c-18.013-9.056-38.362-19.279-69.789-2.272c-4.387-3.942-6.917-7.034-7.594-8.509
	C15.021,138.582,15.292,135.731,17.712,133.392z M36.621,162.067c-0.241-0.157-0.465-0.313-0.701-0.469
	c20.908-8.986,34.396-2.219,49.727,5.487c3.506,1.762,7.048,3.537,10.697,5.128c-8.734,2.339-17.141,3.786-24.844,3.786
	C62.989,175.999,49.95,170.791,36.621,162.067z M106.003,204.778c-6.234-1.691-11.8-4.243-15.33-8.087
	c-1.894-2.062-3.065-4.384-3.554-7.107c17.621-2.975,36.443-10.243,54.261-17.78c0.816,5.728-3.263,8.69-14.283,14.563
	C119.164,190.596,109.725,195.626,106.003,204.778z M170.159,185.737c-9.457,13.448-16.422,22.262-26.659,22.262
	c-0.659,0-1.463,0.008-2.395,0.019c-3.954,0.043-11.173,0.121-19.085-0.574c2.379-2.446,6.393-4.779,12.133-7.839
	c9.464-5.043,22.899-12.203,22.343-27.063l22.54,1.294C175.899,177.574,173.01,181.682,170.159,185.737z M172.854,158.457
	c4.044-1.614,7.884-3.049,11.445-4.226c-0.177,1.6-0.275,3.223-0.289,4.866L172.854,158.457z M231.5,319.999
	c-16.739,0-31.523-9.931-40.243-25h80.486C263.023,310.068,248.239,319.999,231.5,319.999z M278.99,159.097
	c-0.014-1.643-0.111-3.266-0.289-4.866c3.561,1.176,7.401,2.612,11.445,4.226L278.99,159.097z M321.895,208.018
	c-0.932-0.01-1.736-0.019-2.395-0.019c-10.237,0-17.202-8.814-26.659-22.262c-2.852-4.055-5.741-8.163-8.877-11.9l22.54-1.294
	c-0.557,14.86,12.879,22.019,22.343,27.063c5.741,3.06,9.754,5.393,12.133,7.839C333.069,208.138,325.85,208.06,321.895,208.018z
	 M372.326,196.691c-3.53,3.844-9.095,6.396-15.33,8.087c-3.721-9.151-13.161-14.183-21.095-18.411
	c-11.02-5.873-15.099-8.834-14.283-14.563c17.818,7.536,36.64,14.805,54.261,17.78C375.391,192.308,374.22,194.629,372.326,196.691z
	 M391.5,175.999c-7.703,0-16.11-1.447-24.844-3.786c3.649-1.591,7.191-3.366,10.697-5.128c15.331-7.707,28.82-14.474,49.727-5.488
	c-0.237,0.157-0.461,0.312-0.702,0.47C413.05,170.791,400.011,175.999,391.5,175.999z M440.405,151.411
	c-31.428-17.006-51.775-6.783-69.789,2.272c-10.972,5.516-20.485,10.277-31.969,8.916c-7.79-3.109-15.529-6.449-22.973-9.663
	c-1.512-0.653-3.01-1.299-4.491-1.937H327.5c14.361,0,26.331-5.373,39.002-11.061c14.171-6.361,28.825-12.939,48.998-12.939
	c19.154,0,26.771,3.476,29.788,6.393c2.42,2.339,2.692,5.19,2.711,9.51C447.322,144.377,444.792,147.469,440.405,151.411z" class="ionicon-stroke-width" />
</svg>