<?xml version="1.0" encoding="iso-8859-1"?>
<!-- Uploaded to: SVG Repo, www.svgrepo.com, Generator: SVG Repo Mixer Tools -->
<svg height="800px" width="800px" version="1.1" id="Layer_1" xmlns="http://www.w3.org/2000/svg" xmlns:xlink="http://www.w3.org/1999/xlink" 
	 viewBox="0 0 512 512" xml:space="preserve">
<g>
	<g>
		<path d="M504.445,90.151c-4.862-4.757-11.302-7.294-18.096-7.143c-41.508,0.916-142.921,15.502-212.3,127.907
			c-1.993-2.062-4.334-3.785-6.93-5.071l56.084-128.191c1.774-4.056-0.075-8.783-4.131-10.557
			c-4.059-1.774-8.783,0.075-10.557,4.131L256,191.256L203.486,71.225c-1.774-4.055-6.5-5.908-10.557-4.131
			c-4.055,1.774-5.906,6.501-4.131,10.557l56.084,128.191c-2.595,1.287-4.936,3.009-6.93,5.071
			C168.572,98.509,67.16,83.923,25.652,83.008c-6.821-0.149-13.235,2.387-18.097,7.143C2.683,94.917,0,101.302,0,108.131v26.165
			c0,22.172,2.252,33.435,4.432,44.328c2.119,10.594,4.12,20.6,4.12,41.183c0,27.116,9.652,42.21,17.75,50.096
			c6.064,5.907,14.182,9.129,22.946,9.129c0.304,0,0.609-0.004,0.914-0.012c11.185-0.284,25.17-1.101,40.443-2.231
			c-20.152,14.25-30.746,32.83-30.746,54.182c0,0.029,0.001,0.057,0.001,0.086c0,0.012,0,0.023,0,0.035
			c0.034,31.69,13.403,58.494,39.741,79.67c22.054,17.731,49.016,27.826,67.752,33.171c3.897,1.113,7.841,1.647,11.736,1.647
			c14.786,0,28.829-7.721,36.532-20.925l32.363-55.479v13.102c0,4.427,3.589,8.017,8.017,8.017s8.017-3.589,8.017-8.017v-13.102
			l32.363,55.479c7.704,13.205,21.745,20.925,36.532,20.925c3.894,0,7.84-0.536,11.735-1.647
			c18.736-5.346,45.697-15.44,67.752-33.171c26.338-21.176,39.707-47.979,39.741-79.67c0-0.012,0-0.024,0-0.035
			c0-0.029,0.001-0.057,0.001-0.086c0-21.353-10.594-39.932-30.745-54.182c15.272,1.13,29.258,1.946,40.443,2.231
			c0.306,0.007,0.61,0.012,0.914,0.012c8.764,0,16.882-3.223,22.946-9.129c8.098-7.887,17.75-22.981,17.75-50.096
			c0-20.584,2.001-30.59,4.12-41.183c2.178-10.893,4.432-22.156,4.432-44.328v-26.165C512,101.302,509.317,94.917,504.445,90.151z
			 M24.405,209.529c-0.574-15.654-2.438-24.983-4.251-34.049c-2.12-10.594-4.121-20.6-4.121-41.185v-26.165
			c0-2.48,0.971-4.795,2.733-6.518c1.753-1.715,4.073-2.624,6.532-2.575c23.252,0.512,66.606,5.634,111.672,32.363
			c-26.805,2.453-57.149,16.974-79.788,36.337C41.841,180.86,30.829,195.095,24.405,209.529z M49.753,262.994
			c-4.324,0.105-8.297-1.234-11.354-3.777c-17.055-35.767,17.95-69.668,29.205-79.295c16.275-13.92,36.478-24.795,55.43-29.835
			c19.042-5.063,35.014-3.88,44.99,3.328c22.329,18.674,44.033,43.665,62.857,77.062v16.393
			C202.752,250.085,98.015,261.765,49.753,262.994z M138.493,272.704c38.405-3.618,75.692-7.783,92.388-9.693v3.665
			c-5.477,3.925-10.571,8.207-15.26,12.84c-73.865,5.704-115.232,22.053-135.953,33.615
			C92.53,284.359,134.112,273.746,138.493,272.704z M171.752,428.516c-35.093-10.012-93.484-35.442-95.781-93.963
			c8.621-6.805,42.419-28.981,125.003-37.612c-14.236,20.509-22.573,45.686-24.498,74.563c-1.757,26.358,2.243,48.536,4.349,57.975
			C177.834,429.674,174.769,429.377,171.752,428.516z M201.771,416.578c-1.56,2.674-3.548,4.978-5.829,6.877
			c-1.954-9.582-4.948-28.719-3.47-50.886c2.419-36.286,15.327-64.949,38.409-85.426v35.278c0,9.453,5.251,17.701,12.988,21.987
			L201.771,416.578z M265.086,322.421c0,5.01-4.076,9.086-9.086,9.086s-9.086-4.076-9.086-9.086v-70.651
			c2.82,1.098,5.882,1.707,9.086,1.707s6.266-0.609,9.086-1.707V322.421z M256,237.445c-5.01,0-9.086-4.076-9.086-9.086
			c0-5.002,4.064-9.073,9.063-9.085c0.006,0,0.013,0.001,0.018,0.001c0.001,0,0.003,0,0.004,0s0.003,0,0.004,0
			c0.006,0,0.013-0.001,0.018-0.001c4.999,0.012,9.063,4.082,9.063,9.085C265.086,233.37,261.01,237.445,256,237.445z
			 M316.05,423.449c-2.278-1.898-4.263-4.2-5.821-6.871l-42.098-72.17c7.737-4.286,12.988-12.533,12.988-21.987v-35.277
			c22.977,20.385,35.874,48.891,38.376,84.955C321.041,394.368,318.016,413.767,316.05,423.449z M436.028,334.608
			c-2.333,58.482-60.699,83.9-95.78,93.909c-3.017,0.86-6.081,1.157-9.072,0.959c2.108-9.439,6.107-31.617,4.349-57.973
			c-1.925-28.875-10.261-54.049-24.494-74.557C392.785,305.545,427.208,327.797,436.028,334.608z M432.362,313.147
			c-20.711-11.561-62.082-27.925-135.984-33.631c-4.688-4.633-9.783-8.915-15.26-12.84v-3.665
			c16.697,1.91,53.987,6.076,92.395,9.694C377.939,273.747,419.544,284.279,432.362,313.147z M473.6,259.217
			c-3.058,2.544-7.043,3.886-11.353,3.777c-48.257-1.228-152.999-12.908-181.128-16.125v-16.393
			c18.823-33.396,40.528-58.388,62.856-77.062c9.976-7.208,25.947-8.391,44.99-3.327c18.951,5.04,39.156,15.915,55.43,29.835
			C455.65,189.548,490.654,223.449,473.6,259.217z M495.967,134.296c0,20.584-2.001,30.59-4.12,41.183
			c-1.813,9.065-3.676,18.395-4.251,34.049c-6.424-14.434-17.436-28.669-32.778-41.792c-22.638-19.363-52.983-33.883-79.788-36.337
			c45.066-26.728,88.419-31.85,111.67-32.362c2.484-0.052,4.78,0.86,6.532,2.575c1.762,1.724,2.733,4.039,2.733,6.518V134.296z"/>
	</g>
</g>
</svg>