<?xml version="1.0" encoding="iso-8859-1"?>
<!-- Generator: Adobe Illustrator 19.0.0, SVG Export Plug-In . SVG Version: 6.00 Build 0)  -->
<svg version="1.1" id="Capa_1" xmlns="http://www.w3.org/2000/svg" xmlns:xlink="http://www.w3.org/1999/xlink" x="0px" y="0px"
	 viewBox="0 0 400.043 400.043" style="enable-background:new 0 0 400.043 400.043;" xml:space="preserve">
<g>
	<g>
		<path d="M399.646,221.207c-3.76-30.8-31.6-53.84-45.2-63.2h0c11.52-19.52,38.48-75.36,0.56-119.36
			c-8.451-11.616-21.66-18.837-36-19.68c-47.52,0-83.04,96.56-96.48,139.28l-8-14c-2.382-4.302-5.896-7.871-10.16-10.32l-1.12-43.2
			c0-4.418-3.582-8-8-8s-8,3.582-8,8l1.04,39.44c-3.691,0.28-7.285,1.315-10.56,3.04c-3.096,1.741-5.816,4.079-8,6.88l-32.56-21.6
			c-3.8-2.518-8.922-1.48-11.44,2.32c-2.518,3.8-1.48,8.922,2.32,11.44l35.68,24c-0.288,5.039,0.849,10.057,3.28,14.48l8,14.08
			c-34.174-9.35-69.313-14.719-104.72-16c-31.44,0-52.64,7.12-63.04,21.2c-8,10.96-9.44,25.52-4,43.2
			c17.28,56,78.8,62.56,101.44,63.04c0.72,15.04,4.72,46.72,24,66.88c11.628,11.942,27.74,18.445,44.4,17.92
			c8.1-0.095,16.158-1.169,24-3.2c32-8,45.68-39.44,51.04-61.52c9.758,11.305,26.833,12.559,38.138,2.802
			c8.118-7.007,11.328-18.149,8.182-28.402c11.21,3.835,22.953,5.887,34.8,6.08c16.666,0.712,32.912-5.347,45.04-16.8
			C393.566,261.527,402.046,241.767,399.646,221.207z M193.806,362.327L193.806,362.327c-6.638,1.727-13.461,2.64-20.32,2.72
			c-12.315,0.525-24.272-4.217-32.88-13.04c-21.04-21.68-20-63.2-20-64c0-4.418-3.582-8-8-8h-5.04c-17.12,0-74.08-3.76-88.88-51.76
			c-3.84-12.56-3.36-22.32,1.6-29.04c7.12-9.68,24.48-14.72,50.24-14.72c44.96,0,101.76,15.44,115.52,19.36l50.32,90.96
			C235.166,305.927,228.286,353.607,193.806,362.327z M280.046,301.687c-1.642,5.872-7.734,9.301-13.606,7.658
			c-2.866-0.802-5.287-2.727-6.714-5.338l-8-14.56l-53.04-96l-17.04-30.72c-2.928-5.35-1.001-12.059,4.32-15.04
			c1.64-0.907,3.486-1.376,5.36-1.36c4.02-0.01,7.728,2.165,9.68,5.68l78.16,141.28C280.57,295.857,280.887,298.882,280.046,301.687
			z M363.166,268.567h0.24c-9.031,8.333-21.002,12.736-33.28,12.24c-16.089-0.68-31.851-4.77-46.24-12l-50.56-90.96
			c16-56.56,52.08-142.88,85.68-142.88c9.679,1.003,18.441,6.173,24,14.16c38.24,44.32-4.08,104-5.92,106.64
			c-2.583,3.584-1.772,8.584,1.812,11.168c0.215,0.155,0.438,0.299,0.668,0.432c0,0,40.48,24,44.24,56
			C385.486,238.567,378.606,253.767,363.166,268.567z"/>
	</g>
</g>
<g>
</g>
<g>
</g>
<g>
</g>
<g>
</g>
<g>
</g>
<g>
</g>
<g>
</g>
<g>
</g>
<g>
</g>
<g>
</g>
<g>
</g>
<g>
</g>
<g>
</g>
<g>
</g>
<g>
</g>
</svg>
