<?xml version="1.0" encoding="iso-8859-1"?>
<!-- Uploaded to: SVG Repo, www.svgrepo.com, Generator: SVG Repo Mixer Tools -->
<svg  height="800px" width="800px" version="1.1" id="Capa_1" xmlns="http://www.w3.org/2000/svg" xmlns:xlink="http://www.w3.org/1999/xlink" 
	 viewBox="0 0 463 463" xml:space="preserve">
<path d="M423.5,132.001c-12.098,0-24.204-1.423-36.586-3.435c15.676-3.934,30.7-12.551,43.592-25.214
	C444.928,89.185,455,71.154,455,59.501c0-11.792-4.752-22.342-13.382-29.705c-7.294-6.225-16.814-9.795-26.118-9.795
	c-13.004,0-22.043,6.421-40.049,19.213c-5.702,4.051-12.164,8.642-20.169,14.084c-15.855,10.782-42.769,22.35-66.016,31.321
	l12.539-43.885l13.05-6.525c3.704-1.852,5.206-6.357,3.354-10.062c-1.852-3.705-6.354-5.208-10.063-3.354l-16,8
	c-1.88,0.94-3.279,2.626-3.856,4.647l-16,56c-0.156,0.544-0.241,1.091-0.273,1.633c-10.587,3.844-19.12,6.737-23.535,8.208
	c-2.599-2.72-5.841-4.817-9.481-6.046v-9.734c0-0.169-0.014-0.334-0.025-0.5H255.5c4.143,0,7.5-3.358,7.5-7.5s-3.357-7.5-7.5-7.5
	h-0.525c0.011-0.166,0.025-0.331,0.025-0.5c0-3.755-0.89-7.304-2.463-10.456c0.089-0.081,0.181-0.155,0.267-0.241l16-16
	c2.929-2.929,2.929-7.678,0-10.606c-2.93-2.929-7.678-2.929-10.607,0l-16,16c-0.085,0.086-0.16,0.177-0.24,0.266
	c-3.151-1.573-6.701-2.463-10.456-2.463s-7.304,0.89-10.456,2.463c-0.081-0.089-0.155-0.18-0.24-0.266l-16-16
	c-2.93-2.929-7.678-2.929-10.607,0c-2.929,2.929-2.929,7.678,0,10.606l16,16c0.086,0.086,0.178,0.16,0.267,0.241
	C208.89,60.196,208,63.746,208,67.501c0,0.169,0.014,0.334,0.025,0.5H207.5c-4.143,0-7.5,3.358-7.5,7.5s3.357,7.5,7.5,7.5h16.525
	c-0.011,0.166-0.025,0.331-0.025,0.5v9.734c-3.64,1.23-6.882,3.326-9.481,6.046c-4.415-1.47-12.948-4.363-23.536-8.207
	c-0.031-0.543-0.117-1.09-0.273-1.634l-16-56c-0.577-2.021-1.977-3.708-3.856-4.647l-16-8c-3.706-1.854-8.211-0.35-10.063,3.354
	c-1.853,3.705-0.351,8.21,3.354,10.062l13.05,6.525l12.54,43.888c-23.245-8.969-50.155-20.536-66.017-31.323
	c-8.005-5.443-14.467-10.034-20.169-14.084C69.543,26.422,60.504,20.001,47.5,20.001c-9.304,0-18.824,3.57-26.118,9.795
	C12.752,37.159,8,47.709,8,59.501c0,11.653,10.072,29.685,24.494,43.851c12.892,12.663,27.916,21.28,43.592,25.214
	c-12.382,2.012-24.488,3.435-36.586,3.435c-27.687,0-39.5,9.42-39.5,31.5c0,11.652,8.627,25.481,23.077,36.991
	c14.767,11.763,32.416,18.509,48.423,18.509c22.892,0,61.323-24.063,95.231-45.292c2.948-1.846,6.075-3.803,9.269-5.786v9.808
	l-7.208,14.417c-1.853,3.705-0.351,8.21,3.354,10.062c1.077,0.539,2.222,0.793,3.349,0.793c2.751,0,5.4-1.52,6.714-4.147l8-16
	c0.521-1.042,0.792-2.189,0.792-3.354v-20.705c5.56-3.286,10.787-6.228,15.073-8.353l-5.971,35.826
	c-0.067,0.407-0.102,0.82-0.102,1.233v47.077l-7.776,31.104c-1.004,4.018,1.438,8.09,5.457,9.095
	c0.611,0.153,1.223,0.226,1.825,0.226c3.36,0,6.418-2.275,7.271-5.683l8-32c0.148-0.595,0.224-1.206,0.224-1.819v-47.379
	l6.289-37.731c0.859,0.837,1.764,1.576,2.711,2.209v162.901c0,15.872-3.795,30.755-7.813,46.511
	c-4.025,15.786-8.188,32.11-8.188,49.489c0,15.887,17.165,28.683,19.123,30.09c0.027,0.02,0.057,0.032,0.085,0.051
	c0.302,0.211,0.613,0.405,0.938,0.568c0.014,0.007,0.029,0.011,0.042,0.018c0.298,0.146,0.606,0.268,0.919,0.373
	c0.114,0.038,0.228,0.07,0.343,0.102c0.227,0.064,0.455,0.117,0.686,0.16c0.116,0.021,0.232,0.045,0.349,0.061
	c0.322,0.044,0.645,0.072,0.97,0.074c0.013,0,0.025,0.003,0.038,0.003c0.002,0,0.004,0,0.006,0s0.004,0,0.006,0
	c0.013,0,0.025-0.003,0.038-0.003c0.325-0.002,0.649-0.03,0.97-0.074c0.117-0.016,0.232-0.04,0.349-0.061
	c0.231-0.043,0.459-0.096,0.686-0.16c0.115-0.033,0.229-0.064,0.343-0.102c0.313-0.105,0.621-0.226,0.919-0.373
	c0.014-0.007,0.029-0.011,0.042-0.018c0.326-0.162,0.636-0.357,0.938-0.568c0.027-0.019,0.057-0.032,0.085-0.051
	c1.958-1.407,19.123-14.203,19.123-30.09c0-17.379-4.162-33.703-8.188-49.489c-4.018-15.756-7.813-30.639-7.813-46.511V152.599
	c0.947-0.634,1.852-1.373,2.711-2.209L248,188.121v47.379c0,0.613,0.075,1.224,0.224,1.819l8,32c0.853,3.408,3.91,5.683,7.271,5.683
	c0.603,0,1.215-0.073,1.825-0.226c4.019-1.004,6.461-5.077,5.457-9.095L263,234.577v-47.077c0-0.413-0.034-0.826-0.102-1.233
	l-5.971-35.826c4.286,2.125,9.513,5.067,15.073,8.353v20.705c0,1.165,0.271,2.313,0.792,3.354l8,16
	c1.313,2.628,3.963,4.148,6.714,4.147c1.127,0,2.271-0.255,3.349-0.793c3.704-1.852,5.206-6.357,3.354-10.062L287,177.73v-9.808
	c3.194,1.983,6.321,3.941,9.269,5.786c33.908,21.23,72.34,45.292,95.231,45.292c35.47,0,71.5-32.291,71.5-55.5
	C463,141.421,451.187,132.001,423.5,132.001z M223,67.501c0-4.687,3.813-8.5,8.5-8.5s8.5,3.813,8.5,8.5
	c0,0.169,0.014,0.334,0.025,0.5h-17.05C222.986,67.835,223,67.67,223,67.501z M367.5,116.001h-19.281
	c16.46-6.045,30.909-14.632,41.468-27.811C408.1,65.207,425.23,59.996,439.99,59.145c0.001,0.12,0.01,0.235,0.01,0.355
	C440,73.157,409.917,116.001,367.5,116.001z M363.718,65.703c8.131-5.53,14.66-10.168,20.421-14.26
	c17.581-12.491,23.518-16.442,31.361-16.442c6.413,0,14.474,3.024,19.559,9.491c-16.658,1.72-36.68,8.859-57.079,34.32
	c-19.912,24.854-59.896,30.983-98.562,36.91l-1.822,0.279h-22.608c0.004-0.168,0.012-0.344,0.012-0.5
	c0-0.854-0.049-1.697-0.138-2.529C273.022,106.905,334.449,85.605,363.718,65.703z M47.5,35.001c7.844,0,13.78,3.951,31.361,16.442
	c5.761,4.092,12.29,8.73,20.421,14.26c29.268,19.902,90.696,41.202,108.856,47.269c-0.089,0.831-0.138,1.674-0.138,2.529
	c0,0.156,0.007,0.332,0.012,0.5h-22.608l-1.822-0.279c-38.666-5.927-78.649-12.056-98.562-36.91
	c-20.399-25.46-40.421-32.6-57.079-34.32C33.026,38.025,41.087,35.001,47.5,35.001z M23,59.501c0-0.121,0.008-0.236,0.01-0.355
	c14.761,0.85,31.89,6.062,50.304,29.045c10.559,13.178,25.008,21.765,41.468,27.811H95.5C53.083,116.001,23,73.157,23,59.501z
	 M15,163.501c0-8.854,0-16.5,24.5-16.5c20.893,0,42.008-3.993,62.428-7.854c21.183-4.005,43.085-8.146,65.572-8.146h17.33
	c0.004,0,0.009,0.001,0.013,0.001c0.007,0,0.014-0.001,0.021-0.001h25.986c0.106,0.349,0.21,0.696,0.323,1.047
	c-32.631,0.608-97.398,8.055-135.78,33.178c-15.722,10.292-37.249,19.459-44.286,22.346C21.435,179.527,15,170.166,15,163.501z
	 M158.771,160.994c-30.602,19.161-68.688,43.006-87.271,43.006c-8.591,0-17.336-2.578-25.299-6.555
	c10.246-4.534,25.209-11.686,37.407-19.669c14.902-9.754,49.594-23.25,94.125-28.527
	C172.055,152.695,165.762,156.617,158.771,160.994z M231.5,107.001c4.687,0,8.5,3.813,8.5,8.5c0,7.047-4.946,20.678-8.5,24.061
	c-3.554-3.382-8.5-17.014-8.5-24.061C223,110.814,226.813,107.001,231.5,107.001z M232.277,365.718
	c3.972,15.575,7.723,30.286,7.723,45.783c0,4.847-4.583,10.413-8.507,14.181c-4.063-3.917-8.493-9.507-8.493-14.181
	c0-15.497,3.751-30.208,7.723-45.783c0.259-1.016,0.518-2.033,0.777-3.054C231.759,363.685,232.018,364.702,232.277,365.718z
	 M304.229,160.994c-6.991-4.377-13.284-8.299-18.961-11.746c44.53,5.277,79.223,18.773,94.125,28.527
	c12.197,7.984,27.161,15.136,37.407,19.669c-7.963,3.977-16.708,6.555-25.299,6.555
	C372.917,204.001,334.831,180.155,304.229,160.994z M431.893,187.571c-7.037-2.887-28.564-12.054-44.286-22.346
	c-38.382-25.122-103.149-32.57-135.78-33.178c0.112-0.35,0.217-0.698,0.323-1.047h25.986c0.007,0,0.014,0.001,0.021,0.001
	c0.004,0,0.009-0.001,0.013-0.001h17.33c22.487,0,44.39,4.142,65.572,8.146c20.42,3.861,41.535,7.854,62.428,7.854
	c24.5,0,24.5,7.646,24.5,16.5C448,170.166,441.565,179.527,431.893,187.571z" class="ionicon-stroke-width" />
</svg>