<svg xmlns="http://www.w3.org/2000/svg" xmlns:xlink="http://www.w3.org/1999/xlink" width="24" height="24" viewBox="0 0 24 24">
  <defs>
    <rect id="rect-1" width="24" height="24" x="0" y="0"/>
    <rect id="rect-2" width="24" height="24" x="0" y="0"/>
    <mask id="mask-3" maskContentUnits="userSpaceOnUse" maskUnits="userSpaceOnUse">
      <rect width="24" height="24" x="0" y="0" fill="black"/>
      <use fill="white" xlink:href="#rect-2"/>
    </mask>
    <rect id="rect-4" width="16.095" height="15.694" x=".49" y="7.804"/>
  </defs>
  <g>
    <g mask="url(#mask-3)">
      <path stroke-linecap="round" stroke-linejoin="round" fill-rule="evenodd" d="M13.20077515 7.95806885l3.29364013 3.90666198c.06105805.07054139.0933838.1578827.08979416.24858094v10.9810028c0 .22171021-.19395447.40309144-.4310112.40309144H.9205494c-.23705673 0-.4310112-.18138123-.4310112-.40309143V12.11331177c0-.09069824.03232575-.17803955.0933857-.24858094l3.29364395-3.90666198c.07901764-.09742737.20472908-.15452576.3376236-.15452576h8.6489563c.13289642 0 .25501632.05709839.3376274.15452576zm-8.77826119.6516571H8.1076584v3.16766358h-6.3538208l2.66867637-3.16766358zm4.54716683 3.16766358h6.3538208l-2.66867447-3.16766358H8.96968079v3.16766358zm-7.6181202.80619812v10.1076355h14.37062645v-10.1076355H1.3515606z"/>
      <path stroke-linecap="round" stroke-linejoin="round" fill-rule="evenodd" d="M15.99447573 1.27593611c-.0390667-.05748582-.02930023-.17705883.0175802-.2299459C16.03940259 1.01839506 16.08042286 1 16.1253497 1c.06055376 0 .10157402.02989325.26565482.18855704.10548061.10347604.31839513.33112255.4688026.505882.27932815.32192504.30081493.3380207.30081493.20005265 0-.1333693.2031475-.19085512.26760785-.07588087.02734693.05058768.03125352.1080748.02734693.34032008-.00390659.22074967.0019533.28743302.02539337.32422441.01536433.02411556.02267037.03558257.02642807.03407867.0034094-.0013635.00389691-.01340764.00482572-.03637805 0-.02759257.01757966-.07588217.04102027-.11037418.05274004-.07818156.16798712-.0850797.22463428-.0114969.03320655.04368953.03711368.08737907.03711368.3610158v.31042683l.18361402.00230068.18361455.00229938.07813341-.13796806c.04297356-.07588217.1269674-.20925146.18361455-.29663054l.10548061-.16096317-.00390659-.28053487c-.00586042-.34032008.01367307-.40010659.13868716-.40010659.0937603 0 .15626736.06208459.15626736.1563631 0 .0367914.00586042.0735828.0136736.08048224.00585988.00919752.13673386-.12647115.28714133-.3012306.15236076-.17475946.36332198-.40240597.4688026-.50588201C19.77419588 1.02989325 19.81521615 1 19.87576936 1c.09180755 0 .1562679.06898403.1562679.1678613-.0019533.09197785-.00976702.10577543-.22463483.3150269-.0957136.09427852-.2344013.23684534-.30667482.31732627l-.13087398.14946496.04688015.04368954c.03711368.03449201.04883345.06668465.04883345.1333693 0 .10577542-.05078674.17246007-.14259375.1931558-.3457418.0712821-.30667536.05058768-.42387574.2161496-.05860045.08278032-.1093872.1563631-.11329379.16556063-.00195329.00689945.05469334.00919753.1269674.00459876.11329379-.00689684.14064045-.00229808.1875206.04139146.0468807.04368954.05469387.06438527.04883399.1448662-.00976702.14946496-.05469387.17245877-.36332199.19085512l-.25979466.01609567-.05860046.09887728c-.04688015.08278161-.05469387.1080748-.03711368.14716558.0117203.02529449.02539337.11497425.03320709.20235332.00976647.13566868.02344008.17246007.10548061.31732627.08985371.14946496.09962019.16096317.15822065.15176565.03516038-.00459877.1211075.01379628.19142773.03909077l.1250141.04598892.71101706-.17016069c.39066865-.09427852.73250385-.17246007.75985052-.17246007.07422735 0 .14259428.08278161.14259428.17475945 0 .14716688-.0273472.16096317-.52740305.28283426-.25198148.06208588-.47661577.11727233-.49810255.12187239-.02148678.00459876.21096122.1195717.51763604.25753976 1.38882758.62315564 2.06077768.94967944 2.3342454 1.13823517.17384755.11957301.4395021.40240727.48638333.51738022.04297356.1080748.0390659.28513364-.00586096.37251401-.04688015.09197784-.11133996.14716558-.4121549.36101581-.47270917.33342194-1.05285226.64385007-1.39664075.74962549-.08399383.02759387-.23049471.0597865-.32425501.07358279l-.16994096.0252945-.00781318.18855573c-.0156269.33572262-.1347811.51738021-.44536251.6875409-.41801585.2299459-.54107612.27593612-.74422416.28743172-.24026118.0114982-.29886163-.00689684-.83603116-.28743172-.4512224-.23684534-.49028883-.25984044-.57232937-.3495189l-.05469387-.05748713-.05274003.05748713c-.08399383.08967846-.1230608.11267356-.5742832.3495189-.53716953.28053488-.59576972.29892993-.8360309.28743172-.20314777-.0114956-.32620857-.05748582-.74422388-.28743172-.31058168-.17016069-.42973562-.35181828-.44536252-.6875409l-.00781345-.18855574-.16994082-.02529449c-.34574179-.05058768-.71101706-.20005394-1.20325966-.49208572-.27151478-.15866249-.70320369-.45299495-.82626436-.56106975C13.04297356 6.67048272 13 6.57160544 13 6.43823614c0-.14256681.03711354-.22534713.1758009-.39320844.27932816-.338022.6621835-.54497408 2.67608082-1.4486633.30667481-.13796805.53912281-.252941.51763603-.25753976-.02148678-.00460006-.24612133-.0597865-.49810255-.1218724-.37504202-.09197783-.46489573-.1195717-.49224267-.16096186-.07813367-.11037548-.01172003-.29663184.10352732-.29663184.03125352 0 .37308845.07818155.76375737.17246007l.71101707.17016069.12501382-.04598892c.0703205-.02529449.15626763-.04368954.19142774-.03909077.05860046.00919752.06836693-.00230069.15822091-.15176565.08204054-.1448662.0957136-.1816576.10548061-.31732627.00781318-.08737907.02148678-.17705883.03320655-.20235332.0175802-.03909078.00976702-.06438397-.03711314-.14716558l-.05860045-.09887728-.25979467-.01609567c-.30862838-.01839635-.35355524-.04139016-.36332198-.19085512-.00586016-.08048093.0019533-.10117666.04883344-.1448662.04688042-.04368954.07422709-.0482883.18752115-.04139146.07227379.00459877.12892068.00230069.12696739-.00459876-.00390686-.00919752-.0546936-.08278031-.11329406-.16556063-.1074339-.14946626-.1093872-.15176434-.24416804-.17935951-.29300148-.05748582-.32230171-.08047963-.32230171-.23914342 0-.05748712.0136736-.09197914.04883371-.12417177l.04883372-.04598892-.13282755-.1448662c-.07227379-.08048223-.21096095-.22534713-.30667481-.31962565-.09766717-.09427852-.18556785-.18855704-.19924119-.20695209zM18.11190058 3.681177c.05859992-.08048094.05664662-.15176435-.00390713-.2299459-.06250705-.07818155-.15040747-.08048223-.21486727-.00229938-.0605543.06898403-.06250759.15176434-.00390713.23224528.03320709.04599022.06446034.06208588.1113405.06208588.04688014 0 .07813394-.01609566.11134103-.06208588zm-.30081494.39320844c.03906644.02529449.10743337.03909078.1894739.03909078.08204054 0 .15040747-.0137963.18947444-.03909078.08594713-.05288836.09180701-.05058898.14454758.04368954l.04688016.08278031-.05860046.14026744c-.05274004.12647115-.05860046.16326255-.06055376.37251401l-.00195329.2299459-.1250141.29203308c-.06836693.16326125-.12892068.29433116-.13478057.29433116-.00585988 0-.06641363-.13106991-.13478057-.29433116l-.1250141-.29203308-.00195329-.2299459c-.0019533-.20925146-.00781318-.24604286-.06055375-.37251401l-.05860046-.14026744.04688015-.08278031c.05274058-.09427852.058601-.0965779.14454812-.04368954zm-.39652907.45989309c0-.0114969-.02539337-.05058898-.0566469-.08738038-.03125352-.0367914-.07422708-.06668464-.09376056-.06668464-.04297357.00229938-1.72089578.7473274-2.50613993 1.11524136-.6446033.3012306-.99229851.48978634-1.16419276.6277544-.14650074.11727232-.29495485.29663054-.2715147.3242244.01172003.01149691.11329392.08737908.22658784.1701607l.20705443.14946496.0937605-.11497295c.22854122-.2782355.59576972-.54727346 1.32827357-.97267454.55279642-.31962565 1.17395977-.6392513 1.84004998-.94508067.2187744-.10117536.39652853-.19085512.39652853-.20005264zm2.2600186.24834224c1.75996274.78181812 2.47488693 1.13133703 2.7327283 1.3405885.14650034.11727232.29495398.29663054.27151444.3242244-.01171977.01149691-.11134103.08738038-.22463428.16786132l-.20705463.14946496-.14650142-.16326125c-.2578403-.28513494-.64069576-.56106975-1.33608647-.95887825-.53716953-.30812745-1.011832-.54957155-1.07824564-.54957155-.11915367 0-.18752114.18625636-.1074339.29433116.01758019.02759387.18361401.12647115.36527527.218449.89463109.45989308 1.53337463.8668991 1.89279002 1.20721919l.13478057.12647115-.11524708.06898403c-.54302995.32422441-1.05285227.49208572-1.30483376.42999984-.34769508-.0850797-.95909142-.84390401-1.66034202-2.06262011l-.22854087-.39550783.1894739.09197784c.10548061.0482896.21486781.08967976.2461216.08967976.1230608 0 .19924092-.19775456.11524709-.29663184-.01953349-.02299381-.16994095-.10347605-.33206819-.17705884-.16212777-.07588217-.29495505-.1448662-.29495505-.15406372 0-.03449202.1132938-.15406372.14650088-.15406372.01758019 0 .4395021.18165759.94151123.40240596zm-4.22508214 2.6558825c.36136842-.08738038.99815867-.8944917 1.74824244-2.21438576.07527065-.1340491.13528582-.24340292.1348241-.24377727l-.00004326.0000338c-.04883372.01839634-.65046359.3127275-1.04113223.5058833-.60944332.30582807-1.44352105.78641689-1.73652254 1.00486588-.25784137.19085642-.5039627.41620355-.49419596.45069556.01172004.04139016.51177602.30352869.74617732.39090906.28323474.1080748.49614925.14256682.64265013.10577543zm2.34791901-1.45326206c.03125326.1333693.03711368.26673859.04297356 1.00486717.0039066.56566852 0 .87839603-.0136736.93588185-.01171977.04599022-.05078674.11267357-.08594712.14946626-.03711368.0367914-.27151444.17475815-.52349593.30812745l-.45708228.23914472h-.1758011c-.17384755 0-.17775414-.00229938-.48052264-.1563631-.40043512-.20465271-.44731554-.26213984-.44731554-.54267471v-.16326125l.08399383-.0482896c.3984821-.23684404.9571384-.96117634 1.61736846-2.09711213l.18361428-.31962565.1093872.26903667c.06055376.14716558.1269674.33572262.14650088.42080232zM20.26253197 7.71214c-.39848237-.23684405-.96104526-.9657751-1.6056487-2.07871709-.09571359-.16556063-.17970742-.30582806-.18752114-.31732627-.01757965-.0229938-.22268098.48748696-.26565455.66224641-.02929996.11727233-.03515984.2667386-.04102026 1.00026842-.00585989.5794648-.0019533.88989293.0117203.94737875.01171977.04599022.05078674.11267357.08594713.14946626.03711367.0367914.27151443.17475815.52349592.30812745l.45708228.23914472h.17580084c.17384754 0 .17775467-.00229938.4805229-.1563631.40043566-.20465271.44731581-.26213984.44731581-.54267471v-.16326125l-.08204053-.0482896z"/>
    </g>
  </g>
</svg>
