<?xml version="1.0" standalone="no"?>
<!DOCTYPE svg PUBLIC "-//W3C//DTD SVG 20010904//EN"
 "http://www.w3.org/TR/2001/REC-SVG-20010904/DTD/svg10.dtd">
<svg version="1.0" xmlns="http://www.w3.org/2000/svg"
class="ionicon"
 width="512.000000pt" height="512.000000pt" viewBox="0 0 512.000000 512.000000"
 preserveAspectRatio="xMidYMid meet">
<metadata>
Created by potrace 1.16, written by Peter Selinger 2001-2019
</metadata>
<g  transform="translate(0.000000,512.000000) scale(0.100000,-0.100000)">
<path  stroke-linecap="round" stroke-linejoin="round"  d="M1542 4280 c-24 -23 -29 -75 -9 -100 7 -8 52 -49 102 -90 49 -41 120
-104 157 -139 l68 -63 -25 -20 c-18 -14 -25 -29 -25 -54 0 -69 15 -79 165
-104 69 -12 70 -13 125 -78 30 -36 56 -68 58 -72 1 -3 -28 -4 -65 -2 -58 3
-72 1 -96 -18 -24 -19 -28 -28 -25 -63 5 -65 28 -75 186 -83 l133 -7 30 -43
c24 -36 28 -47 19 -64 -6 -11 -13 -50 -17 -88 -5 -59 -12 -75 -54 -138 -46
-65 -51 -70 -81 -66 -18 2 -62 -6 -98 -17 l-64 -20 -364 74 c-200 41 -375 75
-391 75 -59 0 -93 -81 -53 -129 14 -18 60 -30 252 -70 129 -27 244 -51 255
-53 11 -2 -108 -52 -265 -112 -1031 -393 -1227 -483 -1370 -630 -71 -73 -90
-109 -90 -171 0 -58 22 -101 72 -138 63 -47 284 -175 423 -244 252 -127 439
-192 616 -214 l87 -11 4 -82 c8 -146 69 -225 228 -299 214 -100 277 -120 381
-125 123 -5 153 3 428 125 231 103 251 113 294 152 l27 25 28 -25 c42 -39 62
-49 293 -152 275 -122 305 -130 428 -125 104 5 167 25 381 125 159 74 220 153
228 299 l4 82 87 11 c48 6 123 20 166 32 176 46 473 181 715 326 154 93 187
117 211 157 23 38 25 115 3 162 -24 50 -160 173 -249 225 -140 82 -484 224
-1195 495 -157 60 -276 110 -265 112 11 2 126 26 255 53 256 53 270 59 270
123 0 40 -35 76 -73 76 -14 0 -189 -34 -389 -75 l-364 -74 -64 20 c-36 11 -80
19 -98 17 -30 -4 -35 1 -81 66 -42 63 -49 79 -54 138 -4 38 -11 77 -17 88 -9
17 -5 28 19 64 l30 43 133 7 c158 8 181 18 186 83 3 35 -1 44 -25 63 -24 19
-38 21 -96 18 -37 -2 -66 -1 -65 2 2 4 28 36 58 72 60 72 40 63 217 94 47 9
73 38 73 84 0 29 -6 43 -25 58 l-24 19 67 65 c37 35 108 97 157 138 110 91
114 97 115 137 0 43 -33 73 -80 73 -31 0 -52 -13 -136 -82 -54 -45 -162 -144
-240 -220 -77 -76 -144 -135 -147 -131 -4 3 -7 19 -7 35 0 41 -32 68 -80 68
-64 0 -74 -26 -71 -174 l2 -122 -54 -70 c-29 -38 -72 -96 -94 -129 l-40 -60
-94 1 -94 1 0 135 c0 119 -2 138 -19 157 -29 32 -88 29 -115 -5 -12 -15 -21
-36 -21 -48 -1 -21 -1 -21 -16 -1 -12 16 -15 45 -13 141 2 101 0 126 -14 148
-33 50 -137 25 -137 -33 0 -60 -11 -53 -154 87 -77 76 -186 175 -240 220 -84
69 -105 82 -136 82 -23 0 -44 -8 -58 -20z m1073 -1046 c31 -34 32 -65 2 -100
-17 -20 -33 -27 -57 -27 -24 0 -40 7 -57 27 -30 35 -29 71 2 101 33 34 78 33
110 -1z m-152 -271 c20 -11 55 -17 97 -17 42 0 77 6 97 17 44 23 47 22 74 -19
l24 -36 -30 -61 c-27 -55 -30 -71 -31 -162 l-1 -100 -64 -127 c-35 -71 -66
-128 -69 -128 -3 0 -34 57 -69 128 l-64 127 -1 100 c-1 91 -4 107 -31 162
l-30 61 24 36 c27 41 30 42 74 19z m-232 -162 c16 -16 29 -33 29 -38 0 -4 -91
-43 -203 -87 -341 -133 -659 -272 -942 -411 -375 -185 -563 -302 -680 -423
l-48 -50 -106 65 c-58 36 -110 69 -116 74 -12 12 64 90 139 141 88 60 266 142
596 273 402 160 1261 484 1283 485 10 0 32 -13 48 -29z m1186 -146 c901 -340
1267 -492 1399 -583 75 -51 151 -129 139 -141 -6 -5 -57 -38 -115 -73 l-106
-65 -75 71 c-132 124 -328 244 -684 417 -275 134 -518 239 -552 239 -61 0 -96
-81 -55 -128 9 -12 94 -55 187 -95 458 -200 785 -377 969 -525 l69 -55 -59
-30 c-278 -141 -539 -214 -668 -187 -178 37 -491 367 -850 897 l-117 172 97
-40 c54 -21 110 -39 126 -39 63 0 102 86 59 129 -10 10 -87 45 -170 77 -83 33
-151 63 -151 67 0 15 58 67 75 67 9 0 225 -79 482 -175z m-1268 -192 c-384
-574 -710 -925 -895 -963 -75 -16 -184 -1 -329 46 -120 38 -376 152 -382 170
-5 15 121 113 253 196 150 95 577 304 889 437 200 84 508 212 533 220 1 1 -30
-47 -69 -106z m307 -331 c16 -58 19 -116 22 -437 2 -246 0 -382 -7 -407 -6
-20 -26 -49 -44 -65 -19 -16 -139 -76 -268 -134 l-234 -104 -90 0 c-89 0 -91
1 -246 68 -205 89 -229 114 -229 236 l0 71 43 21 c204 103 490 418 828 912
l94 139 56 -117 c31 -64 65 -146 75 -183z m440 153 c330 -484 618 -801 822
-904 l42 -21 0 -71 c0 -122 -24 -147 -229 -236 -155 -67 -157 -68 -246 -68
l-90 0 -234 104 c-129 58 -249 118 -268 134 -18 16 -38 45 -44 65 -7 25 -9 
160 -6 412 3 319 6 384 21 435 22 76 127 298 136 288 4 -5 47 -66 96 -138z"  class="ionicon-stroke-width" />
</g>
</svg>
