<svg xmlns="http://www.w3.org/2000/svg" xmlns:xlink="http://www.w3.org/1999/xlink" width="23" height="23" viewBox="0 0 23 23">
  <defs>
    <rect id="rect-1" width="23" height="23" x="0" y="0"/>
    <mask id="mask-2" maskContentUnits="userSpaceOnUse" maskUnits="userSpaceOnUse">
      <rect width="23" height="23" x="0" y="0" fill="black"/>
      <use fill="white" xlink:href="#rect-1"/>
    </mask>
  </defs>
  <g>
    <use fill="none" xlink:href="#rect-1"/>
    <g mask="url(#mask-2)">
      <path  fill-rule="evenodd" d="M17.86166382.22607422l4.50662231 5.71559143c.0835495.10321045.1277771.23098755.12286377.36367798v16.06559753c0 .32435608-.26538467.58973694-.58974457.58973694H1.05888367c-.32435799 0-.58974266-.26538086-.58974266-.58973694V6.30534363c0-.13269043.04423141-.26046753.1277771-.36367798L5.10354233.22607422C5.21166229.08354187 5.3836708 0 5.56550789 0h11.83418846c.18183899 0 .34893036.08354187.46196747.22607422zM5.8505497 1.17948914h5.0423088v4.63439941H2.19905473L5.8505497 1.17948914zm6.22179603 4.63439941h8.6938057l-3.65149689-4.63439941h-5.0423088v4.63439941zM1.64862823 6.99337769v14.78782653h19.66303254V6.9933777H1.64862823z"/>
      <path  fill-rule="evenodd" d="M9.99447632 10.27592468c-.03906632-.05747986-.0293007-.17704773.01757812-.22993469C10.03940201 10.01838684 10.08042144 10 10.12535095 10c.0605545 0 .10157395.02989197.26565552.18855286.1054802.10346985.3183937.33111572.4687996.50587463.2793312.32192993.30081557.33802795.30081557.20005798 0-.13336181.2031479-.19085693.26760865-.07588195.02734756.05058288.03125381.108078.02734756.34031677-.00390625.2207489.00195313.28744507.02539444.324234.01511002.02372742.0224266.03520203.02623749.03414918.00357818-.00100708.00406647-.01306153.00501251-.03645325 0-.0275879.01758194-.07588196.04102325-.11036682.0527382-.07818604.16798401-.085083.22463227-.01150513.03320694.04368591.03711319.08738709.03711319.36102295v.3104248l.18361664.00228882.18361282.00230408.07813263-.13796997c.04297638-.07588196.12696838-.20924377.18361664-.29663086l.1054802-.16096496-.00390626-.28053284c-.00586319-.34031677.01367188-.40010071.13868713-.40010071.09376145 0 .15626526.06208801.15626526.15635681 0 .0368042.0058632.07359314.0136757.08049011.00585937.00920105.136734-.1264801.28713989-.30123901.15236282-.17475891.3633232-.40240478.4688034-.50587463C13.77419662 10.02989196 13.81521606 10 13.87577057 10c.0918045 0 .15626526.06898499.15626526.16786194-.00195313.09196472-.00976563.10577392-.22463227.3150177-.09571456.09428406-.2344017.23684692-.30667495.31732178l-.13087464.1494751.04687882.0436859c.03711319.03450013.04883575.06668091.04883575.13337708 0 .10577393-.05078888.17245484-.14259338.19314575-.34574509.07128907-.30667877.05059815-.42387772.21615601-.05860138.08277893-.10938644.15635681-.1132927.16555786-.00195312.00689697.05469132.00920105.1269684.0045929.11329269-.00689698.14064025-.00228882.18751907.0413971.04687881.0436859.05469513.06439208.04883194.14486693-.00976563.14945984-.05469132.17245484-.3633194.19085694l-.25979614.01609802-.05860138.09887695c-.04687882.08277893-.05469132.108078-.0371132.14715577.01172257.02529907.02539445.11497497.03320695.20236206.00976944.13566589.02344131.17245483.1054802.31732177.08985518.14945984.09962081.16096497.15822219.15176392.03516006-.0045929.121109.01379394.19142914.03909302l.12501144.04598999.71101761-.17016602c.39067078-.0942688.7325058-.17245483.75984955-.17245483.0742302 0 .1425972.08277893.1425972.1747589 0 .14717103-.02734757.16096497-.52740479.28283692-.25197983.06208802-.4766159.1172638-.49810028.12187195-.02148819.0045929.21096039.11956787.51763535.25753784 1.38882446.62315369 2.06077575.94967652 2.33424377 1.13822937.1738472.11958313.43950272.40240479.48638153.51737976.04297638.108078.03907013.285141-.00585937.37251282-.04687882.09197998-.11133957.14717102-.41215515.36102295-.47270966.3334198-1.05285264.6438446-1.39664078.74961853-.083992.02760315-.23049546.0597992-.32425308.07359314l-.16994095.02528381-.00781632.18856812c-.015625.33572388-.13477707.51737976-.44535827.68753052-.41801835.22994995-.54107666.27593994-.74422455.28744506-.24026108.01148987-.29886246-.00691223-.83603287-.28744506-.45122147-.23684693-.49028778-.25984192-.57233047-.34951783l-.05469132-.05747985-.052742.05747985c-.083992.0896759-.12305832.1126709-.5742836.34951783-.5371666.28053283-.59576798.29893493-.83602906.28744506-.20314788-.01150512-.32621002-.05749511-.74422454-.28744506-.31058121-.17015076-.4297371-.35180664-.4453621-.68753052l-.0078125-.18856812-.16994094-.02528381c-.34574128-.05059814-.71101761-.20005798-1.20326233-.49209595-.2715149-.15866089-.7032013-.45298767-.82626343-.56106567C7.04297256 15.6704712 7 15.57159424 7 15.43823242c0-.14256286.03711319-.2253418.17580032-.39320373.2793274-.33802796.66218567-.54498291 2.67608261-1.44866944.30667496-.13796997.53912354-.25294494.51763535-.25753784-.02148819-.00460815-.24612045-.05978393-.4981041-.12187195-.37504196-.09197998-.46489334-.11956787-.4922409-.16096496-.07813263-.11036682-.01172257-.29663086.10352707-.29663086.03125381 0 .37308883.07818603.7637558.17245483l.7110176.17016602.12501526-.04599c.07032013-.02529907.15626526-.0436859.19142533-.03909301.05860138.00920105.068367-.00230408.1582222-.15176392.08203888-.14486694.09571456-.18165588.10548019-.31732177.0078125-.08738709.02148819-.177063.03320694-.20236206.01758194-.03907776.00976562-.06437684-.03711319-.14715577l-.05860138-.09887695-.25979233-.01609802c-.30862808-.0184021-.35355758-.0413971-.3633232-.19085694-.00585938-.08047485.00195312-.10118103.04883193-.14486694.04688263-.04368591.0742302-.04829407.18752289-.0413971.07227325.00460816.1289215.00230408.12696838-.00459289-.00390625-.00920105-.05469513-.08277893-.1132965-.16555786-.10743333-.1494751-.10938645-.15176392-.24416733-.17936707-.29299927-.05747985-.32229996-.08047485-.32229996-.23913574 0-.05749512.01367187-.09197998.04883194-.12417602l.04883575-.04599-.13282776-.14486694c-.07227325-.08047485-.2109642-.2253418-.30667495-.31962585-.0976677-.0942688-.18556977-.18855286-.19924164-.20695496zm2.11742401 2.40524292c.05860138-.08047485.05664825-.15176391-.00390625-.22994995-.06250763-.07817077-.15040588-.08047485-.21486664-.00228882-.0605545.06898499-.06250763.15176392-.00390625.23223877.03320694.04599.06446076.06208802.11133957.06208802.04687882 0 .07813263-.01609803.11133957-.06208802zm-.30081177.393219c.03906632.02529907.10743332.03909301.1894722.03909301.0820427 0 .1504097-.01379394.18947601-.03909301.08594513-.05288697.0918045-.05058289.14454651.04370117l.04687882.08277893-.05859757.14025879c-.052742.1264801-.05860138.16326904-.0605545.37251282l-.00195313.22994995-.12501526.29203796c-.068367.16325378-.1289215.29432678-.13478088.29432678-.00585937 0-.06641388-.131073-.13478088-.29432678l-.12501145-.29203796-.00195694-.22994995c-.00195312-.20924378-.0078125-.24603272-.06055069-.37251282l-.05860138-.1402588.04687882-.08277892c.052742-.09428406.05860138-.09658814.14455032-.04370117zm-.39653015.45988464c0-.01148987-.02539444-.05058289-.05664825-.08737183-.03125382-.03678894-.07422638-.0666809-.09376145-.0666809-.04297256.00228881-1.72089386.74731445-2.50613785 1.11523437-.64460372.30123901-.99229812.48979187-1.1641922.62776184-.14650344.1172638-.2949562.29663086-.27151489.32421875.01171875.01148987.1132927.08738709.22658539.17016602l.20705414.14945984.09376144-.11497498c.22854233-.27822876.5957718-.54727173 1.32827378-.9726715.5527954-.31962586 1.17396164-.63925172 1.84004974-.94508363.2187767-.10118103.39653015-.19085693.39653015-.20005798zm2.2600174.24835205c1.75996398.78181458 2.47488784 1.13134766 2.73272705 1.34059143.14649963.11727905.2949562.29663086.27151489.32421875-.01171875.01150513-.11133957.08738709-.22463226.16786194l-.20705796.1494751-.14649963-.16326905c-.2578392-.28512573-.64069748-.56106567-1.33608627-.95887756-.53717041-.30812073-1.0118332-.5495758-1.07824707-.5495758-.11915207 0-.18751908.18626403-.10743332.29434204.01758194.02758789.18361282.12646484.36527633.21844482.89463044.4598999 1.53337479.86689758 1.89278794 1.20721436l.13478088.1264801-.11524582.06898498c-.54302978.32421875-1.05285263.4920807-1.30483246.42999268-.3476982-.085083-.95909118-.84390259-1.66034317-2.06262207l-.22854233-.39550781.18947602.09197998c.1054802.04829407.21486664.0896759.24612045.0896759.12306213 0 .19924164-.1977539.11524582-.29663086-.01953125-.022995-.16994095-.10346985-.33206558-.17704773-.16212845-.07588196-.29495621-.14486694-.29495621-.154068 0-.03450011.1132927-.15406798.14649963-.15406798.01758194 0 .43950272.18165588.94151307.40240478zm-4.2250824 2.65588379c.36137008-.08738708.9981575-.89450073 1.74824142-2.21438599.07528687-.13406372.13530731-.24345398.13478089-.2437439-.04883194.0184021-.6504631.31272889-1.04113007.50587464-.60944366.30583191-1.4435234.78642273-1.73652267 1.00486755-.25784302.19085694-.50396347.416214-.49419785.45069886.01172257.0413971.51177597.30352783.74617767.39091491.28323746.108078.49615097.14256287.6426506.10577393zm2.34791946-1.45326233c.03125382.13336182.0371132.2667389.04297257 1.00486755.00390625.56565857 0 .87838746-.01367188.93588257-.01172256.04599-.05078888.1126709-.08594894.14945984-.0371132.03678894-.2715149.17475891-.52349472.30812073l-.45708466.239151h-.17580032c-.1738472 0-.17775345-.00230408-.48052216-.15635681-.4004364-.20466614-.44731521-.262146-.44731521-.54267883v-.16326905l.083992-.0482788c.39848328-.23684693.95714188-.96118165 1.6173706-2.0971222l.18361283-.31962585.10939026.26904297c.06055069.14717102.12696457.33572387.14649963.42080688zm2.46511841 1.7268982c-.39848328-.23684693-.96104431-.96577454-1.60564804-2.0787201-.09571457-.16555786-.17971039-.3058319-.18752289-.31732178-.01757812-.022995-.22267914.4874878-.26565552.6622467-.02929687.1172638-.03516006.2667389-.04101944 1.0002594-.00585937.57946778-.00195312.88989259.01172257.9473877.01171875.04599.05078506.1126709.08594513.14945984.03711319.03678894.2715149.17475891.52349472.30812073l.45708465.239151h.17580033c.1738472 0 .17775345-.00230408.48052215-.15635681.4004364-.20466614.44731522-.262146.44731522-.54267883v-.16326905l-.08203888-.0482788z"/>
    </g>
  </g>
</svg>
