<?xml version="1.0" encoding="UTF-8" standalone="no"?>
<!DOCTYPE svg PUBLIC "-//W3C//DTD SVG 1.1//EN" "http://www.w3.org/Graphics/SVG/1.1/DTD/svg11.dtd">
<svg width="100%" height="100%" viewBox="0 0 468 468" version="1.1" xmlns="http://www.w3.org/2000/svg" xmlns:xlink="http://www.w3.org/1999/xlink" xml:space="preserve" xmlns:serif="http://www.serif.com/" style="fill-rule:evenodd;clip-rule:evenodd;stroke-linejoin:round;stroke-miterlimit:2;">
    <g>
        <g transform="matrix(0.700393,0,0,0.655031,2.86004,152.169)">
            <path d="M455.146,120.9L363.446,4.6C361.146,1.7 357.746,0 354.046,0L113.246,0C109.546,0 106.046,1.7 103.846,4.6L12.146,120.9C10.446,123 9.546,125.6 9.546,128.3L9.546,455.2C9.546,461.8 14.946,467.2 21.546,467.2L445.646,467.2C452.246,467.2 457.646,461.8 457.646,455.2L457.646,128.3C457.746,125.6 456.846,123 455.146,120.9ZM422.546,118.3L245.646,118.3L245.646,24L348.246,24L422.546,118.3ZM119.046,24L221.646,24L221.646,118.3L44.746,118.3L119.046,24ZM33.546,443.2L33.546,142.3L433.646,142.3L433.646,443.2L33.546,443.2Z" style="fill-rule:nonzero;"/>
        </g>
        <g transform="matrix(7.79393,0,0,7.79393,359.346,111.311)">
            <g transform="matrix(1,0,0,1,-11.5215,-10.0055)">
                <clipPath id="_clip1">
                    <rect x="0" y="0" width="23.043" height="20.011"/>
                </clipPath>
                <g clip-path="url(#_clip1)">
                    <path d="M20.417,7.684C21.2,8.201 22.804,9.474 23.02,11.177C23.159,12.313 22.67,13.405 21.559,14.426C20.861,15.059 19.925,15.394 18.965,15.354C18.283,15.344 17.606,15.23 16.961,15.018C17.142,15.585 16.957,16.201 16.489,16.588C15.838,17.127 14.855,17.058 14.292,16.433C13.984,17.653 13.196,19.391 11.352,19.833C10.901,19.945 10.437,20.005 9.97,20.01C9.01,20.039 8.082,19.679 7.413,19.02C6.302,17.905 6.072,16.155 6.03,15.324C4.726,15.297 1.182,14.934 0.187,11.84C-0.126,10.863 -0.043,10.058 0.417,9.452C1.016,8.674 2.238,8.281 4.049,8.281C6.088,8.351 8.112,8.648 10.081,9.165L9.62,8.387C9.48,8.142 9.414,7.865 9.431,7.587L7.376,6.26C7.157,6.121 7.097,5.838 7.242,5.628C7.387,5.418 7.682,5.361 7.901,5.5L9.776,6.694C9.902,6.539 10.059,6.41 10.237,6.313C10.426,6.218 10.633,6.161 10.846,6.145L10.786,3.966C10.786,3.722 10.992,3.524 11.246,3.524C11.501,3.524 11.707,3.722 11.707,3.966L11.772,6.353C12.017,6.488 12.22,6.686 12.357,6.923L12.818,7.697C13.592,5.336 15.638,0 18.375,0C19.201,0.047 19.962,0.446 20.449,1.088C22.633,3.519 21.08,6.605 20.417,7.684ZM19.016,14.47C19.723,14.498 20.413,14.254 20.933,13.794L20.919,13.794C21.808,12.976 22.205,12.136 22.108,11.296C21.891,9.527 19.56,8.201 19.56,8.201C19.546,8.194 19.533,8.186 19.521,8.177C19.315,8.034 19.268,7.758 19.417,7.56L19.42,7.556C19.564,7.357 21.941,4.095 19.758,1.667C19.437,1.225 18.933,0.94 18.375,0.884C16.44,0.884 14.362,5.655 13.44,8.78L16.352,13.807C17.181,14.207 18.089,14.433 19.016,14.47ZM16.131,15.624C16.037,15.949 15.686,16.138 15.347,16.047C15.182,16.003 15.043,15.897 14.961,15.752L14.5,14.948L11.445,9.642L10.463,7.945C10.294,7.649 10.405,7.278 10.712,7.114C10.806,7.063 10.913,7.037 11.021,7.038C11.252,7.038 11.466,7.158 11.578,7.352L16.08,15.16C16.161,15.302 16.18,15.469 16.131,15.624ZM9.993,19.126C10.388,19.121 10.781,19.071 11.164,18.975C13.15,18.493 13.546,15.858 13.615,15.244L10.717,10.217C9.924,10.001 6.652,9.147 4.062,9.147C2.579,9.147 1.579,9.426 1.169,9.961C0.883,10.332 0.855,10.871 1.076,11.566C1.929,14.218 5.21,14.426 6.196,14.426L6.486,14.426C6.741,14.426 6.947,14.624 6.947,14.868L6.947,14.874C6.945,15.013 6.914,17.233 8.099,18.405C8.595,18.893 9.284,19.155 9.993,19.126Z"/>
                </g>
            </g>
        </g>
    </g>
</svg>
