<?xml version="1.0" encoding="utf-8"?>
<!-- Generator: Adobe Illustrator 15.0.2, SVG Export Plug-In . SVG Version: 6.00 Build 0)  -->
<!DOCTYPE svg PUBLIC "-//W3C//DTD SVG 1.1//EN" "http://www.w3.org/Graphics/SVG/1.1/DTD/svg11.dtd">
<svg version="1.1" id="Laag_1" xmlns="http://www.w3.org/2000/svg" xmlns:xlink="http://www.w3.org/1999/xlink" x="0px" y="0px"
	 viewBox="0 0 282.159 118.353" enable-background="new 0 0 282.159 118.353" xml:space="preserve">
<g>
	<g>
		<g>
			<g>
				<path fill="#2DA343" stroke="#2DA343" stroke-width="0.2" d="M73.372,77.067c-0.24-0.484-0.406-0.684-0.479-0.721
					c-0.937,0.528-1.866,0.884-2.709,1.247c-0.225,0.637-0.452,1.248-0.632,1.799c-1.837,5.176-2.049,9.734-2.518,14.975
					c-1.224,11.6-12.681,12.214-17.453,1.703c-0.851-2.021-1.031-4.13-1.096-6.234c-0.319-1.091-0.312-1.938-0.078-2.605
					c-0.069-2.111-0.244-4.178-1.108-6.123c-1.872-3.972-5.698-5.29-9.005-7.96c-2.206-1.704-5.284-4.357-6.538-6.929
					c-2.492-5.374-0.766-3.24,2.843-2.155c9.911,3.199,25.701,7.817,35.48,3.924l-0.102-2.748
					c-2.841-9.766-3.302-11.016-3.302-11.016l-0.252-0.031c-5.885-10.145-9.979-13.089-13.075-13.963
					c-3.101-0.878-3.02-0.701-3.625-0.068c-0.614,0.634,0.509,1.688,1.015,2.25c0.504,0.566,1.475,0.322,1.475,0.322l0.588-1.315
					c8.958,4.13,12.254,14.221,12.207,14.292c-0.995,1.444-0.106,2.582,0.195,3.049c0.31,0.464,1.343,2.169,1.343,2.169
					l-1.464,0.261C39.096,49.74,27.099,47.433,26.423,47.352c-0.678-0.082-13.766-1.762-21.332-1.769
					c-7.57-0.01-6.142,9.128,1.664,13.933c7.81,4.801,10.814,9.765,10.814,9.765c6.176,15.479,21.145,14.103,21.145,14.103
					C31.587,89.808,34.579,96.1,34.579,96.1s3.551,5.316,8.554,11.032c6.494,7.42,11.825,9.166,11.825,9.166
					s1.523,0.196,4.156,1.376c2.633,1.179,4.64,0.192,4.64,0.192c0.591-0.259,1.486-1.111,1.932-1.036
					c3.768,0.605,8.754-10.223,8.74-10.345c-0.229-1.881-1.831-13.886-1.791-13.937c0.902-1.295,0.372-5.78,0.372-5.78
					s5.602,13.539,5.97,13.993c0.366,0.462,0.733,0.048,0.727-0.206C79.651,99.128,76.543,88.043,73.372,77.067z"/>
			</g>
		</g>
		<g>
			<path fill="#00ACD4" stroke="#00ACD4" stroke-width="0.2" d="M95.411,65.039l60.626-22.272c0,0-0.602-1.517-1.51-1.572
				c-0.907-0.047-1.041-0.051-1.223-0.25c-0.178-0.207-0.411-0.149-0.628-0.054c-0.213,0.098-2.167,1.321-2.269,1.392
				c-0.096,0.058-0.81,0.437-1.356,0.372c-0.545-0.054-1.93,0.228-2.475,0.428c-0.547,0.199-13.591,4.435-19.653,6.783
				c-6.067,2.334-12.136,4.676-15.428,6.404c-3.29,1.731-5.774,1.583-5.774,1.583s2.762-0.864,2.797-5.516
				c0.037-4.652-0.676-11.768-3.9-21.22c-2.385-7.027-5.083-7.973-5.083-7.973s-0.364-6.624-4.633-13.252
				c-4.263-6.628-6.955-9.714-7.615-9.701c-0.669,0.021-1.372-0.51-2.241,0.792c-0.873,1.291-1.794,2.519-1.971,11.263
				c-0.179,8.744,1.764,18.19,1.764,18.19s-2.674-2.673-4.717-6.756c-2.027-4.08-3.207-5.811-4.797-7.844
				c-1.583-2.03-1.142-1.276-3.219-4.707c-2.077-3.429-9.691-8.813-13.245-8.837c-3.547-0.023-2.57,4.115-0.541,9.141
				c2.02,5.023,8.689,16.849,9.382,18.313c0.7,1.473,4.886,10.858,5.964,14.582c1.072,3.714,4.766,16.491,7.864,20.605
				c0.027,0.034-1.189-0.471-1.709-0.394c-0.605,0.091-2.204,1.017-2.816,2.142c-0.619,1.132-0.589,2.209-0.589,2.209
				s-1.174,0.233-1.368,1.413c-0.109,0.637-0.074,1.402,0.256,2.067l14.242-5.225c-0.032,0.003-0.063,0.007-0.091,0.01
				c-0.514-1.559-8.493-19.161-8.66-21.109c-3.118-7.123-42.012-71.737,6.384-7.343c0.269,0.359,0.325-31.739,1.394-29.925
				c27.448,46.599,7.244,50.838,6.916,56.259"/>
		</g>
	</g>
	<g>
		<path fill="#00ACD4" d="M98.14,78.025l-6.075,17.646h-4.628L81.36,78.025h4.615l3.845,11.971l3.847-11.971H98.14z"/>
		<path fill="#00ACD4" d="M105.387,95.671h-4.148v-18.46h4.148V95.671z"/>
		<path fill="#00ACD4" d="M114.552,77.239h-4.391v3.226h4.391V77.239z M114.416,82.361h-4.147v13.311h4.147V82.361z"/>
		<path fill="#00ACD4" d="M131.768,95.671h-4.148v-6.631c0-0.539-0.022-1.077-0.065-1.613c-0.044-0.535-0.125-0.93-0.245-1.185
			c-0.143-0.3-0.35-0.517-0.62-0.647s-0.631-0.196-1.085-0.196c-0.342,0-0.688,0.062-1.038,0.19
			c-0.349,0.125-0.724,0.328-1.122,0.606v9.476h-4.147V82.361h4.147v1.436c0.68-0.577,1.342-1.03,1.986-1.354
			c0.644-0.324,1.356-0.487,2.14-0.487c1.359,0,2.398,0.431,3.118,1.289c0.719,0.86,1.079,2.105,1.079,3.738V95.671z"/>
		<path fill="#00ACD4" d="M148.635,95.671h-4.146v-1.388c-0.271,0.223-0.576,0.459-0.92,0.712c-0.346,0.254-0.648,0.443-0.909,0.568
			c-0.332,0.162-0.661,0.282-0.985,0.364c-0.324,0.082-0.713,0.122-1.164,0.122c-1.521,0-2.724-0.63-3.61-1.89
			c-0.888-1.262-1.33-2.946-1.33-5.057c0-1.165,0.15-2.177,0.451-3.033c0.301-0.856,0.717-1.601,1.247-2.237
			c0.483-0.577,1.069-1.036,1.758-1.372c0.688-0.338,1.415-0.506,2.185-0.506c0.697,0,1.269,0.072,1.717,0.218
			c0.447,0.148,0.967,0.375,1.561,0.684v-5.646h4.146V95.671z M144.488,92.021v-6.614c-0.205-0.106-0.474-0.19-0.808-0.26
			c-0.331-0.067-0.615-0.102-0.853-0.102c-0.998,0-1.749,0.354-2.25,1.058c-0.502,0.703-0.753,1.688-0.753,2.953
			c0,1.328,0.2,2.289,0.599,2.882c0.4,0.591,1.047,0.887,1.94,0.887c0.365,0,0.731-0.072,1.104-0.215
			C143.841,92.463,144.181,92.269,144.488,92.021z"/>
		<path fill="#00ACD4" d="M160.342,96.024c-2.513,0-4.438-0.6-5.776-1.799c-1.34-1.202-2.009-2.909-2.009-5.13
			c0-2.17,0.625-3.902,1.874-5.196c1.248-1.296,2.995-1.943,5.24-1.943c2.039,0,3.572,0.55,4.601,1.648
			c1.026,1.099,1.541,2.672,1.541,4.718v1.494h-9.108c0.04,0.617,0.17,1.134,0.393,1.548c0.221,0.416,0.513,0.744,0.877,0.99
			c0.356,0.246,0.771,0.422,1.246,0.527c0.476,0.108,0.993,0.16,1.555,0.16c0.482,0,0.957-0.054,1.425-0.16
			c0.466-0.108,0.894-0.25,1.28-0.427c0.342-0.15,0.655-0.315,0.944-0.49c0.288-0.176,0.524-0.332,0.704-0.467h0.44v3.424
			c-0.34,0.136-0.649,0.261-0.931,0.373c-0.28,0.114-0.665,0.231-1.154,0.35c-0.451,0.119-0.916,0.213-1.393,0.279
			C161.612,95.99,161.029,96.024,160.342,96.024z M161.719,87.324c-0.023-0.885-0.228-1.56-0.611-2.02
			c-0.385-0.462-0.973-0.692-1.765-0.692c-0.809,0-1.439,0.242-1.896,0.729c-0.456,0.487-0.707,1.146-0.755,1.983H161.719z"/>
		<path fill="#00ACD4" d="M178.599,86.265h-0.344c-0.158-0.055-0.388-0.095-0.689-0.122c-0.3-0.027-0.633-0.04-0.998-0.04
			c-0.435,0-0.893,0.062-1.37,0.19c-0.479,0.126-0.946,0.276-1.396,0.451v8.927h-4.146V82.361h4.146v1.903
			c0.189-0.175,0.454-0.394,0.79-0.656c0.336-0.268,0.644-0.479,0.921-0.636c0.301-0.182,0.651-0.337,1.051-0.469
			c0.4-0.128,0.778-0.195,1.133-0.195c0.136,0,0.286,0.004,0.453,0.012s0.317,0.02,0.45,0.035V86.265z"/>
		<path fill="#2DA343" d="M185.493,95.97c-0.885,0-1.712-0.119-2.482-0.354c-0.769-0.237-1.406-0.488-1.911-0.758v-2.494h0.117
			c0.189,0.151,0.411,0.317,0.668,0.501c0.254,0.18,0.595,0.372,1.019,0.569c0.377,0.174,0.791,0.328,1.244,0.464
			c0.452,0.134,0.922,0.201,1.409,0.201c0.354,0,0.73-0.043,1.133-0.126c0.402-0.082,0.699-0.188,0.895-0.315
			c0.276-0.185,0.476-0.377,0.597-0.584c0.122-0.206,0.184-0.518,0.184-0.931c0-0.532-0.142-0.935-0.427-1.203
			c-0.282-0.271-0.787-0.498-1.509-0.682c-0.285-0.069-0.657-0.15-1.116-0.242c-0.459-0.093-0.882-0.193-1.27-0.302
			c-1.01-0.291-1.745-0.742-2.203-1.356c-0.457-0.613-0.688-1.354-0.688-2.224c0-1.194,0.451-2.166,1.352-2.917
			c0.899-0.75,2.096-1.127,3.588-1.127c0.736,0,1.475,0.09,2.216,0.273c0.744,0.179,1.366,0.409,1.873,0.685v2.377h-0.119
			c-0.565-0.453-1.198-0.81-1.893-1.07c-0.696-0.264-1.397-0.394-2.105-0.394c-0.731,0-1.349,0.154-1.852,0.464
			c-0.504,0.31-0.754,0.777-0.754,1.404c0,0.555,0.147,0.97,0.441,1.242c0.298,0.274,0.772,0.498,1.424,0.673
			c0.331,0.088,0.701,0.173,1.107,0.254c0.407,0.084,0.835,0.18,1.286,0.291c0.979,0.244,1.717,0.651,2.209,1.22
			c0.496,0.57,0.744,1.343,0.744,2.324c0,0.57-0.115,1.108-0.341,1.617c-0.226,0.512-0.554,0.946-0.987,1.312
			c-0.475,0.395-1.009,0.694-1.605,0.899C187.142,95.867,186.394,95.97,185.493,95.97z"/>
		<path fill="#2DA343" d="M198.459,95.942c-1.219,0-2.17-0.345-2.851-1.036c-0.68-0.692-1.021-1.785-1.021-3.28v-7.34h-1.519v-1.87
			h1.519v-3.794h2.222v3.794h4.121v1.87h-4.121v6.3c0,0.673,0.012,1.19,0.035,1.556c0.024,0.364,0.115,0.703,0.275,1.02
			c0.133,0.276,0.353,0.484,0.653,0.622c0.302,0.139,0.712,0.208,1.228,0.208c0.365,0,0.72-0.054,1.061-0.162
			c0.342-0.109,0.587-0.199,0.738-0.271h0.131v2.005c-0.421,0.118-0.847,0.212-1.277,0.279
			C199.223,95.909,198.824,95.942,198.459,95.942z"/>
		<path fill="#2DA343" d="M206.716,80.194h-2.548v-2.305h2.548V80.194z M206.526,95.671h-2.223V82.416h2.223V95.671z"/>
		<path fill="#2DA343" d="M216.767,95.97c-0.911,0-1.746-0.142-2.507-0.423c-0.761-0.279-1.414-0.704-1.96-1.273
			c-0.547-0.569-0.971-1.287-1.271-2.152c-0.301-0.867-0.452-1.883-0.452-3.055c0-1.16,0.157-2.167,0.47-3.012
			c0.313-0.845,0.73-1.557,1.254-2.136c0.521-0.577,1.174-1.021,1.955-1.332c0.779-0.313,1.616-0.469,2.512-0.469
			c0.729,0,1.432,0.102,2.109,0.307c0.677,0.206,1.281,0.442,1.812,0.712v2.504h-0.13c-0.16-0.133-0.362-0.286-0.613-0.458
			c-0.25-0.169-0.555-0.348-0.909-0.527c-0.312-0.155-0.675-0.293-1.097-0.41c-0.42-0.116-0.825-0.176-1.213-0.176
			c-1.159,0-2.089,0.435-2.79,1.307c-0.705,0.87-1.055,2.101-1.055,3.69c0,1.561,0.338,2.775,1.018,3.645
			c0.678,0.871,1.62,1.307,2.827,1.307c0.73,0,1.422-0.149,2.082-0.447c0.658-0.297,1.241-0.681,1.75-1.151h0.13v2.507
			c-0.222,0.103-0.497,0.227-0.831,0.374c-0.332,0.146-0.635,0.254-0.903,0.326c-0.379,0.11-0.72,0.195-1.021,0.254
			C217.63,95.941,217.242,95.97,216.767,95.97z"/>
		<path fill="#2DA343" d="M234.843,95.671h-2.224V88.11c0-0.609-0.029-1.179-0.088-1.705c-0.061-0.527-0.174-0.949-0.339-1.266
			c-0.183-0.334-0.436-0.582-0.762-0.744c-0.324-0.163-0.768-0.243-1.329-0.243c-0.555,0-1.127,0.148-1.716,0.444
			c-0.593,0.299-1.168,0.686-1.729,1.159v9.916h-2.223v-18.46h2.223v6.668c0.664-0.596,1.32-1.052,1.969-1.366
			c0.648-0.32,1.333-0.476,2.054-0.476c1.305,0,2.324,0.43,3.059,1.288c0.736,0.859,1.105,2.104,1.105,3.734V95.671z"/>
		<path fill="#2DA343" d="M243.685,95.942c-1.22,0-2.17-0.345-2.851-1.036c-0.682-0.692-1.022-1.785-1.022-3.28v-7.34h-1.518v-1.87
			h1.518v-3.794h2.224v3.794h4.12v1.87h-4.12v6.3c0,0.673,0.012,1.19,0.035,1.556c0.023,0.364,0.115,0.703,0.274,1.02
			c0.134,0.276,0.354,0.484,0.655,0.622c0.302,0.139,0.711,0.208,1.228,0.208c0.363,0,0.718-0.054,1.058-0.162
			c0.342-0.109,0.589-0.199,0.74-0.271h0.13v2.005c-0.421,0.118-0.847,0.212-1.277,0.279
			C244.446,95.909,244.049,95.942,243.685,95.942z"/>
		<path fill="#2DA343" d="M251.94,80.194h-2.548v-2.305h2.548V80.194z M251.75,95.671h-2.223V82.416h2.223V95.671z"/>
		<path fill="#2DA343" d="M267.159,95.671h-2.222V88.11c0-0.609-0.029-1.179-0.089-1.705c-0.06-0.527-0.174-0.949-0.339-1.266
			c-0.183-0.334-0.436-0.582-0.762-0.744c-0.324-0.163-0.766-0.243-1.329-0.243c-0.554,0-1.127,0.148-1.716,0.444
			c-0.592,0.299-1.167,0.686-1.729,1.159v9.916h-2.223V82.416h2.223v1.464c0.664-0.596,1.32-1.052,1.97-1.366
			c0.649-0.32,1.332-0.476,2.052-0.476c1.306,0,2.326,0.43,3.061,1.288c0.735,0.859,1.104,2.104,1.104,3.734V95.671z"/>
		<path fill="#2DA343" d="M272.438,97.786c0.148,0.063,0.371,0.148,0.664,0.253c0.293,0.106,0.626,0.206,0.995,0.302
			c0.413,0.101,0.792,0.183,1.142,0.246c0.346,0.063,0.726,0.094,1.138,0.094c0.688,0,1.271-0.09,1.751-0.271
			c0.478-0.181,0.852-0.434,1.121-0.755c0.253-0.324,0.431-0.696,0.533-1.12c0.103-0.427,0.155-0.909,0.155-1.453v-1.156
			c-0.603,0.521-1.192,0.908-1.77,1.156c-0.578,0.251-1.303,0.375-2.172,0.375c-1.514,0-2.716-0.563-3.609-1.688
			s-1.341-2.741-1.341-4.849c0-1.101,0.154-2.079,0.463-2.93c0.308-0.852,0.724-1.576,1.246-2.171
			c0.498-0.568,1.089-1.008,1.77-1.316c0.68-0.311,1.384-0.464,2.112-0.464c0.688,0,1.283,0.081,1.786,0.242
			c0.502,0.161,1.007,0.394,1.515,0.694l0.13-0.559h2.092v11.747c0,2.246-0.49,3.894-1.472,4.946
			c-0.979,1.051-2.476,1.578-4.492,1.578c-0.646,0-1.309-0.054-1.985-0.155c-0.676-0.104-1.306-0.242-1.89-0.417v-2.329H272.438z
			 M279.938,92.086v-7.299c-0.555-0.268-1.068-0.458-1.537-0.573c-0.472-0.113-0.94-0.172-1.405-0.172
			c-1.134,0-2.023,0.418-2.673,1.249c-0.649,0.834-0.972,2.028-0.972,3.581c0,1.477,0.246,2.6,0.74,3.367
			c0.495,0.771,1.296,1.154,2.403,1.154c0.578,0,1.174-0.115,1.787-0.344C278.896,92.819,279.445,92.499,279.938,92.086z"/>
	</g>
	<g>
		<path fill="#2DA343" d="M128.112,71.585c0,1.038-0.208,1.972-0.628,2.808c-0.419,0.833-0.982,1.484-1.688,1.952
			c-0.574,0.361-1.157,0.603-1.749,0.725c-0.591,0.123-1.346,0.183-2.266,0.183h-2.613V65.894h2.583c1.067,0,1.904,0.08,2.511,0.241
			c0.606,0.161,1.123,0.379,1.55,0.66c0.732,0.484,1.298,1.125,1.699,1.926C127.912,69.522,128.112,70.477,128.112,71.585z
			 M126.541,71.562c0-0.873-0.145-1.618-0.434-2.236c-0.289-0.617-0.717-1.098-1.285-1.443c-0.4-0.244-0.829-0.42-1.285-0.525
			c-0.457-0.109-1.024-0.161-1.704-0.161h-1.147v8.756h1.147c0.669,0,1.256-0.053,1.757-0.161c0.501-0.105,0.961-0.304,1.377-0.593
			c0.521-0.356,0.915-0.83,1.178-1.421C126.409,73.185,126.541,72.446,126.541,71.562z"/>
		<path fill="#2DA343" d="M134.422,77.442c-1.355,0-2.407-0.381-3.155-1.147c-0.748-0.765-1.123-1.85-1.123-3.256
			c0-1.388,0.363-2.491,1.089-3.311c0.726-0.822,1.674-1.232,2.847-1.232c0.528,0,0.994,0.076,1.401,0.229
			c0.405,0.152,0.761,0.39,1.066,0.715c0.304,0.326,0.538,0.722,0.701,1.191c0.162,0.469,0.243,1.045,0.243,1.725v0.776h-5.91
			c0,0.993,0.25,1.752,0.748,2.277c0.499,0.524,1.188,0.786,2.068,0.786c0.315,0,0.625-0.036,0.926-0.106
			c0.303-0.071,0.577-0.163,0.821-0.275c0.259-0.117,0.478-0.23,0.656-0.338c0.177-0.11,0.326-0.213,0.442-0.311h0.083v1.561
			c-0.167,0.066-0.375,0.149-0.624,0.248c-0.248,0.1-0.472,0.176-0.668,0.234c-0.279,0.075-0.532,0.134-0.758,0.175
			C135.052,77.421,134.767,77.442,134.422,77.442z M136.108,72.021c-0.01-0.385-0.056-0.717-0.138-0.997
			c-0.082-0.279-0.2-0.515-0.352-0.708c-0.168-0.212-0.384-0.375-0.648-0.486c-0.263-0.112-0.588-0.167-0.976-0.167
			c-0.383,0-0.709,0.057-0.978,0.171c-0.267,0.115-0.512,0.281-0.731,0.498c-0.214,0.224-0.377,0.471-0.49,0.742
			c-0.112,0.271-0.184,0.586-0.214,0.948H136.108z"/>
	</g>
</g>
</svg>
