<?xml version="1.0" standalone="no"?><!-- Generator: Gravit.io --><svg xmlns="http://www.w3.org/2000/svg" xmlns:xlink="http://www.w3.org/1999/xlink" style="isolation:isolate" viewBox="0 0 734 518" width="734px" height="518px"><defs><clipPath id="_clipPath_pV5XdzQhg1WERuYXJctXYcJYKwMso1Ob"><rect width="734" height="518"/></clipPath></defs><g clip-path="url(#_clipPath_pV5XdzQhg1WERuYXJctXYcJYKwMso1Ob)"><g><g><path d=" M 269.366 442.446 C 266.145 424.997 252.991 413.454 236.616 413.454 C 220.24 413.454 206.818 425.803 203.865 442.446 L 269.366 442.446 Z  M 288.425 481.907 C 285.204 488.081 280.372 494.792 274.735 499.893 C 264.534 509.02 251.918 513.584 237.69 513.584 C 210.845 513.584 182.658 496.671 182.658 455.332 C 182.658 422.044 203.06 396.274 236.616 396.274 C 258.358 396.274 272.05 407.011 278.761 416.676 C 285.741 426.609 289.767 443.789 289.231 458.552 L 202.523 458.552 C 202.792 481.639 218.63 496.403 237.958 496.403 C 247.085 496.403 254.334 493.719 260.775 488.351 C 265.876 484.055 269.903 478.418 272.319 473.049 L 288.425 481.907 Z " fill="rgb(255,255,255)"/></g><g><path d=" M 324.66 491.571 L 347.478 491.571 C 359.021 491.571 370.296 490.767 378.886 484.055 C 385.866 478.955 390.698 470.096 390.698 459.357 C 390.698 445.131 382.376 436.809 375.397 433.05 C 368.685 429.292 359.29 427.682 345.062 427.682 L 324.66 427.682 L 324.66 491.571 Z  M 324.66 409.965 L 339.692 409.965 C 350.163 409.965 374.859 407.817 374.859 380.167 C 374.859 350.638 345.867 350.101 340.23 350.101 L 324.66 350.101 L 324.66 409.965 Z  M 337.008 331.31 C 346.941 331.31 364.927 332.116 378.08 342.585 C 383.718 346.88 394.188 357.887 394.188 379.63 C 394.188 388.489 392.309 404.058 376.47 414.797 C 401.435 420.971 410.563 442.714 410.563 459.895 C 410.563 477.075 401.973 491.034 392.309 498.551 C 378.08 509.826 361.705 510.363 349.357 510.363 L 304.795 510.363 L 304.795 331.31 L 337.008 331.31 Z " fill="rgb(255,255,255)"/></g><g><path d=" M 418.097 510.363 L 447.895 321.377 L 516.617 472.512 L 586.681 321.109 L 614.599 510.363 L 594.197 510.363 L 577.285 385.805 L 516.347 517.88 L 456.217 385.805 L 438.499 510.363 L 418.097 510.363 Z " fill="rgb(255,255,255)"/></g><g><path d=" M 711.45 366.745 C 709.035 361.912 705.009 356.544 700.981 353.322 C 697.492 350.638 691.048 347.148 680.848 347.148 C 663.131 347.148 650.783 358.155 650.783 374.799 C 650.783 381.778 652.662 385.805 657.494 390.368 C 662.862 395.737 669.573 398.69 676.284 401.642 L 693.464 409.159 C 703.933 413.722 713.599 418.555 721.115 426.07 C 730.242 435.199 734 445.667 734 458.552 C 734 491.571 709.571 513.584 677.359 513.584 C 665.547 513.584 650.783 511.169 638.434 499.087 C 629.575 490.497 624.206 478.15 621.79 467.411 L 641.118 462.043 C 642.46 471.438 646.755 479.491 651.856 484.861 C 659.64 492.646 668.5 494.792 677.626 494.792 C 702.055 494.792 713.599 477.344 713.599 459.357 C 713.599 451.305 711.182 444.326 704.739 438.419 C 699.638 433.587 692.66 430.365 683.264 426.07 L 667.157 418.555 C 660.178 415.333 651.319 411.575 643.266 403.791 C 635.481 396.274 630.917 387.951 630.917 374.529 C 630.917 346.88 652.124 328.358 681.116 328.358 C 692.123 328.358 700.981 330.504 709.84 336.41 C 717.088 341.243 723.262 348.491 727.289 356.276 L 711.45 366.745 Z " fill="rgb(255,255,255)"/></g><g><path d=" M 163.89 254.938 C 163.9 254.353 163.884 253.772 163.835 253.195 C 164.287 253.553 164.73 253.912 165.186 254.271 C 165.186 254.271 164.728 254.505 163.89 254.938 Z " fill="rgb(167,169,172)"/></g><g/><g><path d=" M 135.208 229.21 C 135.25 229.221 135.268 229.227 135.304 229.236 C 135.251 229.222 135.208 229.21 135.208 229.21 Z " fill="rgb(167,169,172)"/></g><g><path d=" M 185.909 96.824 C 202.063 110.277 213.005 120.642 213.005 120.642 C 229.627 71.718 252.654 43.978 272.068 28.357 C 328.78 7.892 298.839 116.667 298.839 116.667 C 287.887 165.298 223.454 253.699 202.718 281.255 C 203.927 244.994 200.961 104.069 87.722 37.43 C 117.001 43.024 158.555 74.067 185.645 96.605 C 184.343 98.253 183.638 99.17 183.638 99.17 C 184.403 98.375 185.153 97.604 185.909 96.824 Z " fill="rgb(0,0,0)" fill-opacity="0.337255"/></g><g><path d=" M 122.867 279.574 C 122.882 279.575 122.896 279.574 122.911 279.574 C 122.928 279.575 122.945 279.577 122.962 279.578 C 127.068 279.739 131.043 279.492 134.799 278.894 C 134.802 278.894 134.805 278.894 134.807 278.893 C 135.364 278.805 135.897 278.682 136.442 278.578 C 152.013 275.638 163.44 266.66 163.877 255.57 C 163.879 255.528 163.871 255.487 163.872 255.445 C 163.874 255.403 163.885 255.362 163.887 255.319 C 163.892 255.191 163.887 255.065 163.89 254.938 C 164.728 254.505 165.186 254.271 165.186 254.271 C 164.73 253.912 164.287 253.553 163.835 253.195 C 162.904 242.352 151.638 233.008 136.214 229.438 C 71.115 168.567 60.42 119.394 60.42 119.394 C 49.328 74.549 52.319 51.278 63.273 41.801 C 111.397 67.874 193.497 147.251 193.624 301.182 C 163.167 319.416 138.733 323.311 138.733 323.311 C 48.471 333.868 83.386 303.242 120.976 279.438 C 121.431 279.47 121.879 279.514 122.338 279.536 C 122.516 279.545 122.688 279.567 122.867 279.574 Z " fill="rgb(0,0,0)" fill-opacity="0.337255"/></g><g><path d=" M 54.473 389.29 C 54.473 389.29 54.515 389.302 54.567 389.317 C 54.533 389.307 54.514 389.302 54.473 389.29 Z " fill="rgb(167,169,172)"/></g><g/><g><path d=" M 92.027 237.545 C 92.03 237.542 92.034 237.54 92.037 237.537 C 92.109 237.5 92.129 237.491 92.027 237.545 Z " fill="rgb(167,169,172)"/></g><g><path d=" M 183.638 99.17 C 183.638 99.17 184.343 98.253 185.645 96.605 C 185.733 96.678 185.822 96.751 185.909 96.824 C 185.153 97.604 184.403 98.375 183.638 99.17 Z " fill="rgb(167,169,172)"/></g><g><path d=" M 99.838 253.882 C 100.195 244.837 111.968 237.958 126.135 238.516 C 140.302 239.075 151.497 246.859 151.141 255.904 C 151.003 259.394 149.159 262.56 146.139 265.103 C 144.229 266.711 141.849 268.07 139.124 269.1 C 134.995 270.663 130.085 271.476 124.844 271.268 C 110.677 270.711 99.482 262.925 99.838 253.882 Z  M 136.299 229.429 M 80.008 244.954 C 80.008 244.954 -120.851 462.491 172.432 325.323 L 177.848 314.542 C 177.848 314.542 -60.241 437.801 77.169 268.022 L 84.835 259.322 C 88.238 268.3 98.902 275.644 112.691 278.48 C 112.767 278.496 112.843 278.512 112.921 278.527 C 113.831 278.711 114.749 278.879 115.685 279.021 C 116.094 279.087 116.51 279.137 116.923 279.192 C 117.635 279.287 118.343 279.385 119.068 279.455 C 119.627 279.51 120.198 279.538 120.765 279.576 C 121.219 279.607 121.668 279.651 122.125 279.674 C 122.305 279.683 122.477 279.705 122.656 279.712 C 122.67 279.713 122.685 279.712 122.7 279.712 C 122.717 279.713 122.734 279.715 122.751 279.716 C 126.857 279.878 130.832 279.63 134.588 279.031 C 134.591 279.031 134.594 279.031 134.596 279.03 C 135.153 278.942 135.685 278.819 136.231 278.716 C 151.802 275.776 163.229 266.797 163.666 255.708 C 163.668 255.666 163.66 255.625 163.661 255.583 C 163.663 255.54 163.674 255.5 163.676 255.457 C 163.681 255.329 163.676 255.203 163.678 255.075 C 163.689 254.492 163.673 253.909 163.623 253.332 C 162.692 242.49 151.427 233.146 136.003 229.576 C 135.668 229.499 135.335 229.42 134.997 229.348 C 132.859 228.751 124.916 228.057 124.788 228.052 C 111.349 227.523 99.317 231.369 91.826 237.676 C 91.898 237.639 91.918 237.63 91.816 237.684 C 91.819 237.681 91.823 237.679 91.826 237.676 C 91.703 237.739 91.423 237.884 91.327 237.936 L 89.358 234.74 C 89.358 234.74 -38.622 78.035 30.343 32.978 C 34.316 30.382 46.732 33.092 63.062 41.94 C 111.186 68.013 193.285 147.388 193.413 301.32 C 193.415 304.152 193.395 307.005 193.341 309.887 L 194.013 308.354 L 193.841 309.906 C 198.311 303.998 202.6 298.245 206.754 292.612 C 258.244 222.773 285.873 173.853 300.662 142.022 C 316.296 108.37 317.6 93.8 317.6 93.8 C 350.019 -106.357 204.342 72.822 185.434 96.743 C 185.521 96.816 185.61 96.889 185.698 96.961 C 226.107 55.258 253.516 35.114 271.856 28.496 C 328.569 8.03 298.628 116.805 298.628 116.805 C 287.676 165.435 223.243 253.838 202.506 281.393 C 203.716 245.132 200.749 104.207 87.511 37.568 C 71.416 28.097 53.094 20.125 32.238 14.168 C 32.238 14.168 30.613 12.725 24.938 16.232 C 1.709 30.582 -36.145 114.388 80.008 244.954 Z " fill="rgb(255,255,255)"/></g><g><path d=" M 91.867 442.655 C 91.743 427.93 94.794 414.698 100.677 402.097 C 108.351 385.658 120.239 372.99 135.563 363.433 C 151.105 353.739 166.417 343.718 179.764 331.043 C 183.004 327.966 185.91 324.537 189.787 320.396 C 183.436 342.97 171.859 361.188 156.921 377.609 C 171.391 371.525 186.671 367.015 197.54 354.507 C 202.926 348.308 205.817 340.996 208.368 333.392 C 211.119 325.197 213.619 316.856 217.17 309.006 C 222.467 297.292 231.72 289.309 244.089 283.776 C 227.771 304.942 220.74 329.31 214.066 353.834 C 213.057 357.545 211.947 361.232 210.785 364.899 C 206.207 379.362 197.417 390.738 183.848 397.342 C 171.916 403.15 159.295 407.58 146.86 412.306 C 127.377 419.712 108.398 427.963 91.867 442.655 Z " fill="rgb(255,255,255)"/></g><g><path d=" M 245.92 293.285 C 240.803 307.588 236.266 320.791 231.311 333.835 C 229.573 338.41 226.939 342.671 224.446 346.916 C 223.388 348.719 221.639 350.115 219.758 351.348 C 224.942 330.652 229.396 309.779 245.92 293.285 Z " fill="rgb(255,255,255)"/></g></g></g></svg>