<?xml version="1.0" standalone="no"?><!-- Generator: Gravit.io --><svg xmlns="http://www.w3.org/2000/svg" xmlns:xlink="http://www.w3.org/1999/xlink" style="isolation:isolate" viewBox="0 0 1024 1024" width="1024px" height="1024px"><defs><clipPath id="_clipPath_uZB36OnAJDMP0QppmE1UZbGdFkaPkRwf"><rect width="1024" height="1024"/></clipPath></defs><g clip-path="url(#_clipPath_uZB36OnAJDMP0QppmE1UZbGdFkaPkRwf)"><g><g><rect x="0" y="0" width="1023.001" height="1023.001" transform="matrix(1,0,0,1,0,0)" fill="rgb(116,90,143)"/></g><g><g><path d=" M 511.04 577.987 C 511.065 576.844 511.032 575.717 510.932 574.591 C 511.815 575.292 512.674 575.984 513.557 576.685 C 513.557 576.685 512.665 577.144 511.04 577.987 Z " fill="rgb(167,169,172)"/></g><g><path d=" M 455.439 527.92 C 455.523 527.937 455.556 527.945 455.623 527.97 C 455.523 527.937 455.439 527.92 455.439 527.92 Z " fill="rgb(167,169,172)"/></g><g><path d=" M 553.731 270.292 C 585.044 296.469 606.256 316.646 606.256 316.646 C 638.478 221.435 683.119 167.455 720.758 137.056 C 830.702 97.227 772.659 308.902 772.659 308.902 C 751.422 403.545 626.518 575.575 586.311 629.197 C 588.661 558.636 582.91 284.386 363.382 154.713 C 420.142 165.594 500.697 226.008 553.214 269.867 C 550.697 273.071 549.33 274.857 549.33 274.857 C 550.805 273.313 552.264 271.811 553.731 270.292 Z " fill="rgb(0,0,0)" fill-opacity="0.333"/></g><g><path d=" M 431.702 625.934 C 430.835 625.868 447.363 625.767 454.664 624.599 C 454.656 624.608 456.773 624.19 457.831 623.99 C 488.02 618.266 510.173 600.792 511.015 579.214 C 511.023 579.13 511.007 579.055 513.557 576.685 C 511.007 578.888 511.815 575.292 510.932 574.591 C 509.131 553.487 487.295 535.305 457.39 528.362 C 331.185 409.904 310.457 314.209 310.457 314.209 C 288.953 226.942 294.746 181.657 315.983 163.216 C 409.282 213.95 568.441 368.423 568.683 667.974 C 509.64 703.463 462.274 711.04 462.274 711.04 C 287.295 731.584 354.973 671.988 427.851 625.659 C 428.726 625.726 429.602 625.809 431.519 625.926 C 431.519 625.926 431.569 625.926 431.702 625.934 Z " fill="rgb(0,0,0)" fill-opacity="0.333"/></g><g><path d=" M 298.922 839.437 C 298.922 839.437 299.005 839.462 299.105 839.487 C 299.038 839.47 299.005 839.462 298.922 839.437 Z " fill="rgb(167,169,172)"/></g><g><path d=" M 549.33 274.857 C 549.33 274.857 550.697 273.071 553.214 269.867 C 553.389 270.008 553.556 270.15 553.731 270.292 C 552.264 271.811 550.805 273.313 549.33 274.857 Z " fill="rgb(167,169,172)"/></g><g><path d=" M 527.902 715.74 C -41.171 983.004 348.569 559.145 348.569 559.145 C 123.188 304.748 196.641 141.46 241.714 113.496 C 252.726 106.662 255.879 109.478 255.879 109.478 C 296.347 121.083 331.893 136.614 363.127 155.07 C 582.853 284.913 588.609 559.496 586.256 630.145 C 626.491 576.456 751.516 404.212 772.772 309.46 C 772.772 309.46 830.867 97.513 720.825 137.391 C 685.729 150.107 556.95 267.184 553.705 270.71 L 553.682 270.736 C 553.655 270.769 553.64 270.787 553.646 270.793 C 553.663 270.768 553.688 270.735 553.705 270.71 C 590.144 223.363 872.444 -125.135 809.577 264.636 C 809.577 264.636 807.05 293.017 776.717 358.586 C 748.02 420.613 694.413 515.925 594.498 652.001 C 586.44 662.979 578.114 674.191 568.471 685.663 C 568.579 680.048 568.621 674.492 568.612 668.97 C 568.362 369.047 409.067 214.39 315.684 163.584 C 284.001 146.348 259.908 141.067 252.2 146.122 C 118.382 233.915 366.705 539.244 366.705 539.244 L 370.535 545.476 C 370.718 545.368 371.486 544.975 371.502 544.967 C 386.034 532.677 409.376 525.182 435.454 526.218 C 435.704 526.227 451.12 527.58 455.267 528.742 C 455.926 528.884 456.568 529.034 457.219 529.184 C 487.142 536.144 509.007 554.349 510.809 575.47 C 510.892 576.406 510.917 578.495 510.884 579.857 C 510.834 579.827 487.827 619.209 457.661 624.931 C 456.601 625.132 454.491 625.541 454.491 625.541 C 447.2 626.711 431.508 626.87 431.508 626.878 C 431.44 626.878 431.213 626.86 431.213 626.86 L 431.316 626.87 C 431.213 626.86 430.616 626.821 429.92 626.774 C 428.714 626.693 427.235 626.595 427.654 626.61 C 427.003 626.569 421.214 625.976 420.171 625.85 C 416.275 625.29 412.696 624.614 412.413 624.555 C 385.217 618.941 364.536 604.629 357.938 587.142 L 343.063 604.094 C 76.438 934.897 538.413 694.736 538.413 694.736 L 527.902 715.74 Z  M 438.073 546.604 C 410.586 545.518 387.736 558.919 387.044 576.54 C 386.351 594.16 408.075 609.333 435.562 610.419 C 445.731 610.82 455.258 609.241 463.275 606.191 C 468.564 604.186 473.177 601.538 476.881 598.405 C 482.746 593.45 486.325 587.284 486.592 580.483 C 487.284 562.863 465.561 547.69 438.073 546.604 Z " fill="rgb(255,255,255)"/></g><g><path d=" M 371.417 943.284 C 371.175 914.629 377.093 888.878 388.495 864.362 C 403.372 832.369 426.418 807.719 456.131 789.119 C 486.253 770.252 515.941 750.751 541.812 726.085 C 548.096 720.102 553.731 713.426 561.248 705.366 C 548.938 749.299 526.493 784.747 497.53 816.706 C 525.584 804.865 555.206 796.087 576.276 771.746 C 586.719 759.688 592.32 745.453 597.271 730.658 C 602.597 714.711 607.448 698.481 614.332 683.203 C 624.601 660.405 642.537 644.868 666.516 634.104 C 634.886 675.292 621.25 722.714 608.315 770.436 C 606.356 777.662 604.206 784.83 601.955 791.973 C 593.079 820.119 576.043 842.257 549.73 855.107 C 526.601 866.406 502.139 875.026 478.026 884.221 C 440.253 898.641 403.464 914.695 371.417 943.284 Z " fill="rgb(255,255,255)"/></g><g><path d=" M 670.067 652.612 C 660.148 680.441 651.355 706.133 641.745 731.517 C 638.378 740.421 633.269 748.715 628.435 756.976 C 626.384 760.481 622.992 763.201 619.35 765.596 C 629.401 725.326 638.036 684.705 670.067 652.612 Z " fill="rgb(255,255,255)"/></g></g></g></g></svg>