<?xml version="1.0" encoding="UTF-8"?>
<svg width="1024px" height="1024px" viewBox="0 0 1024 1024" version="1.1" xmlns="http://www.w3.org/2000/svg" xmlns:xlink="http://www.w3.org/1999/xlink">
    <!-- Generator: Sketch 53.2 (72643) - https://sketchapp.com -->
    <title>icon</title>
    <desc>Created with Sketch.</desc>
    <g id="Page-1" stroke="none" stroke-width="1" fill="none" fill-rule="evenodd">
        <g id="icon" fill-rule="nonzero">
            <g id="rect-1-link" fill="#A56A03">
                <rect id="rect-1" x="0.512380529" y="0.204706581" width="1023.00098" height="1023.00098"></rect>
            </g>
            <g id="Group" transform="translate(192.811707, 81.920000)">
                <g id="path-2-link" transform="translate(317.689756, 492.519024)" fill="#A7A9AC">
                    <path d="M0.538683263,3.54786394 C0.563687422,2.40466849 0.530348543,1.27816202 0.430331908,0.151655549 C1.31381219,0.852592908 2.17228831,1.54518578 3.05576859,2.24612313 C3.05576859,2.24612313 2.16395359,2.70507021 0.538683263,3.54786394 Z" id="path-2"></path>
                </g>
                <g id="path-3-link" transform="translate(262.743415, 445.564878)" fill="#A7A9AC">
                    <path d="" id="path-3"></path>
                </g>
                <g id="path-4-link" transform="translate(261.744390, 444.565854)" fill="#A7A9AC">
                    <path d="M0.883134434,1.43408044 C0.966481631,1.45076942 0.999820509,1.45911391 1.06649827,1.48414739 C0.966481631,1.45076942 0.883134434,1.43408044 0.883134434,1.43408044 Z" id="path-4"></path>
                </g>
                <g id="path-5-link" transform="translate(169.834146, 49.951220)" fill="#000000" fill-opacity="0.333">
                    <path d="M191.084727,138.420857 C222.398269,164.59753 243.61013,184.774512 243.61013,184.774512 C275.832156,89.5638542 320.472915,35.583333 358.112508,5.18434731 C468.055795,-34.6439148 410.012808,177.030823 410.012808,177.030823 C388.775942,271.674056 263.871834,443.704111 223.665146,497.325819 C226.015537,426.764791 220.26458,152.514705 0.736399973,22.8412932 C57.4958407,33.7225112 138.050906,94.136636 190.567974,137.995288 C188.050889,141.199573 186.683995,142.985294 186.683995,142.985294 C188.15924,141.441563 189.617816,139.939555 191.084727,138.420857 Z" id="path-5"></path>
                </g>
                <g id="path-6-link" transform="translate(103.898537, 80.920976)" fill="#000000" fill-opacity="0.333">
                    <path d="M134.991707,463.093366 C134.124896,463.02661 150.652645,462.926476 157.953859,461.758247 C157.945524,461.766592 160.062543,461.349367 161.121053,461.149099 C191.309407,455.424777 213.463092,437.95141 214.304899,416.372553 C214.313233,416.289108 214.296564,416.214008 216.846988,413.844172 C214.296564,416.047118 215.105032,412.450642 214.221551,411.749704 C212.421252,390.646483 190.584287,372.463834 160.679312,365.521217 C34.4749878,247.062803 13.74654,151.368164 13.74654,151.368164 C-7.75703661,64.1014631 -1.96440646,18.815903 19.2724592,0.374574806 C112.571311,51.1090884 271.731117,205.582331 271.972824,505.132918 C212.92967,540.622045 165.563458,548.198844 165.563458,548.198844 C-9.41564581,568.742984 58.2622776,509.146619 131.141066,462.817998 C132.016212,462.884754 132.891357,462.968199 134.808343,463.085021 C134.808343,463.085021 134.858351,463.085021 134.991707,463.093366 Z" id="path-6"></path>
                </g>
                <g id="path-7-link" transform="translate(104.897561, 756.261463)" fill="#A7A9AC">
                    <path d="M1.21226369,1.25505997 C1.21226369,1.25505997 1.29561088,1.28009345 1.39562752,1.30512692 C1.32894976,1.28843794 1.29561088,1.28009345 1.21226369,1.25505997 Z" id="path-7"></path>
                </g>
                <g id="path-8-link" transform="translate(105.896585, 756.261463)" fill="#A7A9AC">
                    <path d="" id="path-8"></path>
                </g>
                <g id="path-9-link" transform="translate(177.826341, 461.549268)" fill="#A7A9AC">
                    <path d="" id="path-9"></path>
                </g>
                <g id="path-10-link" transform="translate(355.652683, 187.816585)" fill="#A7A9AC">
                    <path d="M0.865458435,5.11992852 C0.865458435,5.11992852 2.23235245,3.33420715 4.74943778,0.129922076 C4.9244669,0.271778447 5.09116129,0.413634817 5.2661904,0.555491187 C3.79927975,2.0741888 2.34070381,3.57619743 0.865458435,5.11992852 Z" id="path-10"></path>
                </g>
                <g id="path-11-link" fill="#FFFFFF">
                    <path d="M335.090572,633.820195 C-233.982663,901.084112 155.757689,477.224939 155.757689,477.224939 C-69.6241845,222.82759 3.829171,59.5399998 48.9022106,31.5762562 C59.9138811,24.7420314 63.067292,27.5575413 63.067292,27.5575413 C103.535407,39.1625159 139.08164,54.6942249 170.314957,73.1500611 C390.040854,202.993065 395.796882,477.575842 393.444394,548.224615 C433.678928,494.536213 558.703847,322.292281 579.95987,227.539696 C579.95987,227.539696 638.055034,15.5934409 528.012922,55.4711832 C492.917176,68.1873186 364.138154,185.264085 360.892966,188.789879 L360.870562,188.816396 C360.842813,188.84916 360.827919,188.866752 360.834666,188.873445 C360.851341,188.848395 360.87629,188.81493 360.892966,188.789879 C397.331899,141.442845 679.632756,-207.055449 616.765788,182.715848 C616.765788,182.715848 614.238145,211.097297 583.905675,276.66636 C555.208402,338.692865 501.601308,434.005173 401.686567,570.080927 C393.62795,581.059248 385.3024,592.271441 375.658867,603.742683 C375.76732,598.128237 375.808944,592.572242 375.80067,587.049648 C375.550414,287.126645 216.255621,132.469674 122.872754,81.6637117 C91.1889501,64.4276535 67.0966008,59.1473455 59.388355,64.2020048 C-74.429276,151.994983 173.893779,457.323612 173.893779,457.323612 L177.722857,463.556362 C177.906285,463.447745 178.673857,463.05509 178.690533,463.04674 C193.222598,450.756724 216.564177,443.262381 242.642031,444.298389 C242.892288,444.306739 258.308652,445.660249 262.454815,446.821575 C263.113807,446.963594 263.756251,447.113963 264.406842,447.264395 C294.330449,454.224002 316.195311,472.429266 317.99726,493.55037 C318.080764,494.486112 318.105713,496.574829 318.072363,497.936625 C318.021955,497.907176 295.015026,537.289065 264.849055,543.011173 C263.789601,543.211707 261.678969,543.621062 261.678969,543.621062 C254.387796,544.790738 238.696099,544.949521 238.696099,544.957871 C238.628379,544.957871 238.401544,544.939641 238.401544,544.940214 L238.504269,544.949521 C238.40129,544.940406 237.803907,544.900503 237.108255,544.854035 C235.902161,544.7734 234.423025,544.674599 234.842071,544.690471 C234.191353,544.64872 228.401847,544.055531 227.359069,543.930213 C223.463163,543.370426 219.884468,542.693671 219.600861,542.635219 C192.405127,537.020708 171.724719,522.708841 165.126016,505.222084 L150.25179,522.174105 C-116.373981,852.976756 345.60173,612.816058 345.60173,612.816058 L335.090572,633.820195 M245.261451,464.684287 C217.773836,463.598177 194.924495,476.999354 194.232025,494.61978 C193.539683,512.240206 215.262869,527.412661 242.750484,528.498771 C252.919607,528.89984 262.446414,527.320745 270.463279,524.271236 C275.752272,522.266085 280.365598,519.617581 284.069548,516.484506 C289.934156,511.53005 293.512851,505.364166 293.77991,498.563278 C294.472252,480.942853 272.749066,465.77046 245.261451,464.684287" id="path-11"></path>
                </g>
                <g id="path-12-link" transform="translate(177.826341, 551.461463)" fill="#FFFFFF">
                    <path d="M0.778874579,309.902268 C0.537167709,281.247281 6.45481865,255.496177 17.8567151,230.980059 C32.7341897,198.987275 55.7796894,174.337644 85.4929649,155.737771 C115.614642,136.870874 145.302913,117.369795 171.173883,92.7034756 C177.458261,86.7204745 183.092532,80.0448806 190.610449,71.984101 C178.300068,115.917853 155.854668,151.365257 126.891517,183.324663 C154.946184,171.483828 184.567777,162.705422 205.637948,138.364538 C216.081352,126.306746 221.682284,112.071042 226.633107,97.2762574 C231.958993,81.3299325 236.8098,65.0998948 243.694278,49.8211293 C253.962653,27.0239761 271.89897,11.4865313 295.877958,0.722136132 C264.247697,41.9105505 250.612096,89.3323006 237.676611,137.054453 C235.717952,144.280783 233.567594,151.448702 231.31722,158.591587 C222.440743,186.73756 205.404576,208.875498 179.091866,221.726017 C155.963019,233.024459 131.500617,241.64432 107.388273,250.839951 C69.615324,265.259233 32.8258716,281.314037 0.778874579,309.902268 Z" id="path-12"></path>
                </g>
                <g id="path-13-link" transform="translate(425.584390, 570.442927)" fill="#FFFFFF">
                    <path d="M51.6704997,0.248756802 C41.7521834,28.0776389 32.9590542,53.7703309 23.3491224,79.1542767 C19.9818957,88.05785 14.8727126,96.3522755 10.0385752,104.613323 C7.98823414,108.11801 4.59600325,110.838314 0.953730768,113.233184 C11.0054026,72.9626633 19.6401722,32.3416745 51.6704997,0.248756802 Z" id="path-13"></path>
                </g>
            </g>
        </g>
    </g>
</svg>