<?xml version="1.0" encoding="UTF-8" standalone="no"?>
<!DOCTYPE svg PUBLIC "-//W3C//DTD SVG 1.1//EN" "http://www.w3.org/Graphics/SVG/1.1/DTD/svg11.dtd">
<svg width="100%" height="100%" viewBox="0 0 1024 1024" version="1.1" xmlns="http://www.w3.org/2000/svg" xmlns:xlink="http://www.w3.org/1999/xlink" xml:space="preserve" style="fill-rule:evenodd;clip-rule:evenodd;stroke-linejoin:round;stroke-miterlimit:1.41421;">
    <g>
        <rect x="0" y="0" width="1023" height="1023" style="fill:rgb(116,90,143);"/>
        <g transform="matrix(0.586889,0,0,0.586889,214.536,210.6)">
            <path d="M511.04,577.987C511.065,576.844 511.032,575.717 510.932,574.591C511.815,575.292 512.674,575.984 513.557,576.685C513.557,576.685 512.665,577.144 511.04,577.987Z" style="fill:rgb(167,169,172);fill-rule:nonzero;"/>
            <path d="M455.439,527.92C455.523,527.937 455.556,527.945 455.623,527.97C455.523,527.937 455.439,527.92 455.439,527.92Z" style="fill:rgb(167,169,172);fill-rule:nonzero;"/>
            <path d="M553.731,270.292C585.044,296.469 606.256,316.646 606.256,316.646C638.478,221.435 683.119,167.455 720.758,137.056C830.702,97.227 772.659,308.902 772.659,308.902C751.422,403.545 626.518,575.575 586.311,629.197C588.661,558.636 582.91,284.386 363.382,154.713C420.142,165.594 500.697,226.008 553.214,269.867C550.697,273.071 549.33,274.857 549.33,274.857C550.805,273.313 552.264,271.811 553.731,270.292Z" style="fill-opacity:0.329412;fill-rule:nonzero;"/>
            <path d="M431.702,625.934C430.835,625.868 447.363,625.767 454.664,624.599C454.656,624.608 456.773,624.19 457.831,623.99C488.02,618.266 510.173,600.792 511.015,579.214C511.023,579.13 511.007,579.055 513.557,576.685C511.007,578.888 511.815,575.292 510.932,574.591C509.131,553.487 487.295,535.305 457.39,528.362C331.185,409.904 310.457,314.209 310.457,314.209C288.953,226.942 294.746,181.657 315.983,163.216C409.282,213.95 568.441,368.423 568.683,667.974C509.64,703.463 462.274,711.04 462.274,711.04C287.295,731.584 354.973,671.988 427.851,625.659C428.726,625.726 429.602,625.809 431.519,625.926C431.519,625.926 431.569,625.926 431.702,625.934Z" style="fill-opacity:0.329412;fill-rule:nonzero;"/>
            <path d="M298.922,839.437C298.922,839.437 299.005,839.462 299.105,839.487C299.038,839.47 299.005,839.462 298.922,839.437Z" style="fill:rgb(167,169,172);fill-rule:nonzero;"/>
            <path d="M549.33,274.857C549.33,274.857 550.697,273.071 553.214,269.867C553.389,270.008 553.556,270.15 553.731,270.292C552.264,271.811 550.805,273.313 549.33,274.857Z" style="fill:rgb(167,169,172);fill-rule:nonzero;"/>
            <path d="M527.902,715.74C-41.171,983.004 348.569,559.145 348.569,559.145C123.188,304.748 196.641,141.46 241.714,113.496C252.726,106.662 255.879,109.478 255.879,109.478C296.347,121.083 331.893,136.614 363.127,155.07C582.853,284.913 588.609,559.496 586.256,630.145C626.491,576.456 751.516,404.212 772.772,309.46C772.772,309.46 830.867,97.513 720.825,137.391C685.729,150.107 556.95,267.184 553.705,270.71L553.682,270.736C553.655,270.769 553.64,270.787 553.646,270.793C553.663,270.768 553.688,270.735 553.705,270.71C590.144,223.363 872.444,-125.135 809.577,264.636C809.577,264.636 807.05,293.017 776.717,358.586C748.02,420.613 694.413,515.925 594.498,652.001C586.44,662.979 578.114,674.191 568.471,685.663C568.579,680.048 568.621,674.492 568.612,668.97C568.362,369.047 409.067,214.39 315.684,163.584C284.001,146.348 259.908,141.067 252.2,146.122C118.382,233.915 366.705,539.244 366.705,539.244L370.535,545.476C370.718,545.368 371.486,544.975 371.502,544.967C386.034,532.677 409.376,525.182 435.454,526.218C435.704,526.227 451.12,527.58 455.267,528.742C455.926,528.884 456.568,529.034 457.219,529.184C487.142,536.144 509.007,554.349 510.809,575.47C510.892,576.406 510.917,578.495 510.884,579.857C510.834,579.827 487.827,619.209 457.661,624.931C456.601,625.132 454.491,625.541 454.491,625.541C447.2,626.711 431.508,626.87 431.508,626.878C431.44,626.878 431.213,626.86 431.213,626.86L431.316,626.87C431.213,626.86 430.616,626.821 429.92,626.774C428.714,626.693 427.235,626.595 427.654,626.61C427.003,626.569 421.214,625.976 420.171,625.85C416.275,625.29 412.696,624.614 412.413,624.555C385.217,618.941 364.536,604.629 357.938,587.142L343.063,604.094C76.438,934.897 538.413,694.736 538.413,694.736L527.902,715.74ZM438.073,546.604C410.586,545.518 387.736,558.919 387.044,576.54C386.351,594.16 408.075,609.333 435.562,610.419C445.731,610.82 455.258,609.241 463.275,606.191C468.564,604.186 473.177,601.538 476.881,598.405C482.746,593.45 486.325,587.284 486.592,580.483C487.284,562.863 465.561,547.69 438.073,546.604Z" style="fill:white;fill-rule:nonzero;"/>
            <path d="M371.417,943.284C371.175,914.629 377.093,888.878 388.495,864.362C403.372,832.369 426.418,807.719 456.131,789.119C486.253,770.252 515.941,750.751 541.812,726.085C548.096,720.102 553.731,713.426 561.248,705.366C548.938,749.299 526.493,784.747 497.53,816.706C525.584,804.865 555.206,796.087 576.276,771.746C586.719,759.688 592.32,745.453 597.271,730.658C602.597,714.711 607.448,698.481 614.332,683.203C624.601,660.405 642.537,644.868 666.516,634.104C634.886,675.292 621.25,722.714 608.315,770.436C606.356,777.662 604.206,784.83 601.955,791.973C593.079,820.119 576.043,842.257 549.73,855.107C526.601,866.406 502.139,875.026 478.026,884.221C440.253,898.641 403.464,914.695 371.417,943.284Z" style="fill:white;fill-rule:nonzero;"/>
            <path d="M670.067,652.612C660.148,680.441 651.355,706.133 641.745,731.517C638.378,740.421 633.269,748.715 628.435,756.976C626.384,760.481 622.992,763.201 619.35,765.596C629.401,725.326 638.036,684.705 670.067,652.612Z" style="fill:white;fill-rule:nonzero;"/>
        </g>
    </g>
</svg>
