<?xml version="1.0" encoding="UTF-8" standalone="no"?><!DOCTYPE svg PUBLIC "-//W3C//DTD SVG 1.1//EN" "http://www.w3.org/Graphics/SVG/1.1/DTD/svg11.dtd"><svg width="100%" height="100%" viewBox="0 0 5455 2463" version="1.1" xmlns="http://www.w3.org/2000/svg" xmlns:xlink="http://www.w3.org/1999/xlink" xml:space="preserve" xmlns:serif="http://www.serif.com/" style="fill-rule:evenodd;clip-rule:evenodd;stroke-linejoin:round;stroke-miterlimit:2;"><g id="path4088"><path d="M1065.84,1360.99c0.04,-2.266 -0.025,-4.533 -0.21,-6.763c1.741,1.377 3.442,2.796 5.199,4.173" style="fill:#a7a9ac;"/></g><g id="path4092"><path d="M955.478,1261.49c0.162,0.04 0.23,0.04 0.368,0.081" style="fill:#a7a9ac;"/></g><g id="path4096"><path d="M1150.56,749.626c62.156,52.035 104.256,92.082 104.256,92.082c63.958,-189.142 152.561,-296.407 227.266,-356.785c218.216,-79.121 102.987,341.436 102.987,341.436c-42.14,188.011 -290.048,529.807 -369.832,636.345c4.651,-140.185 -6.763,-685.059 -442.464,-942.712c112.66,21.624 272.542,141.645 376.777,228.786c-5.014,6.395 -7.725,9.918 -7.725,9.918" style="fill-opacity:0.33;"/></g><g id="path4100"><path d="M907.997,1456.23c-1.354,-0.125 0.109,-0 0.363,-0c-0.129,-0 31.094,-0.327 45.579,-2.634c-0.02,-0 4.19,-0.808 6.291,-1.217c59.905,-11.377 103.875,-46.079 105.556,-88.963c0.008,-0.161 -0.024,-0.323 0.036,-0.969c-0.048,0.323 0,-0.974 5.002,-4.049c-1.765,0.889 -3.458,-2.796 -5.199,-4.173c-3.584,-41.91 -46.928,-78.026 -106.276,-91.836c-250.478,-235.383 -291.628,-425.499 -291.628,-425.499c-42.678,-173.389 -31.171,-263.366 10.977,-300.011c185.163,100.825 501.057,407.721 501.545,1002.88c-117.188,70.499 -211.202,85.561 -211.202,85.561c-347.295,40.819 -212.955,-77.582 -68.321,-169.623" style="fill-opacity:0.33;"/></g><g id="path4104"><path d="M644.837,1880.43c-0,-0 0.161,0.04 0.363,0.121" style="fill:#a7a9ac;"/></g><g id="path4108"><path d="M1141.82,758.696c0,0 2.711,-3.523 7.725,-9.918c0.336,0.282 0.675,0.565 1.01,0.848" style="fill:#a7a9ac;"/></g><g id="path4112"><path d="M1098.7,1633.1c-1128.45,530.372 -355.614,-310.743 -355.614,-310.743c-446.916,-504.826 -301.264,-828.849 -211.893,-884.322c21.842,-13.567 28.093,-7.98 28.093,-7.98c80.244,23.042 150.739,53.857 212.668,90.462c435.701,257.658 447.115,802.527 442.464,942.753c79.784,-106.575 327.696,-448.375 369.836,-636.386c0,0 115.189,-420.557 -102.987,-341.432c-69.614,25.227 -324.964,257.572 -331.4,264.538c72.248,-93.941 632.038,-785.521 507.395,-12.065c0,0 -5.01,56.366 -65.17,186.468c-56.927,123.059 -163.227,312.201 -361.331,582.246c-15.983,21.785 -32.484,44.014 -49.687,66.854l-1.923,-0.081c0.206,-11.135 0.282,-22.149 0.274,-33.122c-0.489,-595.167 -316.378,-902.059 -501.541,-1002.85c-62.83,-34.213 -110.607,-44.702 -125.891,-34.661c-265.354,174.201 227.068,780.094 227.068,780.094l7.576,12.351c0.371,-0.202 1.895,-0.973 1.919,-1.014c28.823,-24.375 75.117,-39.235 126.824,-37.211c0.497,0.041 31.058,2.711 39.284,5.022c1.301,0.283 2.586,0.566 3.871,0.889c59.347,13.81 102.692,49.93 106.275,91.84c0.158,1.863 0.202,5.992 0.206,6.759c-0.016,1.621 -0.036,2.271 -0.064,1.944c-1.661,43.368 -45.627,78.07 -105.541,89.452c-2.092,0.404 -6.29,1.212 -6.29,1.212c-14.452,2.311 -45.575,2.634 -45.575,2.634c-0.173,0 -0.929,-0.04 -0.929,-0.04c-0,-0 0.149,-0 0.566,0.04c-3.014,-0.202 -8.574,-0.57 -8.57,-0.61c0,-0 0.38,0.04 1.293,0.085c-6.553,-0.529 -12.771,-1.257 -14.783,-1.499l-0.045,-0c-7.733,-1.095 -14.82,-2.473 -15.357,-2.554l-0.032,0c-53.922,-11.175 -94.939,-39.558 -108.029,-74.264l-29.495,33.651c-528.708,656.43 387.375,179.87 387.375,179.87l-20.84,41.668Zm-279.313,-276.203c1.37,-34.984 46.674,-61.59 101.181,-59.444c54.508,2.185 97.581,32.273 96.211,67.258c-0.533,13.487 -7.624,25.713 -19.243,35.555c-7.354,6.234 -16.509,11.458 -26.994,15.466c-15.886,6.036 -34.778,9.192 -54.943,8.384c-54.508,-2.146 -97.586,-32.274 -96.212,-67.219Z" style="fill:#787878;"/></g><g id="path4116"><path d="M788.715,2086.74c-0.476,-56.891 11.265,-108.074 33.902,-156.787c29.527,-63.574 75.267,-112.531 134.227,-149.499c59.8,-37.498 118.716,-76.208 170.068,-125.245c12.468,-11.866 23.647,-25.147 38.568,-41.142c-24.439,87.262 -68.98,157.72 -126.461,221.214c55.675,-23.527 114.47,-40.981 156.291,-89.327c20.722,-23.971 31.849,-52.237 41.663,-81.634c10.582,-31.708 20.206,-63.938 33.866,-94.309c20.379,-45.271 55.982,-76.167 103.577,-97.548c-62.786,81.836 -89.84,176.063 -115.52,270.857c-3.883,14.375 -8.154,28.629 -12.622,42.802c-17.62,55.922 -51.437,99.896 -103.646,125.447c-45.909,22.432 -94.47,39.563 -142.319,57.865" style="fill:#787878;"/></g><g id="path4120"><path d="M1381.46,1509.23c-19.688,55.312 -37.143,106.333 -56.209,156.788c-6.686,17.696 -16.823,34.177 -26.415,50.576c-4.069,6.962 -10.8,12.347 -18.04,17.127" style="fill:#fff;"/></g><g><g id="text4850"></g><g transform="matrix(755.44,0,0,755.44,4200.67,1212.13)"></g><g transform="matrix(755.44,0,0,755.44,4511.15,1212.13)"></g><g transform="matrix(755.44,0,0,755.44,5144.21,1212.13)"></g><text x="1932.84px" y="1212.13px" style="font-family:'Quicksand-SemiBold', 'Quicksand';font-weight:600;font-size:755.44px;fill:#787878;">Butt<tspan x="3445.23px " y="1212.13px ">e</tspan>rﬂy</text><g transform="matrix(755.44,0,0,755.44,3988.27,1996.08)"></g><text x="1916.1px" y="1996.08px" style="font-family:'Quicksand-Regular', 'Quicksand';font-size:755.44px;fill:#787878;">Count</text></g></svg>