<?xml version="1.0" encoding="UTF-8" standalone="no"?>
<!DOCTYPE svg PUBLIC "-//W3C//DTD SVG 1.1//EN" "http://www.w3.org/Graphics/SVG/1.1/DTD/svg11.dtd">
<svg width="100%" height="100%" viewBox="0 0 1309 591" version="1.1" xmlns="http://www.w3.org/2000/svg" xmlns:xlink="http://www.w3.org/1999/xlink" xml:space="preserve" style="fill-rule:evenodd;clip-rule:evenodd;stroke-linejoin:round;stroke-miterlimit:1.41421;">
    <g id="path4088" transform="matrix(0.969669,0,0,0.969669,-637.068,-390.611)">
        <path d="M920.797,739.683C920.807,739.122 920.791,738.561 920.745,738.009C921.176,738.35 921.597,738.701 922.032,739.042" style="fill:rgb(167,169,172);"/>
    </g>
    <g id="path4092" transform="matrix(0.969669,0,0,0.969669,-637.068,-390.611)">
        <path d="M893.483,715.058C893.523,715.068 893.54,715.068 893.574,715.078" style="fill:rgb(167,169,172);"/>
    </g>
    <g id="path4096" transform="matrix(0.969669,0,0,0.969669,-637.068,-390.611)">
        <path d="M941.766,588.367C957.15,601.246 967.57,611.158 967.57,611.158C983.4,564.344 1005.33,537.795 1023.82,522.851C1077.83,503.268 1049.31,607.359 1049.31,607.359C1038.88,653.893 977.521,738.49 957.774,764.859C958.925,730.162 956.1,595.302 848.261,531.531C876.145,536.883 915.717,566.589 941.516,588.157C940.275,589.74 939.604,590.612 939.604,590.612" style="fill-opacity:0.329412;"/>
    </g>
    <g id="path4100" transform="matrix(0.969669,0,0,0.969669,-637.068,-390.611)">
        <path d="M881.731,763.256C881.396,763.225 881.758,763.256 881.821,763.256C881.789,763.256 889.517,763.175 893.102,762.604C893.097,762.604 894.139,762.404 894.659,762.303C909.486,759.487 920.369,750.898 920.785,740.284C920.787,740.244 920.779,740.204 920.794,740.044C920.782,740.124 920.794,739.803 922.032,739.042C921.595,739.262 921.176,738.35 920.745,738.009C919.858,727.636 909.13,718.697 894.441,715.279C832.446,657.02 822.261,609.965 822.261,609.965C811.698,567.05 814.546,544.78 824.978,535.71C870.807,560.665 948.993,636.624 949.114,783.931C920.109,801.38 896.84,805.108 896.84,805.108C810.882,815.211 844.132,785.906 879.93,763.125" style="fill-opacity:0.329412;"/>
    </g>
    <g id="path4104" transform="matrix(0.969669,0,0,0.969669,-637.068,-390.611)">
        <path d="M816.597,868.249C816.597,868.249 816.637,868.259 816.687,868.279" style="fill:rgb(167,169,172);"/>
    </g>
    <g id="path4108" transform="matrix(0.969669,0,0,0.969669,-637.068,-390.611)">
        <path d="M939.604,590.612C939.604,590.612 940.275,589.74 941.516,588.157C941.599,588.227 941.683,588.297 941.766,588.367" style="fill:rgb(167,169,172);"/>
    </g>
    <g id="path4112" transform="matrix(0.969669,0,0,0.969669,-637.068,-390.611)">
        <path d="M928.932,807.033C649.633,938.304 840.915,730.122 840.915,730.122C730.3,605.174 766.35,524.976 788.47,511.246C793.876,507.888 795.423,509.271 795.423,509.271C815.284,514.974 832.732,522.601 848.06,531.661C955.899,595.433 958.724,730.292 957.573,764.999C977.32,738.621 1038.68,654.023 1049.11,607.489C1049.11,607.489 1077.62,503.398 1023.62,522.982C1006.39,529.226 943.189,586.733 941.596,588.457C959.478,565.206 1098.03,394.035 1067.18,585.471C1067.18,585.471 1065.94,599.422 1051.05,631.623C1036.96,662.081 1010.65,708.895 961.618,775.733C957.662,781.125 953.578,786.627 949.32,792.28L948.844,792.26C948.895,789.504 948.914,786.778 948.912,784.062C948.791,636.754 870.606,560.796 824.777,535.85C809.226,527.382 797.401,524.786 793.618,527.271C727.941,570.387 849.819,720.35 849.819,720.35L851.694,723.407C851.786,723.357 852.163,723.166 852.169,723.156C859.303,717.123 870.761,713.445 883.559,713.946C883.682,713.956 891.246,714.617 893.282,715.189C893.604,715.259 893.922,715.329 894.24,715.409C908.929,718.827 919.657,727.767 920.544,738.14C920.583,738.601 920.594,739.623 920.595,739.813C920.591,740.214 920.586,740.375 920.579,740.294C920.168,751.028 909.286,759.617 894.457,762.434C893.939,762.534 892.9,762.734 892.9,762.734C889.323,763.306 881.62,763.386 881.62,763.386C881.577,763.386 881.39,763.376 881.39,763.376C881.39,763.376 881.427,763.376 881.53,763.386C880.784,763.336 879.408,763.245 879.409,763.235C879.409,763.235 879.503,763.245 879.729,763.256C878.107,763.125 876.568,762.945 876.07,762.885L876.059,762.885C874.145,762.614 872.391,762.273 872.258,762.253L872.25,762.253C858.904,759.487 848.752,752.462 845.512,743.872L838.212,752.201C707.353,914.672 934.09,796.72 934.09,796.72L928.932,807.033ZM859.8,738.671C860.139,730.012 871.352,723.427 884.843,723.958C898.334,724.499 908.995,731.946 908.656,740.605C908.524,743.943 906.769,746.969 903.893,749.405C902.073,750.948 899.807,752.241 897.212,753.233C893.28,754.727 888.604,755.508 883.613,755.308C870.122,754.777 859.46,747.32 859.8,738.671L859.8,738.671Z" style="fill:rgb(120,120,120);"/>
    </g>
    <g id="path4116" transform="matrix(0.969669,0,0,0.969669,-637.068,-390.611)">
        <path d="M852.208,919.312C852.09,905.231 854.996,892.563 860.599,880.506C867.907,864.771 879.228,852.654 893.821,843.504C908.622,834.223 923.204,824.642 935.914,812.505C939,809.568 941.767,806.281 945.46,802.322C939.411,823.92 928.387,841.359 914.16,857.074C927.94,851.251 942.492,846.931 952.843,834.965C957.972,829.032 960.726,822.036 963.155,814.76C965.774,806.912 968.156,798.935 971.537,791.418C976.581,780.213 985.393,772.566 997.173,767.274C981.633,787.529 974.937,810.851 968.581,834.313C967.62,837.871 966.563,841.399 965.457,844.907C961.096,858.748 952.726,869.632 939.804,875.956C928.441,881.508 916.422,885.748 904.579,890.278" style="fill:rgb(120,120,120);"/>
    </g>
    <g id="path4120" transform="matrix(0.969669,0,0,0.969669,-637.068,-390.611)">
        <path d="M998.916,776.375C994.043,790.065 989.723,802.693 985.004,815.181C983.349,819.561 980.84,823.64 978.466,827.699C977.459,829.422 975.793,830.755 974.001,831.938" style="fill:white;"/>
    </g>
    <g transform="matrix(0.910055,0,0,0.910055,464.745,296.892)">
        <g id="text4850">
            <text x="0px" y="0px" style="font-family:'AppleSDGothicNeo-Bold', 'Apple SD Gothic Neo';font-weight:700;font-size:205.333px;fill:rgb(120,120,120);">But<tspan x="318.061px " y="0px ">t</tspan>er<tspan x="583.967px " y="0px ">f</tspan>ly</text>
        </g>
    </g>
    <g transform="matrix(0.857749,0,0,0.857749,464.77,487.48)">
        <g id="text4850-1">
            <text x="0px" y="0px" style="font-family:'.AppleSDGothicNeoI-UltraLight', '.Apple SD Gothic NeoI';font-weight:200;font-size:217.854px;fill:rgb(120,120,120);">Count</text>
        </g>
    </g>
</svg>
