<?xml version="1.0" standalone="no"?><!-- Generator: Gravit.io --><svg xmlns="http://www.w3.org/2000/svg" xmlns:xlink="http://www.w3.org/1999/xlink" style="isolation:isolate" viewBox="0 0 2737 2737" width="2737px" height="2737px"><defs><clipPath id="_clipPath_52FPTnjZwQamouyHLfmc5vPVfld1R6cT"><rect width="2737" height="2737"/></clipPath></defs><g clip-path="url(#_clipPath_52FPTnjZwQamouyHLfmc5vPVfld1R6cT)"><g><path d=" M 0 2737 L 2736.6 2737 L 2736.6 0 L 0 0 L 0 2737 Z " fill-rule="evenodd" fill="rgb(116,90,143)"/><path d=" M 945.53 2156.446 C 941.107 2158.613 938.392 2159.899 934.382 2159.899 C 927.974 2159.899 923.424 2155.891 923.424 2150.26 C 923.424 2144.682 928.017 2140.711 934.562 2140.711 C 938.356 2140.711 941.784 2142.011 945.165 2143.946 L 945.165 2136.936 C 942.144 2135.094 938.308 2134.169 934.022 2134.169 C 922.244 2134.169 915.529 2142.011 915.529 2150.403 C 915.529 2158.517 921.477 2166.461 933.435 2166.461 C 937.996 2166.461 941.239 2165.575 945.53 2163.317 L 945.53 2156.446 Z " fill-rule="evenodd" fill="rgb(255,255,255)"/><path d=" M 962.399 2162.485 C 965.013 2162.485 967.039 2161.701 970.113 2159.439 L 970.113 2163.635 C 966.367 2166.461 962.441 2166.461 960.822 2166.461 C 953.515 2166.461 948.774 2162.12 948.774 2155.476 C 948.774 2148.979 953.335 2144.364 959.743 2144.364 C 965.775 2144.364 970.785 2148.745 970.473 2156.483 L 955.542 2156.483 C 955.764 2160.268 958.293 2162.485 962.399 2162.485 Z  M 960.187 2148.328 C 957.615 2148.328 955.949 2150.032 955.674 2152.987 L 964.695 2152.987 C 964.431 2150.082 962.711 2148.328 960.187 2148.328 Z " fill-rule="evenodd" fill="rgb(255,255,255)"/><path d=" M 980.484 2144.777 L 973.949 2144.777 L 973.949 2166.044 L 980.484 2166.044 L 980.484 2152.338 C 982.198 2149.71 983.426 2148.835 985.045 2148.835 C 986.897 2148.835 988.294 2150.082 988.294 2153.077 L 988.294 2166.044 L 994.834 2166.044 L 994.834 2152.525 C 994.834 2146.258 990.5 2144.364 987.257 2144.364 C 984.595 2144.364 982.563 2145.376 980.484 2147.821 L 980.484 2144.777 Z " fill-rule="evenodd" fill="rgb(255,255,255)"/><path d=" M 1014.37 2144.777 L 1006.79 2144.777 L 1006.79 2138.092 L 1005.98 2138.092 L 997.268 2148.049 L 997.268 2149.338 L 1000.25 2149.338 L 1000.25 2158.475 C 1000.25 2164.422 1003.99 2166.461 1008.32 2166.461 C 1010.36 2166.461 1012.06 2166.094 1014.37 2165.111 L 1014.37 2160.268 C 1012.61 2161.191 1011.34 2161.513 1009.99 2161.513 C 1007.96 2161.513 1006.79 2160.181 1006.79 2158.1 L 1006.79 2149.338 L 1014.37 2149.338 L 1014.37 2144.777 Z " fill-rule="evenodd" fill="rgb(255,255,255)"/><path d=" M 1023.89 2144.777 L 1017.35 2144.777 L 1017.35 2166.044 L 1023.89 2166.044 L 1023.89 2156.861 C 1025.33 2152.942 1026.86 2150.634 1029.26 2150.634 C 1030.3 2150.634 1031.42 2151.097 1033.13 2152.2 L 1034.95 2146.298 C 1033.05 2144.869 1031.92 2144.364 1030.61 2144.364 C 1028.08 2144.364 1025.92 2146.436 1023.98 2150.866 L 1023.89 2150.866 L 1023.89 2144.777 Z " fill-rule="evenodd" fill="rgb(255,255,255)"/><path d=" M 1048.43 2162.485 C 1051.04 2162.485 1053.08 2161.701 1056.14 2159.439 L 1056.14 2163.635 C 1052.4 2166.461 1048.47 2166.461 1046.85 2166.461 C 1039.54 2166.461 1034.8 2162.12 1034.8 2155.476 C 1034.8 2148.979 1039.36 2144.364 1045.77 2144.364 C 1051.81 2144.364 1056.82 2148.745 1056.5 2156.483 L 1041.57 2156.483 C 1041.8 2160.268 1044.32 2162.485 1048.43 2162.485 Z  M 1046.22 2148.328 C 1043.65 2148.328 1041.97 2150.032 1041.7 2152.987 L 1050.72 2152.987 C 1050.45 2150.082 1048.75 2148.328 1046.22 2148.328 Z " fill-rule="evenodd" fill="rgb(255,255,255)"/><path d=" M 1079.6 2144.777 L 1079.6 2143.438 C 1079.6 2140.624 1081.18 2139.699 1083.21 2139.699 C 1083.94 2139.699 1084.43 2139.749 1086.14 2139.978 L 1086.14 2134.584 C 1085.15 2134.447 1083.43 2134.169 1082.17 2134.169 C 1076.89 2134.169 1073.06 2137.446 1073.06 2143.712 L 1073.06 2144.777 L 1070.08 2144.777 L 1070.08 2149.338 L 1073.06 2149.338 L 1073.06 2166.044 L 1079.6 2166.044 L 1079.6 2149.338 L 1082.58 2149.338 L 1082.58 2144.777 L 1079.6 2144.777 Z " fill-rule="evenodd" fill="rgb(255,255,255)"/><path d=" M 1095.62 2144.364 C 1100.71 2144.364 1107.3 2147.268 1107.3 2155.426 C 1107.3 2163.864 1100.21 2166.461 1095.62 2166.461 C 1088.8 2166.461 1083.84 2162.07 1083.84 2155.378 C 1083.84 2148.147 1089.48 2144.364 1095.62 2144.364 Z  M 1095.62 2162.485 C 1098.68 2162.485 1100.3 2159.899 1100.3 2155.246 C 1100.3 2151.097 1098.91 2148.328 1095.62 2148.328 C 1092.77 2148.328 1090.84 2150.587 1090.84 2155.378 C 1090.84 2160.871 1093.14 2162.485 1095.62 2162.485 Z " fill-rule="evenodd" fill="rgb(255,255,255)"/><path d=" M 1117.54 2144.777 L 1111 2144.777 L 1111 2166.044 L 1117.54 2166.044 L 1117.54 2156.861 C 1118.98 2152.942 1120.52 2150.634 1122.92 2150.634 C 1123.95 2150.634 1125.07 2151.097 1126.79 2152.2 L 1128.59 2146.298 C 1126.7 2144.869 1125.57 2144.364 1124.26 2144.364 C 1121.73 2144.364 1119.57 2146.436 1117.63 2150.866 L 1117.54 2150.866 L 1117.54 2144.777 Z " fill-rule="evenodd" fill="rgb(255,255,255)"/><path d=" M 939.504 2200.71 L 924.546 2200.71 L 924.546 2193.147 L 938.514 2193.147 L 938.514 2187.38 L 924.546 2187.38 L 924.546 2180.787 L 939.186 2180.787 L 939.186 2175.02 L 916.91 2175.02 L 916.91 2206.476 L 939.504 2206.476 L 939.504 2200.71 Z " fill-rule="evenodd" fill="rgb(255,255,255)"/><path d=" M 961.827 2200.662 C 958.954 2201.773 957.552 2202.137 955.986 2202.137 C 952.256 2202.137 949.785 2199.641 949.785 2195.871 C 949.785 2192.126 952.308 2189.732 956.214 2189.732 C 957.827 2189.732 959.806 2190.239 961.515 2191.166 L 961.515 2186.184 C 959.356 2185.35 956.658 2184.797 954.552 2184.797 C 947.721 2184.797 942.827 2189.413 942.827 2195.913 C 942.827 2202.551 947.541 2206.896 954.822 2206.896 C 957.023 2206.896 959.219 2206.433 961.827 2205.459 L 961.827 2200.662 Z " fill-rule="evenodd" fill="rgb(255,255,255)"/><path d=" M 976.156 2184.796 C 981.23 2184.796 987.786 2187.699 987.786 2195.87 C 987.786 2204.301 980.738 2206.896 976.156 2206.896 C 969.372 2206.896 964.431 2202.507 964.431 2195.823 C 964.431 2188.584 970.045 2184.796 976.156 2184.796 Z  M 976.156 2202.929 C 979.209 2202.929 980.828 2200.34 980.828 2195.683 C 980.828 2191.53 979.431 2188.767 976.156 2188.767 C 973.325 2188.767 971.394 2191.02 971.394 2195.823 C 971.394 2201.305 973.68 2202.929 976.156 2202.929 Z " fill-rule="evenodd" fill="rgb(255,255,255)"/><path d=" M 991.426 2206.479 L 997.945 2206.479 L 997.945 2175.02 L 991.426 2175.02 L 991.426 2206.479 Z " fill-rule="evenodd" fill="rgb(255,255,255)"/><path d=" M 1013.8 2184.796 C 1018.87 2184.796 1025.43 2187.699 1025.43 2195.87 C 1025.43 2204.301 1018.37 2206.896 1013.8 2206.896 C 1007.01 2206.896 1002.07 2202.507 1002.07 2195.823 C 1002.07 2188.584 1007.68 2184.796 1013.8 2184.796 Z  M 1013.8 2202.929 C 1016.85 2202.929 1018.47 2200.34 1018.47 2195.683 C 1018.47 2191.53 1017.07 2188.767 1013.8 2188.767 C 1010.97 2188.767 1009.03 2191.02 1009.03 2195.823 C 1009.03 2201.305 1011.33 2202.929 1013.8 2202.929 Z " fill-rule="evenodd" fill="rgb(255,255,255)"/><path d=" M 1037.06 2185.214 L 1049.36 2185.214 L 1049.36 2189.686 L 1046.41 2189.686 C 1047.12 2190.981 1047.44 2191.996 1047.44 2193.24 C 1047.44 2195.123 1046.68 2196.742 1045.55 2197.897 C 1041.87 2201.674 1035.85 2199.463 1035.85 2201.952 C 1035.85 2204.401 1043.76 2202.272 1047.17 2205.825 C 1048.52 2207.221 1048.83 2208.879 1048.83 2209.942 C 1048.83 2214.88 1044.56 2217.088 1037.87 2217.088 C 1029.15 2217.088 1026.82 2213.722 1026.82 2210.904 C 1026.82 2209.112 1027.77 2206.808 1032.34 2205.603 C 1030.95 2205.089 1029.83 2204.258 1029.83 2202.737 C 1029.83 2200.478 1032.39 2199.873 1033.6 2199.601 C 1030.95 2199.096 1027.81 2196.877 1027.81 2192.957 C 1027.81 2190.327 1029.61 2185.214 1037.06 2185.214 Z  M 1033.87 2193.054 C 1033.87 2190.885 1035.49 2189.181 1037.65 2189.181 C 1039.89 2189.181 1041.37 2190.885 1041.37 2192.824 C 1041.37 2195.038 1039.72 2196.877 1037.65 2196.877 C 1035.58 2196.877 1033.87 2195.123 1033.87 2193.054 Z  M 1042.86 2210.441 C 1042.86 2211.874 1041.06 2213.12 1038.18 2213.12 C 1034.73 2213.12 1032.84 2212.246 1032.84 2210.628 C 1032.84 2209.065 1034.73 2208.098 1037.79 2208.098 C 1041.01 2208.098 1042.86 2208.922 1042.86 2210.441 Z " fill-rule="evenodd" fill="rgb(255,255,255)"/><path d=" M 1072.91 2185.214 L 1066.09 2185.214 L 1061.4 2196.144 L 1057.05 2185.214 L 1050.08 2185.214 L 1058.17 2203.014 L 1052.11 2216.674 L 1059.03 2216.674 L 1072.91 2185.214 Z " fill-rule="evenodd" fill="rgb(255,255,255)"/><path d=" M 1106.86 2195.079 C 1108.25 2193.657 1109.42 2191.945 1110.37 2190.143 L 1116.93 2190.143 C 1115.12 2194.391 1113.2 2197.345 1110.77 2199.551 L 1116.93 2206.479 L 1107.62 2206.479 L 1105.38 2203.979 C 1102.32 2205.969 1099.23 2206.896 1095.76 2206.896 C 1090.2 2206.896 1086.06 2203.339 1086.06 2198.592 C 1086.06 2194.991 1088.22 2192.174 1092.94 2189.686 C 1091.18 2187.149 1090.16 2185.304 1090.16 2182.724 C 1090.16 2178.017 1094.11 2174.611 1099.54 2174.611 C 1104.75 2174.611 1108.39 2177.702 1108.39 2182.075 C 1108.39 2185.118 1106.41 2187.887 1102.68 2190.143 L 1106.86 2195.079 Z  M 1099.36 2186.416 C 1097.88 2185.079 1096.75 2183.372 1096.75 2182.214 C 1096.75 2180.838 1097.93 2179.819 1099.58 2179.819 C 1101.24 2179.819 1102.42 2180.926 1102.42 2182.445 C 1102.42 2183.967 1101.57 2185.079 1099.36 2186.416 Z  M 1101.84 2199.921 C 1100.34 2200.983 1098.5 2201.674 1097.12 2201.674 C 1095.01 2201.674 1093.25 2200.019 1093.25 2197.989 C 1093.25 2196.513 1094.24 2195.174 1096.39 2193.742 L 1101.84 2199.921 Z " fill-rule="evenodd" fill="rgb(255,255,255)"/><path d=" M 1163.06 2175.02 L 1155.41 2175.02 L 1155.41 2187.654 L 1140.14 2187.654 L 1140.14 2175.02 L 1132.51 2175.02 L 1132.51 2206.479 L 1140.14 2206.479 L 1140.14 2193.742 L 1155.41 2193.742 L 1155.41 2206.479 L 1163.06 2206.479 L 1163.06 2175.02 Z " fill-rule="evenodd" fill="rgb(255,255,255)"/><path d=" M 1188.16 2185.214 L 1181.33 2185.214 L 1176.66 2196.144 L 1172.3 2185.214 L 1165.34 2185.214 L 1173.42 2203.014 L 1167.37 2216.674 L 1174.29 2216.674 L 1188.16 2185.214 Z " fill-rule="evenodd" fill="rgb(255,255,255)"/><path d=" M 1204.51 2175.02 L 1211.02 2175.02 L 1211.02 2206.476 L 1204.51 2206.476 L 1204.51 2204.763 C 1202.67 2206.29 1200.96 2206.896 1198.75 2206.896 C 1193.19 2206.896 1189.06 2202.187 1189.06 2195.823 C 1189.06 2189.314 1193.19 2184.796 1199.12 2184.796 C 1201.01 2184.796 1202.76 2185.261 1204.51 2186.133 L 1204.51 2175.02 Z  M 1200.65 2202.415 C 1202.04 2202.415 1203.16 2201.905 1204.51 2200.662 L 1204.51 2190.518 C 1203.56 2189.821 1202.04 2189.272 1200.87 2189.272 C 1197.59 2189.272 1195.66 2191.719 1195.66 2195.958 C 1195.66 2199.833 1197.59 2202.415 1200.65 2202.415 Z " fill-rule="evenodd" fill="rgb(255,255,255)"/><path d=" M 1222.25 2185.214 L 1215.74 2185.214 L 1215.74 2206.479 L 1222.25 2206.479 L 1222.25 2197.295 C 1223.69 2193.372 1225.22 2191.068 1227.6 2191.068 C 1228.62 2191.068 1229.75 2191.53 1231.46 2192.642 L 1233.25 2186.742 C 1231.37 2185.304 1230.24 2184.797 1228.95 2184.797 C 1226.43 2184.797 1224.27 2186.872 1222.34 2191.305 L 1222.25 2191.305 L 1222.25 2185.214 Z " fill-rule="evenodd" fill="rgb(255,255,255)"/><path d=" M 1244.62 2184.796 C 1249.69 2184.796 1256.25 2187.699 1256.25 2195.87 C 1256.25 2204.301 1249.2 2206.896 1244.62 2206.896 C 1237.84 2206.896 1232.89 2202.507 1232.89 2195.823 C 1232.89 2188.584 1238.52 2184.796 1244.62 2184.796 Z  M 1244.62 2202.929 C 1247.67 2202.929 1249.3 2200.34 1249.3 2195.683 C 1249.3 2191.53 1247.9 2188.767 1244.62 2188.767 C 1241.79 2188.767 1239.86 2191.02 1239.86 2195.823 C 1239.86 2201.305 1242.15 2202.929 1244.62 2202.929 Z " fill-rule="evenodd" fill="rgb(255,255,255)"/><path d=" M 1259.89 2206.479 L 1266.398 2206.479 L 1266.398 2175.02 L 1259.89 2175.02 L 1259.89 2206.479 Z " fill-rule="evenodd" fill="rgb(255,255,255)"/><path d=" M 1282.27 2184.796 C 1287.34 2184.796 1293.9 2187.699 1293.9 2195.87 C 1293.9 2204.301 1286.84 2206.896 1282.27 2206.896 C 1275.48 2206.896 1270.54 2202.507 1270.54 2195.823 C 1270.54 2188.584 1276.15 2184.796 1282.27 2184.796 Z  M 1282.27 2202.929 C 1285.32 2202.929 1286.93 2200.34 1286.93 2195.683 C 1286.93 2191.53 1285.54 2188.767 1282.27 2188.767 C 1279.43 2188.767 1277.5 2191.02 1277.5 2195.823 C 1277.5 2201.305 1279.79 2202.929 1282.27 2202.929 Z " fill-rule="evenodd" fill="rgb(255,255,255)"/><path d=" M 1305.52 2185.214 L 1317.83 2185.214 L 1317.83 2189.686 L 1314.86 2189.686 C 1315.58 2190.981 1315.9 2191.996 1315.9 2193.24 C 1315.9 2195.123 1315.14 2196.742 1314.02 2197.897 C 1310.33 2201.674 1304.31 2199.463 1304.31 2201.952 C 1304.31 2204.401 1312.22 2202.272 1315.64 2205.825 C 1316.98 2207.221 1317.3 2208.879 1317.3 2209.942 C 1317.3 2214.88 1313.02 2217.088 1306.33 2217.088 C 1297.62 2217.088 1295.28 2213.722 1295.28 2210.904 C 1295.28 2209.112 1296.23 2206.808 1300.81 2205.603 C 1299.41 2205.089 1298.3 2204.258 1298.3 2202.737 C 1298.3 2200.478 1300.86 2199.873 1302.07 2199.601 C 1299.41 2199.096 1296.28 2196.877 1296.28 2192.957 C 1296.28 2190.327 1298.07 2185.214 1305.52 2185.214 Z  M 1302.34 2193.054 C 1302.34 2190.885 1303.96 2189.181 1306.11 2189.181 C 1308.36 2189.181 1309.84 2190.885 1309.84 2192.824 C 1309.84 2195.038 1308.18 2196.877 1306.11 2196.877 C 1304.04 2196.877 1302.34 2195.123 1302.34 2193.054 Z  M 1311.32 2210.441 C 1311.32 2211.874 1309.53 2213.12 1306.65 2213.12 C 1303.19 2213.12 1301.31 2212.246 1301.31 2210.628 C 1301.31 2209.065 1303.19 2208.098 1306.24 2208.098 C 1309.48 2208.098 1311.32 2208.922 1311.32 2210.441 Z " fill-rule="evenodd" fill="rgb(255,255,255)"/><path d=" M 1341.37 2185.214 L 1334.54 2185.214 L 1329.88 2196.144 L 1325.52 2185.214 L 1318.55 2185.214 L 1326.64 2203.014 L 1320.57 2216.674 L 1327.49 2216.674 L 1341.37 2185.214 Z " fill-rule="evenodd" fill="rgb(255,255,255)"/><path d=" M 928.963 2238.038 L 925.519 2238.038 L 925.519 2245.896 L 918.138 2238.038 L 914.968 2238.038 L 914.968 2250.897 L 918.413 2250.897 L 918.413 2242.656 L 926.059 2250.897 L 928.963 2250.897 L 928.963 2238.038 Z " fill-rule="evenodd" fill="rgb(255,255,255)"/><path d=" M 935.636 2238.038 L 939.636 2238.038 L 945.779 2250.896 L 942.07 2250.896 L 940.932 2248.349 L 934.742 2248.349 L 933.715 2250.896 L 930.059 2250.896 L 935.636 2238.038 Z  M 935.652 2246.103 L 939.916 2246.103 L 937.689 2241.114 L 935.652 2246.103 Z " fill-rule="evenodd" fill="rgb(255,255,255)"/><path d=" M 956.954 2238.038 L 943.488 2238.038 L 943.488 2240.389 L 948.499 2240.389 L 948.499 2250.897 L 951.949 2250.897 L 951.949 2240.389 L 956.954 2240.389 L 956.954 2238.038 Z " fill-rule="evenodd" fill="rgb(255,255,255)"/><path d=" M 968.86 2238.038 L 968.86 2245.193 C 968.86 2247.501 967.182 2248.392 965.357 2248.392 C 963.361 2248.392 961.922 2247.266 961.922 2245.422 L 961.922 2238.038 L 958.473 2238.038 L 958.473 2245.351 C 958.473 2249.327 961.378 2251.065 965.393 2251.065 C 969.187 2251.065 972.304 2249.592 972.304 2245.337 L 972.304 2238.038 L 968.86 2238.038 Z " fill-rule="evenodd" fill="rgb(255,255,255)"/><path d=" M 974.759 2250.896 L 974.759 2238.038 L 980.944 2238.038 C 983.786 2238.038 985.474 2239.808 985.474 2241.729 C 985.474 2243.145 984.685 2244.202 983.092 2244.878 C 984.516 2245.536 984.945 2247.121 986.886 2250.896 L 983.092 2250.896 C 981.621 2248.141 981.071 2245.676 979.209 2245.676 L 978.209 2245.676 L 978.209 2250.896 L 974.759 2250.896 Z  M 979.955 2240.389 L 978.209 2240.389 L 978.209 2243.312 L 980.034 2243.312 C 980.987 2243.312 981.923 2242.937 981.923 2241.849 C 981.923 2240.889 981.251 2240.389 979.955 2240.389 Z " fill-rule="evenodd" fill="rgb(255,255,255)"/><path d=" M 992.162 2238.038 L 996.167 2238.038 L 1002.3 2250.896 L 998.59 2250.896 L 997.458 2248.349 L 991.272 2248.349 L 990.236 2250.896 L 986.584 2250.896 L 992.162 2238.038 Z  M 992.188 2246.103 L 996.447 2246.103 L 994.215 2241.114 L 992.188 2246.103 Z " fill-rule="evenodd" fill="rgb(255,255,255)"/><path d=" M 1013.97 2248.532 L 1006.87 2248.532 L 1006.87 2238.038 L 1003.43 2238.038 L 1003.43 2250.891 L 1013.97 2250.891 L 1013.97 2248.532 Z " fill-rule="evenodd" fill="rgb(255,255,255)"/><path d=" M 1031.21 2248.532 L 1024.46 2248.532 L 1024.46 2245.441 L 1030.77 2245.441 L 1030.77 2243.09 L 1024.46 2243.09 L 1024.46 2240.389 L 1031.06 2240.389 L 1031.06 2238.038 L 1021 2238.038 L 1021 2250.891 L 1031.21 2250.891 L 1031.21 2248.532 Z " fill-rule="evenodd" fill="rgb(255,255,255)"/><path d=" M 1047.45 2238.038 L 1044.01 2238.038 L 1044.01 2245.896 L 1036.63 2238.038 L 1033.46 2238.038 L 1033.46 2250.897 L 1036.91 2250.897 L 1036.91 2242.656 L 1044.55 2250.897 L 1047.45 2250.897 L 1047.45 2238.038 Z " fill-rule="evenodd" fill="rgb(255,255,255)"/><path d=" M 1063.07 2238.038 L 1059.36 2238.038 L 1055.9 2245.372 L 1052.24 2238.038 L 1048.49 2238.038 L 1055.19 2251.065 L 1056.68 2251.065 L 1063.07 2238.038 Z " fill-rule="evenodd" fill="rgb(255,255,255)"/><path d=" M 1064.29 2250.897 L 1067.739 2250.897 L 1067.739 2238.038 L 1064.29 2238.038 L 1064.29 2250.897 Z " fill-rule="evenodd" fill="rgb(255,255,255)"/><path d=" M 1070.72 2250.896 L 1070.72 2238.038 L 1076.9 2238.038 C 1079.75 2238.038 1081.42 2239.808 1081.42 2241.729 C 1081.42 2243.145 1080.64 2244.202 1079.05 2244.878 C 1080.48 2245.536 1080.9 2247.121 1082.85 2250.896 L 1079.05 2250.896 C 1077.58 2248.141 1077.04 2245.676 1075.16 2245.676 L 1074.17 2245.676 L 1074.17 2250.896 L 1070.72 2250.896 Z  M 1075.92 2240.389 L 1074.17 2240.389 L 1074.17 2243.312 L 1075.99 2243.312 C 1076.95 2243.312 1077.88 2242.937 1077.88 2241.849 C 1077.88 2240.889 1077.21 2240.389 1075.92 2240.389 Z " fill-rule="evenodd" fill="rgb(255,255,255)"/><path d=" M 1091.07 2237.867 C 1096.28 2237.867 1098.97 2241.375 1098.97 2244.46 C 1098.97 2247.761 1096.04 2251.065 1091.07 2251.065 C 1085.99 2251.065 1083.13 2247.742 1083.13 2244.46 C 1083.13 2241.357 1085.85 2237.867 1091.07 2237.867 Z  M 1091.07 2248.391 C 1093.68 2248.391 1095.42 2246.82 1095.42 2244.46 C 1095.42 2242.109 1093.68 2240.551 1091.07 2240.551 C 1088.42 2240.551 1086.68 2242.109 1086.68 2244.46 C 1086.68 2246.82 1088.42 2248.391 1091.07 2248.391 Z " fill-rule="evenodd" fill="rgb(255,255,255)"/><path d=" M 1114.94 2238.038 L 1111.49 2238.038 L 1111.49 2245.896 L 1104.11 2238.038 L 1100.94 2238.038 L 1100.94 2250.897 L 1104.39 2250.897 L 1104.39 2242.656 L 1112.04 2250.897 L 1114.94 2250.897 L 1114.94 2238.038 Z " fill-rule="evenodd" fill="rgb(255,255,255)"/><path d=" M 1124.95 2242.805 L 1120.52 2238.038 L 1117.51 2238.038 L 1117.51 2250.897 L 1120.96 2250.897 L 1120.96 2242.86 L 1124.69 2246.894 L 1125.22 2246.894 L 1128.95 2242.86 L 1128.95 2250.897 L 1132.4 2250.897 L 1132.4 2238.038 L 1129.4 2238.038 L 1124.95 2242.805 Z " fill-rule="evenodd" fill="rgb(255,255,255)"/><path d=" M 1145.14 2248.532 L 1138.39 2248.532 L 1138.39 2245.441 L 1144.69 2245.441 L 1144.69 2243.09 L 1138.39 2243.09 L 1138.39 2240.389 L 1145 2240.389 L 1145 2238.038 L 1134.94 2238.038 L 1134.94 2250.891 L 1145.14 2250.891 L 1145.14 2248.532 Z " fill-rule="evenodd" fill="rgb(255,255,255)"/><path d=" M 1161.38 2238.038 L 1157.93 2238.038 L 1157.93 2245.896 L 1150.55 2238.038 L 1147.39 2238.038 L 1147.39 2250.897 L 1150.84 2250.897 L 1150.84 2242.656 L 1158.48 2250.897 L 1161.38 2250.897 L 1161.38 2238.038 Z " fill-rule="evenodd" fill="rgb(255,255,255)"/><path d=" M 1176.45 2238.038 L 1162.99 2238.038 L 1162.99 2240.389 L 1167.99 2240.389 L 1167.99 2250.897 L 1171.45 2250.897 L 1171.45 2240.389 L 1176.45 2240.389 L 1176.45 2238.038 Z " fill-rule="evenodd" fill="rgb(255,255,255)"/><path d=" M 1183.55 2250.896 L 1183.55 2238.038 L 1189.74 2238.038 C 1192.58 2238.038 1194.27 2239.808 1194.27 2241.729 C 1194.27 2243.145 1193.47 2244.202 1191.89 2244.878 C 1193.31 2245.536 1193.73 2247.121 1195.68 2250.896 L 1191.89 2250.896 C 1190.41 2248.141 1189.86 2245.676 1188 2245.676 L 1187.01 2245.676 L 1187.01 2250.896 L 1183.55 2250.896 Z  M 1188.74 2240.389 L 1187.01 2240.389 L 1187.01 2243.312 L 1188.82 2243.312 C 1189.78 2243.312 1190.72 2242.937 1190.72 2241.849 C 1190.72 2240.889 1190.05 2240.389 1188.74 2240.389 Z " fill-rule="evenodd" fill="rgb(255,255,255)"/><path d=" M 1207.1 2248.532 L 1200.35 2248.532 L 1200.35 2245.441 L 1206.65 2245.441 L 1206.65 2243.09 L 1200.35 2243.09 L 1200.35 2240.389 L 1206.96 2240.389 L 1206.96 2238.038 L 1196.91 2238.038 L 1196.91 2250.891 L 1207.1 2250.891 L 1207.1 2248.532 Z " fill-rule="evenodd" fill="rgb(255,255,255)"/><path d=" M 1218.62 2238.869 C 1216.88 2238.173 1215.48 2237.867 1213.94 2237.867 C 1210.73 2237.867 1208.67 2239.345 1208.67 2241.564 C 1208.67 2246.18 1215.7 2245.409 1215.7 2247.517 C 1215.7 2248.271 1214.99 2248.707 1213.68 2248.707 C 1212.15 2248.707 1210.94 2248.271 1208.95 2247.049 L 1208.95 2249.815 C 1210.33 2250.474 1211.52 2251.065 1213.94 2251.065 C 1217.02 2251.065 1219.25 2249.629 1219.25 2247.161 C 1219.25 2242.68 1212.22 2243.222 1212.22 2241.28 C 1212.22 2240.636 1213 2240.227 1214.24 2240.227 C 1215.42 2240.227 1216.61 2240.551 1218.62 2241.375 L 1218.62 2238.869 Z " fill-rule="evenodd" fill="rgb(255,255,255)"/><path d=" M 1231.45 2248.532 L 1224.69 2248.532 L 1224.69 2245.441 L 1231 2245.441 L 1231 2243.09 L 1224.69 2243.09 L 1224.69 2240.389 L 1231.3 2240.389 L 1231.3 2238.038 L 1221.24 2238.038 L 1221.24 2250.891 L 1231.45 2250.891 L 1231.45 2248.532 Z " fill-rule="evenodd" fill="rgb(255,255,255)"/><path d=" M 1237.77 2238.038 L 1241.77 2238.038 L 1247.91 2250.896 L 1244.21 2250.896 L 1243.07 2248.349 L 1236.88 2248.349 L 1235.85 2250.896 L 1232.19 2250.896 L 1237.77 2238.038 Z  M 1237.79 2246.103 L 1242.05 2246.103 L 1239.81 2241.114 L 1237.79 2246.103 Z " fill-rule="evenodd" fill="rgb(255,255,255)"/><path d=" M 1249.03 2250.896 L 1249.03 2238.038 L 1255.22 2238.038 C 1258.06 2238.038 1259.74 2239.808 1259.74 2241.729 C 1259.74 2243.145 1258.95 2244.202 1257.37 2244.878 C 1258.79 2245.536 1259.21 2247.121 1261.15 2250.896 L 1257.37 2250.896 C 1255.88 2248.141 1255.33 2245.676 1253.47 2245.676 L 1252.48 2245.676 L 1252.48 2250.896 L 1249.03 2250.896 Z  M 1254.23 2240.389 L 1252.48 2240.389 L 1252.48 2243.312 L 1254.3 2243.312 C 1255.25 2243.312 1256.19 2242.937 1256.19 2241.849 C 1256.19 2240.889 1255.52 2240.389 1254.23 2240.389 Z " fill-rule="evenodd" fill="rgb(255,255,255)"/><path d=" M 1275.24 2246.969 C 1273.24 2247.857 1272.03 2248.392 1270.22 2248.392 C 1267.34 2248.392 1265.3 2246.743 1265.3 2244.445 C 1265.3 2242.164 1267.36 2240.551 1270.31 2240.551 C 1272.01 2240.551 1273.55 2241.077 1275.07 2241.869 L 1275.07 2238.997 C 1273.71 2238.245 1271.98 2237.867 1270.06 2237.867 C 1264.77 2237.867 1261.75 2241.077 1261.75 2244.506 C 1261.75 2247.817 1264.42 2251.065 1269.8 2251.065 C 1271.84 2251.065 1273.3 2250.7 1275.24 2249.781 L 1275.24 2246.969 Z " fill-rule="evenodd" fill="rgb(255,255,255)"/><path d=" M 1291.3 2238.038 L 1287.85 2238.038 L 1287.85 2243.206 L 1280.95 2243.206 L 1280.95 2238.038 L 1277.5 2238.038 L 1277.5 2250.897 L 1280.95 2250.897 L 1280.95 2245.689 L 1287.85 2245.689 L 1287.85 2250.897 L 1291.3 2250.897 L 1291.3 2238.038 Z " fill-rule="evenodd" fill="rgb(255,255,255)"/><path d=" M 1312.21 2246.969 C 1310.22 2247.857 1309 2248.392 1307.2 2248.392 C 1304.32 2248.392 1302.27 2246.743 1302.27 2244.445 C 1302.27 2242.164 1304.34 2240.551 1307.28 2240.551 C 1308.98 2240.551 1310.53 2241.077 1312.05 2241.869 L 1312.05 2238.997 C 1310.68 2238.245 1308.96 2237.867 1307.03 2237.867 C 1301.74 2237.867 1298.72 2241.077 1298.72 2244.506 C 1298.72 2247.817 1301.4 2251.065 1306.77 2251.065 C 1308.83 2251.065 1310.28 2250.7 1312.21 2249.781 L 1312.21 2246.969 Z " fill-rule="evenodd" fill="rgb(255,255,255)"/><path d=" M 1321.81 2237.867 C 1327.02 2237.867 1329.72 2241.375 1329.72 2244.46 C 1329.72 2247.761 1326.78 2251.065 1321.81 2251.065 C 1316.73 2251.065 1313.88 2247.742 1313.88 2244.46 C 1313.88 2241.357 1316.6 2237.867 1321.81 2237.867 Z  M 1321.81 2248.391 C 1324.42 2248.391 1326.17 2246.82 1326.17 2244.46 C 1326.17 2242.109 1324.42 2240.551 1321.81 2240.551 C 1319.17 2240.551 1317.42 2242.109 1317.42 2244.46 C 1317.42 2246.82 1319.17 2248.391 1321.81 2248.391 Z " fill-rule="evenodd" fill="rgb(255,255,255)"/><path d=" M 1341.92 2238.038 L 1341.92 2245.193 C 1341.92 2247.501 1340.24 2248.392 1338.42 2248.392 C 1336.43 2248.392 1334.99 2247.266 1334.99 2245.422 L 1334.99 2238.038 L 1331.54 2238.038 L 1331.54 2245.351 C 1331.54 2249.327 1334.44 2251.065 1338.46 2251.065 C 1342.25 2251.065 1345.37 2249.592 1345.37 2245.337 L 1345.37 2238.038 L 1341.92 2238.038 Z " fill-rule="evenodd" fill="rgb(255,255,255)"/><path d=" M 1361.84 2238.038 L 1358.39 2238.038 L 1358.39 2245.896 L 1351.01 2238.038 L 1347.85 2238.038 L 1347.85 2250.897 L 1351.29 2250.897 L 1351.29 2242.656 L 1358.94 2250.897 L 1361.84 2250.897 L 1361.84 2238.038 Z " fill-rule="evenodd" fill="rgb(255,255,255)"/><path d=" M 1377.31 2246.969 C 1375.33 2247.857 1374.11 2248.392 1372.31 2248.392 C 1369.43 2248.392 1367.38 2246.743 1367.38 2244.445 C 1367.38 2242.164 1369.44 2240.551 1372.39 2240.551 C 1374.09 2240.551 1375.63 2241.077 1377.16 2241.869 L 1377.16 2238.997 C 1375.8 2238.245 1374.07 2237.867 1372.15 2237.867 C 1366.85 2237.867 1363.82 2241.077 1363.82 2244.506 C 1363.82 2247.817 1366.51 2251.065 1371.88 2251.065 C 1373.92 2251.065 1375.38 2250.7 1377.31 2249.781 L 1377.31 2246.969 Z " fill-rule="evenodd" fill="rgb(255,255,255)"/><path d=" M 1379.69 2250.897 L 1383.135 2250.897 L 1383.135 2238.038 L 1379.69 2238.038 L 1379.69 2250.897 Z " fill-rule="evenodd" fill="rgb(255,255,255)"/><path d=" M 1396.67 2248.532 L 1389.57 2248.532 L 1389.57 2238.038 L 1386.13 2238.038 L 1386.13 2250.891 L 1396.67 2250.891 L 1396.67 2248.532 Z " fill-rule="evenodd" fill="rgb(255,255,255)"/><path d=" M 779.49 2201.809 C 777.342 2203.758 774.808 2204.747 771.939 2204.747 C 768.447 2204.747 765.532 2203.439 763.278 2200.861 C 761.045 2198.318 759.912 2194.959 759.912 2190.877 C 759.912 2187.002 760.971 2183.617 763.067 2180.818 C 765.209 2177.949 768.389 2176.495 772.538 2176.495 C 777.437 2176.495 780.961 2179.057 783.02 2184.096 L 788.422 2184.096 L 788.422 2171.592 L 783.278 2171.592 L 783.278 2173.903 L 781.993 2174.529 C 778.945 2172.158 775.088 2170.957 770.538 2170.957 C 766.86 2170.957 763.437 2171.735 760.357 2173.277 C 757.314 2174.797 754.849 2177.101 753.05 2180.125 C 751.238 2183.155 750.32 2186.742 750.32 2190.798 C 750.32 2196.489 752.09 2201.246 755.568 2204.955 C 759.035 2208.64 764.288 2210.521 771.199 2210.521 C 780.797 2210.521 786.924 2206.357 789.898 2197.789 L 783.57 2194.759 C 782.776 2197.694 781.406 2200.066 779.49 2201.809 Z " fill-rule="evenodd" fill="rgb(255,255,255)"/><path d=" M 828.741 2182.685 L 828.741 2171.592 L 795.194 2171.592 L 795.194 2176.755 L 799.189 2176.755 L 799.983 2177.555 L 799.983 2204.061 L 799.189 2204.858 L 795.194 2204.858 L 795.194 2210.027 L 828.741 2210.027 L 828.741 2198.871 L 822.709 2198.871 L 822.709 2204.061 L 821.91 2204.858 L 809.561 2204.858 L 808.761 2204.061 L 808.761 2193.561 L 809.561 2192.759 L 818.74 2192.759 L 818.74 2187.59 L 809.603 2187.59 L 808.973 2186.484 L 808.761 2186.091 L 808.761 2177.555 L 809.561 2176.755 L 821.91 2176.755 L 822.709 2177.555 L 822.709 2182.685 L 828.741 2182.685 Z " fill-rule="evenodd" fill="rgb(255,255,255)"/><path d=" M 851.864 2204.858 L 848.472 2204.858 L 847.683 2204.061 L 847.683 2193.126 L 848.472 2192.323 L 859.34 2192.323 L 860.128 2193.126 L 860.128 2204.061 L 859.34 2204.858 L 856.091 2204.858 L 856.091 2210.027 L 873.61 2210.027 L 873.61 2204.858 L 869.419 2204.858 L 868.626 2204.061 L 868.626 2177.555 L 869.419 2176.755 L 873.61 2176.755 L 873.61 2171.592 L 856.091 2171.592 L 856.091 2176.755 L 859.34 2176.755 L 860.128 2177.555 L 860.128 2186.331 L 859.34 2187.133 L 848.472 2187.133 L 847.683 2186.331 L 847.683 2177.555 L 848.472 2176.755 L 851.864 2176.755 L 851.864 2171.592 L 834.196 2171.592 L 834.196 2176.755 L 838.392 2176.755 L 839.18 2177.555 L 839.18 2204.061 L 838.392 2204.858 L 834.196 2204.858 L 834.196 2210.027 L 851.864 2210.027 L 851.864 2204.858 Z " fill-rule="evenodd" fill="rgb(255,255,255)"/><path d=" M 740.375 2186.563 C 742.42 2147.692 774.543 2116.698 813.743 2116.698 C 854.258 2116.698 887.219 2149.807 887.219 2190.503 C 887.219 2190.563 887.214 2190.811 887.2 2191.226 C 886.811 2231.589 854.017 2264.309 813.743 2264.309 C 804.771 2264.309 796.169 2260.688 788.214 2255.05 C 796.116 2258.215 804.731 2259.956 813.743 2259.956 C 833.958 2259.956 852.175 2251.195 864.829 2237.256 C 861.853 2238.472 858.493 2239.177 854.678 2239.177 C 844.297 2239.177 834.667 2228.652 824.823 2213.444 L 829.974 2213.444 C 837.887 2225.241 846.498 2234.824 854.678 2234.824 C 880.427 2234.824 882.865 2191.077 882.87 2191.08 C 882.885 2152.208 851.868 2121.052 813.743 2121.052 C 793.528 2121.052 775.316 2129.812 762.659 2143.749 C 765.638 2142.534 768.993 2141.831 772.807 2141.831 C 783.307 2141.831 793.036 2152.604 802.999 2168.091 L 797.866 2168.091 C 789.861 2156.05 781.112 2146.184 772.807 2146.184 C 760.741 2146.184 753.815 2154.553 749.838 2164.018 C 749.538 2164.746 749.248 2165.478 748.973 2166.218 C 746.279 2173.529 745.204 2181.136 744.775 2185.85 C 744.671 2187.389 744.601 2188.939 744.601 2190.503 C 744.601 2193.968 744.855 2197.374 745.345 2200.705 C 742.071 2194.531 740.27 2190.502 740.268 2190.503 C 740.268 2190.493 740.156 2190.471 740.156 2190.471 C 740.156 2190.388 740.184 2188.915 740.375 2186.563 Z  M 745.345 2200.705 C 748.991 2225.482 765.711 2246.039 788.214 2255.051 C 768.642 2241.182 752.983 2215.105 745.345 2200.705 Z " fill-rule="evenodd" fill="rgb(255,255,255)"/><path d=" M 781.099 2522.939 L 1235.57 2522.939 L 1235.57 2403.939 L 781.099 2403.939 L 781.099 2522.939 Z " fill-rule="evenodd" fill="none"/><path d=" M 777.005 2527.044 L 1239.665 2527.044 L 1239.665 2399.837 L 777.005 2399.837 L 777.005 2527.044 Z  M 785.194 2518.836 L 1231.476 2518.836 L 1231.476 2408.043 L 785.194 2408.043 L 785.194 2518.836 Z " fill-rule="evenodd" fill="rgb(255,255,255)"/><path d=" M 1493.51 2522.939 L 1947.981 2522.939 L 1947.981 2403.939 L 1493.51 2403.939 L 1493.51 2522.939 Z " fill-rule="evenodd" fill="none"/><path d=" M 1489.42 2527.044 L 1952.08 2527.044 L 1952.08 2399.837 L 1489.42 2399.837 L 1489.42 2527.044 Z  M 1497.61 2518.836 L 1943.893 2518.836 L 1943.893 2408.043 L 1497.61 2408.043 L 1497.61 2518.836 Z " fill-rule="evenodd" fill="rgb(255,255,255)"/><path d=" M 1497.61 2260.319 L 1952.081 2260.319 L 1952.081 2141.319 L 1497.61 2141.319 L 1497.61 2260.319 Z " fill-rule="evenodd" fill="none"/><path d=" M 1493.51 2264.422 L 1956.17 2264.422 L 1956.17 2137.216 L 1493.51 2137.216 L 1493.51 2264.422 Z  M 1501.7 2256.215 L 1947.983 2256.215 L 1947.983 2145.422 L 1501.7 2145.422 L 1501.7 2256.215 Z " fill-rule="evenodd" fill="rgb(255,255,255)"/><path d=" M 1026.36 974.094 C 1031.73 969.213 1036.33 962.789 1039.39 956.876 L 1024.06 948.407 C 1021.76 953.538 1017.92 958.94 1013.06 963.049 C 1006.93 968.181 1000.03 970.756 991.334 970.756 C 972.928 970.756 957.844 956.625 957.589 934.526 L 1040.16 934.526 C 1040.67 920.405 1036.84 903.958 1030.19 894.457 C 1023.8 885.206 1010.76 874.934 990.055 874.934 C 958.1 874.934 938.67 899.598 938.67 931.449 C 938.67 971.007 965.514 987.193 991.079 987.193 C 1004.63 987.193 1016.64 982.823 1026.36 974.094 Z  M 990.055 891.37 C 1005.65 891.37 1018.18 902.415 1021.24 919.122 L 958.866 919.122 C 961.679 903.186 974.461 891.37 990.055 891.37 Z " fill-rule="evenodd" fill="rgb(255,255,255)"/><path d=" M 1124.77 823.549 C 1112.25 813.537 1095.12 812.765 1085.66 812.765 L 1054.98 812.765 L 1054.98 984.116 L 1097.42 984.116 C 1109.18 984.116 1124.77 983.595 1138.32 972.811 C 1147.53 965.615 1155.71 952.255 1155.71 935.819 C 1155.71 919.372 1147.02 898.566 1123.24 892.653 C 1138.32 882.38 1140.11 867.477 1140.11 859.008 C 1140.11 838.192 1130.14 827.659 1124.77 823.549 Z  M 1073.9 888.033 L 1088.22 888.033 C 1098.19 888.033 1121.71 885.978 1121.71 859.519 C 1121.71 831.257 1094.1 830.745 1088.73 830.745 L 1073.9 830.745 L 1073.9 888.033 Z  M 1073.9 966.126 L 1095.63 966.126 C 1106.62 966.126 1117.36 965.354 1125.54 958.94 C 1132.19 954.059 1136.79 945.581 1136.79 935.298 C 1136.79 921.687 1128.87 913.72 1122.22 910.122 C 1115.83 906.534 1106.88 904.99 1093.33 904.99 L 1073.9 904.99 L 1073.9 966.126 Z " fill-rule="evenodd" fill="rgb(255,255,255)"/><path d=" M 1162.88 984.116 L 1191.26 803.254 L 1256.71 947.886 L 1323.43 803.004 L 1350.02 984.116 L 1330.59 984.116 L 1314.48 864.911 L 1256.45 991.302 L 1199.19 864.911 L 1182.31 984.116" fill-rule="evenodd" fill="rgb(255,255,255)"/><path d=" M 1442.25 846.671 C 1439.95 842.051 1436.12 836.909 1432.28 833.832 C 1428.96 831.257 1422.82 827.919 1413.11 827.919 C 1396.23 827.919 1384.47 838.453 1384.47 854.378 C 1384.47 861.063 1386.26 864.911 1390.87 869.281 C 1395.98 874.422 1402.37 877.249 1408.76 880.065 L 1425.12 887.261 C 1435.09 891.631 1444.3 896.251 1451.45 903.447 C 1460.14 912.186 1463.72 922.199 1463.72 934.526 C 1463.72 966.126 1440.46 987.193 1409.78 987.193 C 1398.54 987.193 1384.47 984.878 1372.72 973.322 C 1364.28 965.104 1359.17 953.288 1356.86 943.005 L 1375.27 937.873 C 1376.55 946.863 1380.64 954.57 1385.5 959.702 C 1392.91 967.158 1401.35 969.213 1410.04 969.213 C 1433.3 969.213 1444.3 952.516 1444.3 935.298 C 1444.3 927.591 1441.99 920.916 1435.86 915.263 C 1431 910.643 1424.36 907.556 1415.41 903.447 L 1400.07 896.251 C 1393.42 893.174 1384.99 889.576 1377.32 882.13 C 1369.9 874.934 1365.56 866.966 1365.56 854.127 C 1365.56 827.659 1385.75 809.939 1413.36 809.939 C 1423.84 809.939 1432.28 811.994 1440.72 817.646 C 1447.62 822.267 1453.5 829.202 1457.33 836.659" fill-rule="evenodd" fill="rgb(255,255,255)"/><path d=" M 920.797 739.683 C 920.807 739.122 920.791 738.561 920.745 738.009 C 921.176 738.35 921.597 738.701 922.032 739.042" fill-rule="evenodd" fill="rgb(167,169,172)"/><path d=" M 893.483 715.058 C 893.523 715.068 893.54 715.068 893.574 715.078" fill-rule="evenodd" fill="rgb(167,169,172)"/><path d=" M 941.766 588.367 C 957.15 601.246 967.57 611.158 967.57 611.158 C 983.4 564.344 1005.33 537.795 1023.82 522.851 C 1077.83 503.268 1049.31 607.359 1049.31 607.359 C 1038.88 653.893 977.521 738.49 957.774 764.859 C 958.925 730.162 956.1 595.302 848.261 531.531 C 876.145 536.883 915.717 566.589 941.516 588.157 C 940.275 589.74 939.604 590.612 939.604 590.612" fill-rule="evenodd" fill="rgb(0,0,0)" fill-opacity="0.3333"/><path d=" M 881.731 763.256 C 881.396 763.225 881.758 763.256 881.821 763.256 C 881.789 763.256 889.517 763.175 893.102 762.604 C 893.097 762.604 894.139 762.404 894.659 762.303 C 909.486 759.487 920.369 750.898 920.785 740.284 C 920.787 740.244 920.779 740.204 920.794 740.044 C 920.782 740.124 920.794 739.803 922.032 739.042 C 921.595 739.262 921.176 738.35 920.745 738.009 C 919.858 727.636 909.13 718.697 894.441 715.279 C 832.446 657.02 822.261 609.965 822.261 609.965 C 811.698 567.05 814.546 544.78 824.978 535.71 C 870.807 560.665 948.993 636.624 949.114 783.931 C 920.109 801.38 896.84 805.108 896.84 805.108 C 810.882 815.211 844.132 785.906 879.93 763.125" fill-rule="evenodd" fill="rgb(0,0,0)" fill-opacity="0.3333"/><path d=" M 816.597 868.249 C 816.597 868.249 816.637 868.259 816.687 868.279" fill-rule="evenodd" fill="rgb(167,169,172)"/><path d=" M 939.604 590.612 C 939.604 590.612 940.275 589.74 941.516 588.157 C 941.599 588.227 941.683 588.297 941.766 588.367" fill-rule="evenodd" fill="rgb(167,169,172)"/><path d=" M 928.932 807.033 C 649.633 938.304 840.915 730.122 840.915 730.122 C 730.3 605.174 766.35 524.976 788.47 511.246 C 793.876 507.888 795.423 509.271 795.423 509.271 C 815.284 514.974 832.732 522.601 848.06 531.661 C 955.899 595.433 958.724 730.292 957.573 764.999 C 977.32 738.621 1038.68 654.023 1049.11 607.489 C 1049.11 607.489 1077.62 503.398 1023.62 522.982 C 1006.39 529.226 943.189 586.733 941.596 588.457 C 959.478 565.206 1098.03 394.035 1067.18 585.471 C 1067.18 585.471 1065.94 599.422 1051.05 631.623 C 1036.96 662.081 1010.65 708.895 961.618 775.733 C 957.662 781.125 953.578 786.627 949.32 792.28 L 948.844 792.26 C 948.895 789.504 948.914 786.778 948.912 784.062 C 948.791 636.754 870.606 560.796 824.777 535.85 C 809.226 527.382 797.401 524.786 793.618 527.271 C 727.941 570.387 849.819 720.35 849.819 720.35 L 851.694 723.407 C 851.786 723.357 852.163 723.166 852.169 723.156 C 859.303 717.123 870.761 713.445 883.559 713.946 C 883.682 713.956 891.246 714.617 893.282 715.189 C 893.604 715.259 893.922 715.329 894.24 715.409 C 908.929 718.827 919.657 727.767 920.544 738.14 C 920.583 738.601 920.594 739.623 920.595 739.813 C 920.591 740.214 920.586 740.375 920.579 740.294 C 920.168 751.028 909.286 759.617 894.457 762.434 C 893.939 762.534 892.9 762.734 892.9 762.734 C 889.323 763.306 881.62 763.386 881.62 763.386 C 881.577 763.386 881.39 763.376 881.39 763.376 C 881.39 763.376 881.427 763.376 881.53 763.386 C 880.784 763.336 879.408 763.245 879.409 763.235 C 879.409 763.235 879.503 763.245 879.729 763.256 C 878.107 763.125 876.568 762.945 876.07 762.885 L 876.059 762.885 C 874.145 762.614 872.391 762.273 872.258 762.253 L 872.25 762.253 C 858.904 759.487 848.752 752.462 845.512 743.872 L 838.212 752.201 C 707.353 914.672 934.09 796.72 934.09 796.72 L 928.932 807.033 Z  M 859.8 738.671 C 860.139 730.012 871.352 723.427 884.843 723.958 C 898.334 724.499 908.995 731.946 908.656 740.605 C 908.524 743.943 906.769 746.969 903.893 749.405 C 902.073 750.948 899.807 752.241 897.212 753.233 C 893.28 754.727 888.604 755.508 883.613 755.308 C 870.122 754.777 859.46 747.32 859.8 738.671 Z " fill-rule="evenodd" fill="rgb(255,255,255)"/><path d=" M 852.208 919.312 C 852.09 905.231 854.996 892.563 860.599 880.506 C 867.907 864.771 879.228 852.654 893.821 843.504 C 908.622 834.223 923.204 824.642 935.914 812.505 C 939 809.568 941.767 806.281 945.46 802.322 C 939.411 823.92 928.387 841.359 914.16 857.074 C 927.94 851.251 942.492 846.931 952.843 834.965 C 957.972 829.032 960.726 822.036 963.155 814.76 C 965.774 806.912 968.156 798.935 971.537 791.418 C 976.581 780.213 985.393 772.566 997.173 767.274 C 981.633 787.529 974.937 810.851 968.581 834.313 C 967.62 837.871 966.563 841.399 965.457 844.907 C 961.096 858.748 952.726 869.632 939.804 875.956 C 928.441 881.508 916.422 885.748 904.579 890.278" fill-rule="evenodd" fill="rgb(255,255,255)"/><path d=" M 998.916 776.375 C 994.043 790.065 989.723 802.693 985.004 815.181 C 983.349 819.561 980.84 823.64 978.466 827.699 C 977.459 829.422 975.793 830.755 974.001 831.938" fill-rule="evenodd" fill="rgb(255,255,255)"/><text transform="matrix(1,0,0,1.002,1581,1001.469)" style="font-family:'Apple SD Gothic Neo';font-weight:300;font-size:262.9px;font-style:normal;font-variant-ligatures:none;fill:#FFFFFF;stroke:none;">A</text><text transform="matrix(1,0,0,1.002,1736.618,1001.469)" style="font-family:'Apple SD Gothic Neo';font-weight:300;font-size:262.9px;font-style:normal;font-variant-ligatures:none;fill:#FFFFFF;stroke:none;">p</text><text transform="matrix(1,0,0,1.002,1874.387,1001.469)" style="font-family:'Apple SD Gothic Neo';font-weight:300;font-size:262.9px;font-style:normal;font-variant-ligatures:none;fill:#FFFFFF;stroke:none;">p</text><text transform="matrix(1,0,0,1.002,1807.14,1292.595)" style="font-family:'Apple SD Gothic Neo';font-weight:300;font-size:171.1px;font-style:normal;font-variant-ligatures:none;fill:#FFFFFF;stroke:none;">1</text><text transform="matrix(1,0,0,1.002,1868.216,1292.595)" style="font-family:'Apple SD Gothic Neo';font-weight:300;font-size:171.1px;font-style:normal;font-variant-ligatures:none;fill:#FFFFFF;stroke:none;">.</text><text transform="matrix(1,0,0,1.002,1904.495,1292.595)" style="font-family:'Apple SD Gothic Neo';font-weight:300;font-size:171.1px;font-style:normal;font-variant-ligatures:none;fill:#FFFFFF;stroke:none;">0</text></g></g></svg>