<?xml version="1.0" encoding="UTF-8"?>
<svg width="2737px" height="2731px" viewBox="0 0 2737 2731" version="1.1" xmlns="http://www.w3.org/2000/svg" xmlns:xlink="http://www.w3.org/1999/xlink">
    <!-- Generator: Sketch 53.2 (72643) - https://sketchapp.com -->
    <title>Group 84</title>
    <desc>Created with Sketch.</desc>
    <g id="Page-1" stroke="none" stroke-width="1" fill="none" fill-rule="evenodd">
        <g id="Group-84">
            <polygon id="Fill-1" fill="#A56A03" points="0 2730.92 2736.6 2730.92 2736.6 0 0 0"></polygon>
            <path d="M945.53,2151.656 C941.107,2153.818 938.392,2155.101 934.382,2155.101 C927.974,2155.101 923.424,2151.102 923.424,2145.483 C923.424,2139.918 928.017,2135.956 934.562,2135.956 C938.356,2135.956 941.784,2137.253 945.165,2139.183 L945.165,2132.189 C942.144,2130.351 938.308,2129.428 934.022,2129.428 C922.244,2129.428 915.529,2137.253 915.529,2145.626 C915.529,2153.722 921.477,2161.648 933.435,2161.648 C937.996,2161.648 941.239,2160.764 945.53,2158.511 L945.53,2151.656 Z" id="Fill-2" fill="#FFFFFF"></path>
            <path d="M962.399,2157.681 C965.013,2157.681 967.039,2156.899 970.113,2154.642 L970.113,2158.829 C966.367,2161.648 962.441,2161.648 960.822,2161.648 C953.515,2161.648 948.774,2157.317 948.774,2150.688 C948.774,2144.205 953.335,2139.6 959.743,2139.6 C965.775,2139.6 970.785,2143.972 970.473,2151.693 L955.542,2151.693 C955.764,2155.469 958.293,2157.681 962.399,2157.681 Z M960.187,2143.556 C957.615,2143.556 955.949,2145.256 955.674,2148.204 L964.695,2148.204 C964.431,2145.306 962.711,2143.556 960.187,2143.556 Z" id="Fill-3" fill="#FFFFFF"></path>
            <path d="M980.484,2140.013 L973.949,2140.013 L973.949,2161.232 L980.484,2161.232 L980.484,2147.557 C982.198,2144.935 983.426,2144.062 985.045,2144.062 C986.897,2144.062 988.294,2145.306 988.294,2148.294 L988.294,2161.232 L994.834,2161.232 L994.834,2147.743 C994.834,2141.49 990.5,2139.6 987.257,2139.6 C984.595,2139.6 982.563,2140.61 980.484,2143.05 L980.484,2140.013 Z" id="Fill-4" fill="#FFFFFF"></path>
            <path d="M1014.37,2140.013 L1006.79,2140.013 L1006.79,2133.342 L1005.98,2133.342 L997.268,2143.277 L997.268,2144.563 L1000.25,2144.563 L1000.25,2153.68 C1000.25,2159.614 1003.99,2161.648 1008.32,2161.648 C1010.36,2161.648 1012.06,2161.282 1014.37,2160.301 L1014.37,2155.469 C1012.61,2156.39 1011.34,2156.711 1009.99,2156.711 C1007.96,2156.711 1006.79,2155.382 1006.79,2153.306 L1006.79,2144.563 L1014.37,2144.563 L1014.37,2140.013 Z" id="Fill-5" fill="#FFFFFF"></path>
            <path d="M1023.89,2140.013 L1017.35,2140.013 L1017.35,2161.232 L1023.89,2161.232 L1023.89,2152.07 C1025.33,2148.159 1026.86,2145.857 1029.26,2145.857 C1030.3,2145.857 1031.42,2146.319 1033.13,2147.419 L1034.95,2141.53 C1033.05,2140.104 1031.92,2139.6 1030.61,2139.6 C1028.08,2139.6 1025.92,2141.668 1023.98,2146.088 L1023.89,2146.088 L1023.89,2140.013 Z" id="Fill-6" fill="#FFFFFF"></path>
            <path d="M1048.43,2157.681 C1051.04,2157.681 1053.08,2156.899 1056.14,2154.642 L1056.14,2158.829 C1052.4,2161.648 1048.47,2161.648 1046.85,2161.648 C1039.54,2161.648 1034.8,2157.317 1034.8,2150.688 C1034.8,2144.205 1039.36,2139.6 1045.77,2139.6 C1051.81,2139.6 1056.82,2143.972 1056.5,2151.693 L1041.57,2151.693 C1041.8,2155.469 1044.32,2157.681 1048.43,2157.681 Z M1046.22,2143.556 C1043.65,2143.556 1041.97,2145.256 1041.7,2148.204 L1050.72,2148.204 C1050.45,2145.306 1048.75,2143.556 1046.22,2143.556 Z" id="Fill-7" fill="#FFFFFF"></path>
            <path d="M1079.6,2140.013 L1079.6,2138.677 C1079.6,2135.869 1081.18,2134.946 1083.21,2134.946 C1083.94,2134.946 1084.43,2134.996 1086.14,2135.224 L1086.14,2129.842 C1085.15,2129.706 1083.43,2129.428 1082.17,2129.428 C1076.89,2129.428 1073.06,2132.698 1073.06,2138.95 L1073.06,2140.013 L1070.08,2140.013 L1070.08,2144.563 L1073.06,2144.563 L1073.06,2161.232 L1079.6,2161.232 L1079.6,2144.563 L1082.58,2144.563 L1082.58,2140.013 L1079.6,2140.013 Z" id="Fill-8" fill="#FFFFFF"></path>
            <path d="M1095.62,2139.6 C1100.71,2139.6 1107.3,2142.498 1107.3,2150.638 C1107.3,2159.057 1100.21,2161.648 1095.62,2161.648 C1088.8,2161.648 1083.84,2157.267 1083.84,2150.59 C1083.84,2143.375 1089.48,2139.6 1095.62,2139.6 Z M1095.62,2157.681 C1098.68,2157.681 1100.3,2155.101 1100.3,2150.458 C1100.3,2146.319 1098.91,2143.556 1095.62,2143.556 C1092.77,2143.556 1090.84,2145.81 1090.84,2150.59 C1090.84,2156.071 1093.14,2157.681 1095.62,2157.681 Z" id="Fill-9" fill="#FFFFFF"></path>
            <path d="M1117.54,2140.013 L1111,2140.013 L1111,2161.232 L1117.54,2161.232 L1117.54,2152.07 C1118.98,2148.159 1120.52,2145.857 1122.92,2145.857 C1123.95,2145.857 1125.07,2146.319 1126.79,2147.419 L1128.59,2141.53 C1126.7,2140.104 1125.57,2139.6 1124.26,2139.6 C1121.73,2139.6 1119.57,2141.668 1117.63,2146.088 L1117.54,2146.088 L1117.54,2140.013 Z" id="Fill-10" fill="#FFFFFF"></path>
            <polygon id="Fill-11" fill="#FFFFFF" points="939.504 2195.821 924.546 2195.821 924.546 2188.275 938.514 2188.275 938.514 2182.521 924.546 2182.521 924.546 2175.943 939.186 2175.943 939.186 2170.188 916.91 2170.188 916.91 2201.575 939.504 2201.575"></polygon>
            <path d="M961.827,2195.773 C958.954,2196.882 957.552,2197.245 955.986,2197.245 C952.256,2197.245 949.785,2194.755 949.785,2190.993 C949.785,2187.256 952.308,2184.868 956.214,2184.868 C957.827,2184.868 959.806,2185.374 961.515,2186.299 L961.515,2181.328 C959.356,2180.495 956.658,2179.944 954.552,2179.944 C947.721,2179.944 942.827,2184.549 942.827,2191.035 C942.827,2197.658 947.541,2201.994 954.822,2201.994 C957.023,2201.994 959.219,2201.532 961.827,2200.56 L961.827,2195.773 Z" id="Fill-12" fill="#FFFFFF"></path>
            <path d="M976.156,2179.943 C981.23,2179.943 987.786,2182.839 987.786,2190.992 C987.786,2199.404 980.738,2201.994 976.156,2201.994 C969.372,2201.994 964.431,2197.614 964.431,2190.945 C964.431,2183.722 970.045,2179.943 976.156,2179.943 Z M976.156,2198.035 C979.209,2198.035 980.828,2195.452 980.828,2190.805 C980.828,2186.662 979.431,2183.905 976.156,2183.905 C973.325,2183.905 971.394,2186.153 971.394,2190.945 C971.394,2196.415 973.68,2198.035 976.156,2198.035 Z" id="Fill-13" fill="#FFFFFF"></path>
            <polygon id="Fill-14" fill="#FFFFFF" points="991.426 2201.578 997.9447 2201.578 997.9447 2170.1885 991.426 2170.1885"></polygon>
            <path d="M1013.8,2179.943 C1018.87,2179.943 1025.43,2182.839 1025.43,2190.992 C1025.43,2199.404 1018.37,2201.994 1013.8,2201.994 C1007.01,2201.994 1002.07,2197.614 1002.07,2190.945 C1002.07,2183.722 1007.68,2179.943 1013.8,2179.943 Z M1013.8,2198.035 C1016.85,2198.035 1018.47,2195.452 1018.47,2190.805 C1018.47,2186.662 1017.07,2183.905 1013.8,2183.905 C1010.97,2183.905 1009.03,2186.153 1009.03,2190.945 C1009.03,2196.415 1011.33,2198.035 1013.8,2198.035 Z" id="Fill-15" fill="#FFFFFF"></path>
            <path d="M1037.06,2180.36 L1049.36,2180.36 L1049.36,2184.822 L1046.41,2184.822 C1047.12,2186.114 1047.44,2187.127 1047.44,2188.368 C1047.44,2190.247 1046.68,2191.862 1045.55,2193.015 C1041.87,2196.783 1035.85,2194.577 1035.85,2197.061 C1035.85,2199.504 1043.76,2197.38 1047.17,2200.925 C1048.52,2202.318 1048.83,2203.972 1048.83,2205.033 C1048.83,2209.96 1044.56,2212.163 1037.87,2212.163 C1029.15,2212.163 1026.82,2208.804 1026.82,2205.993 C1026.82,2204.205 1027.77,2201.906 1032.34,2200.703 C1030.95,2200.191 1029.83,2199.361 1029.83,2197.844 C1029.83,2195.59 1032.39,2194.986 1033.6,2194.715 C1030.95,2194.211 1027.81,2191.997 1027.81,2188.086 C1027.81,2185.461 1029.61,2180.36 1037.06,2180.36 Z M1033.87,2188.182 C1033.87,2186.018 1035.49,2184.318 1037.65,2184.318 C1039.89,2184.318 1041.37,2186.018 1041.37,2187.953 C1041.37,2190.162 1039.72,2191.997 1037.65,2191.997 C1035.58,2191.997 1033.87,2190.247 1033.87,2188.182 Z M1042.86,2205.531 C1042.86,2206.961 1041.06,2208.204 1038.18,2208.204 C1034.73,2208.204 1032.84,2207.332 1032.84,2205.717 C1032.84,2204.158 1034.73,2203.193 1037.79,2203.193 C1041.01,2203.193 1042.86,2204.015 1042.86,2205.531 Z" id="Fill-16" fill="#FFFFFF"></path>
            <polygon id="Fill-17" fill="#FFFFFF" points="1072.91 2180.36 1066.09 2180.36 1061.4 2191.265 1057.05 2180.36 1050.08 2180.36 1058.17 2198.12 1052.11 2211.75 1059.03 2211.75"></polygon>
            <path d="M1106.86,2190.203 C1108.25,2188.784 1109.42,2187.076 1110.37,2185.278 L1116.93,2185.278 C1115.12,2189.516 1113.2,2192.464 1110.77,2194.665 L1116.93,2201.578 L1107.62,2201.578 L1105.38,2199.083 C1102.32,2201.069 1099.23,2201.994 1095.76,2201.994 C1090.2,2201.994 1086.06,2198.444 1086.06,2193.708 C1086.06,2190.115 1088.22,2187.304 1092.94,2184.822 C1091.18,2182.29 1090.16,2180.45 1090.16,2177.875 C1090.16,2173.179 1094.11,2169.78 1099.54,2169.78 C1104.75,2169.78 1108.39,2172.864 1108.39,2177.228 C1108.39,2180.264 1106.41,2183.027 1102.68,2185.278 L1106.86,2190.203 Z M1099.36,2181.559 C1097.88,2180.225 1096.75,2178.522 1096.75,2177.366 C1096.75,2175.993 1097.93,2174.977 1099.58,2174.977 C1101.24,2174.977 1102.42,2176.081 1102.42,2177.597 C1102.42,2179.116 1101.57,2180.225 1099.36,2181.559 Z M1101.84,2195.034 C1100.34,2196.094 1098.5,2196.783 1097.12,2196.783 C1095.01,2196.783 1093.25,2195.132 1093.25,2193.106 C1093.25,2191.634 1094.24,2190.298 1096.39,2188.869 L1101.84,2195.034 Z" id="Fill-18" fill="#FFFFFF"></path>
            <polygon id="Fill-19" fill="#FFFFFF" points="1163.06 2170.188 1155.41 2170.188 1155.41 2182.794 1140.14 2182.794 1140.14 2170.188 1132.51 2170.188 1132.51 2201.578 1140.14 2201.578 1140.14 2188.869 1155.41 2188.869 1155.41 2201.578 1163.06 2201.578"></polygon>
            <polygon id="Fill-20" fill="#FFFFFF" points="1188.16 2180.36 1181.33 2180.36 1176.66 2191.265 1172.3 2180.36 1165.34 2180.36 1173.42 2198.12 1167.37 2211.75 1174.29 2211.75"></polygon>
            <path d="M1204.51,2170.188 L1211.02,2170.188 L1211.02,2201.575 L1204.51,2201.575 L1204.51,2199.865 C1202.67,2201.389 1200.96,2201.994 1198.75,2201.994 C1193.19,2201.994 1189.06,2197.295 1189.06,2190.945 C1189.06,2184.451 1193.19,2179.943 1199.12,2179.943 C1201.01,2179.943 1202.76,2180.407 1204.51,2181.277 L1204.51,2170.188 Z M1200.65,2197.523 C1202.04,2197.523 1203.16,2197.014 1204.51,2195.773 L1204.51,2185.652 C1203.56,2184.957 1202.04,2184.409 1200.87,2184.409 C1197.59,2184.409 1195.66,2186.85 1195.66,2191.08 C1195.66,2194.946 1197.59,2197.523 1200.65,2197.523 Z" id="Fill-21" fill="#FFFFFF"></path>
            <path d="M1222.25,2180.36 L1215.74,2180.36 L1215.74,2201.578 L1222.25,2201.578 L1222.25,2192.414 C1223.69,2188.5 1225.22,2186.201 1227.6,2186.201 C1228.62,2186.201 1229.75,2186.662 1231.46,2187.771 L1233.25,2181.884 C1231.37,2180.45 1230.24,2179.944 1228.95,2179.944 C1226.43,2179.944 1224.27,2182.014 1222.34,2186.437 L1222.25,2186.437 L1222.25,2180.36 Z" id="Fill-22" fill="#FFFFFF"></path>
            <path d="M1244.62,2179.943 C1249.69,2179.943 1256.25,2182.839 1256.25,2190.992 C1256.25,2199.404 1249.2,2201.994 1244.62,2201.994 C1237.84,2201.994 1232.89,2197.614 1232.89,2190.945 C1232.89,2183.722 1238.52,2179.943 1244.62,2179.943 Z M1244.62,2198.035 C1247.67,2198.035 1249.3,2195.452 1249.3,2190.805 C1249.3,2186.662 1247.9,2183.905 1244.62,2183.905 C1241.79,2183.905 1239.86,2186.153 1239.86,2190.945 C1239.86,2196.415 1242.15,2198.035 1244.62,2198.035 Z" id="Fill-23" fill="#FFFFFF"></path>
            <polygon id="Fill-24" fill="#FFFFFF" points="1259.89 2201.578 1266.3979 2201.578 1266.3979 2170.1885 1259.89 2170.1885"></polygon>
            <path d="M1282.27,2179.943 C1287.34,2179.943 1293.9,2182.839 1293.9,2190.992 C1293.9,2199.404 1286.84,2201.994 1282.27,2201.994 C1275.48,2201.994 1270.54,2197.614 1270.54,2190.945 C1270.54,2183.722 1276.15,2179.943 1282.27,2179.943 Z M1282.27,2198.035 C1285.32,2198.035 1286.93,2195.452 1286.93,2190.805 C1286.93,2186.662 1285.54,2183.905 1282.27,2183.905 C1279.43,2183.905 1277.5,2186.153 1277.5,2190.945 C1277.5,2196.415 1279.79,2198.035 1282.27,2198.035 Z" id="Fill-25" fill="#FFFFFF"></path>
            <path d="M1305.52,2180.36 L1317.83,2180.36 L1317.83,2184.822 L1314.86,2184.822 C1315.58,2186.114 1315.9,2187.127 1315.9,2188.368 C1315.9,2190.247 1315.14,2191.862 1314.02,2193.015 C1310.33,2196.783 1304.31,2194.577 1304.31,2197.061 C1304.31,2199.504 1312.22,2197.38 1315.64,2200.925 C1316.98,2202.318 1317.3,2203.972 1317.3,2205.033 C1317.3,2209.96 1313.02,2212.163 1306.33,2212.163 C1297.62,2212.163 1295.28,2208.804 1295.28,2205.993 C1295.28,2204.205 1296.23,2201.906 1300.81,2200.703 C1299.41,2200.191 1298.3,2199.361 1298.3,2197.844 C1298.3,2195.59 1300.86,2194.986 1302.07,2194.715 C1299.41,2194.211 1296.28,2191.997 1296.28,2188.086 C1296.28,2185.461 1298.07,2180.36 1305.52,2180.36 Z M1302.34,2188.182 C1302.34,2186.018 1303.96,2184.318 1306.11,2184.318 C1308.36,2184.318 1309.84,2186.018 1309.84,2187.953 C1309.84,2190.162 1308.18,2191.997 1306.11,2191.997 C1304.04,2191.997 1302.34,2190.247 1302.34,2188.182 Z M1311.32,2205.531 C1311.32,2206.961 1309.53,2208.204 1306.65,2208.204 C1303.19,2208.204 1301.31,2207.332 1301.31,2205.717 C1301.31,2204.158 1303.19,2203.193 1306.24,2203.193 C1309.48,2203.193 1311.32,2204.015 1311.32,2205.531 Z" id="Fill-26" fill="#FFFFFF"></path>
            <polygon id="Fill-27" fill="#FFFFFF" points="1341.37 2180.36 1334.54 2180.36 1329.88 2191.265 1325.52 2180.36 1318.55 2180.36 1326.64 2198.12 1320.57 2211.75 1327.49 2211.75"></polygon>
            <polygon id="Fill-28" fill="#FFFFFF" points="928.963 2233.066 925.519 2233.066 925.519 2240.907 918.138 2233.066 914.968 2233.066 914.968 2245.897 918.413 2245.897 918.413 2237.674 926.059 2245.897 928.963 2245.897"></polygon>
            <path d="M935.636,2233.066 L939.636,2233.066 L945.779,2245.896 L942.07,2245.896 L940.932,2243.354 L934.742,2243.354 L933.715,2245.896 L930.059,2245.896 L935.636,2233.066 Z M935.652,2241.113 L939.916,2241.113 L937.689,2236.136 L935.652,2241.113 Z" id="Fill-29" fill="#FFFFFF"></path>
            <polygon id="Fill-30" fill="#FFFFFF" points="956.954 2233.066 943.488 2233.066 943.488 2235.412 948.499 2235.412 948.499 2245.897 951.949 2245.897 951.949 2235.412 956.954 2235.412"></polygon>
            <path d="M968.86,2233.066 L968.86,2240.206 C968.86,2242.508 967.182,2243.397 965.357,2243.397 C963.361,2243.397 961.922,2242.274 961.922,2240.434 L961.922,2233.066 L958.473,2233.066 L958.473,2240.363 C958.473,2244.33 961.378,2246.064 965.393,2246.064 C969.187,2246.064 972.304,2244.595 972.304,2240.349 L972.304,2233.066 L968.86,2233.066 Z" id="Fill-31" fill="#FFFFFF"></path>
            <path d="M974.759,2245.896 L974.759,2233.066 L980.944,2233.066 C983.786,2233.066 985.474,2234.832 985.474,2236.749 C985.474,2238.162 984.685,2239.217 983.092,2239.891 C984.516,2240.548 984.945,2242.129 986.886,2245.896 L983.092,2245.896 C981.621,2243.147 981.071,2240.687 979.209,2240.687 L978.209,2240.687 L978.209,2245.896 L974.759,2245.896 Z M979.955,2235.412 L978.209,2235.412 L978.209,2238.329 L980.034,2238.329 C980.987,2238.329 981.923,2237.955 981.923,2236.869 C981.923,2235.911 981.251,2235.412 979.955,2235.412 Z" id="Fill-32" fill="#FFFFFF"></path>
            <path d="M992.162,2233.066 L996.167,2233.066 L1002.3,2245.896 L998.59,2245.896 L997.458,2243.354 L991.272,2243.354 L990.236,2245.896 L986.584,2245.896 L992.162,2233.066 Z M992.188,2241.113 L996.447,2241.113 L994.215,2236.136 L992.188,2241.113 Z" id="Fill-33" fill="#FFFFFF"></path>
            <polygon id="Fill-34" fill="#FFFFFF" points="1013.97 2243.537 1006.87 2243.537 1006.87 2233.066 1003.43 2233.066 1003.43 2245.891 1013.97 2245.891"></polygon>
            <polygon id="Fill-35" fill="#FFFFFF" points="1031.21 2243.537 1024.46 2243.537 1024.46 2240.453 1030.77 2240.453 1030.77 2238.107 1024.46 2238.107 1024.46 2235.412 1031.06 2235.412 1031.06 2233.066 1021 2233.066 1021 2245.891 1031.21 2245.891"></polygon>
            <polygon id="Fill-36" fill="#FFFFFF" points="1047.45 2233.066 1044.01 2233.066 1044.01 2240.907 1036.63 2233.066 1033.46 2233.066 1033.46 2245.897 1036.91 2245.897 1036.91 2237.674 1044.55 2245.897 1047.45 2245.897"></polygon>
            <polygon id="Fill-37" fill="#FFFFFF" points="1063.07 2233.066 1059.36 2233.066 1055.9 2240.384 1052.24 2233.066 1048.49 2233.066 1055.19 2246.064 1056.68 2246.064"></polygon>
            <polygon id="Fill-38" fill="#FFFFFF" points="1064.29 2245.897 1067.7393 2245.897 1067.7393 2233.0662 1064.29 2233.0662"></polygon>
            <path d="M1070.72,2245.896 L1070.72,2233.066 L1076.9,2233.066 C1079.75,2233.066 1081.42,2234.832 1081.42,2236.749 C1081.42,2238.162 1080.64,2239.217 1079.05,2239.891 C1080.48,2240.548 1080.9,2242.129 1082.85,2245.896 L1079.05,2245.896 C1077.58,2243.147 1077.04,2240.687 1075.16,2240.687 L1074.17,2240.687 L1074.17,2245.896 L1070.72,2245.896 Z M1075.92,2235.412 L1074.17,2235.412 L1074.17,2238.329 L1075.99,2238.329 C1076.95,2238.329 1077.88,2237.955 1077.88,2236.869 C1077.88,2235.911 1077.21,2235.412 1075.92,2235.412 Z" id="Fill-39" fill="#FFFFFF"></path>
            <path d="M1091.07,2232.896 C1096.28,2232.896 1098.97,2236.396 1098.97,2239.474 C1098.97,2242.768 1096.04,2246.064 1091.07,2246.064 C1085.99,2246.064 1083.13,2242.749 1083.13,2239.474 C1083.13,2236.378 1085.85,2232.896 1091.07,2232.896 Z M1091.07,2243.396 C1093.68,2243.396 1095.42,2241.829 1095.42,2239.474 C1095.42,2237.128 1093.68,2235.574 1091.07,2235.574 C1088.42,2235.574 1086.68,2237.128 1086.68,2239.474 C1086.68,2241.829 1088.42,2243.396 1091.07,2243.396 Z" id="Fill-40" fill="#FFFFFF"></path>
            <polygon id="Fill-41" fill="#FFFFFF" points="1114.94 2233.066 1111.49 2233.066 1111.49 2240.907 1104.11 2233.066 1100.94 2233.066 1100.94 2245.897 1104.39 2245.897 1104.39 2237.674 1112.04 2245.897 1114.94 2245.897"></polygon>
            <polygon id="Fill-42" fill="#FFFFFF" points="1124.95 2237.823 1120.52 2233.066 1117.51 2233.066 1117.51 2245.897 1120.96 2245.897 1120.96 2237.878 1124.69 2241.903 1125.22 2241.903 1128.95 2237.878 1128.95 2245.897 1132.4 2245.897 1132.4 2233.066 1129.4 2233.066"></polygon>
            <polygon id="Fill-43" fill="#FFFFFF" points="1145.14 2243.537 1138.39 2243.537 1138.39 2240.453 1144.69 2240.453 1144.69 2238.107 1138.39 2238.107 1138.39 2235.412 1145 2235.412 1145 2233.066 1134.94 2233.066 1134.94 2245.891 1145.14 2245.891"></polygon>
            <polygon id="Fill-44" fill="#FFFFFF" points="1161.38 2233.066 1157.93 2233.066 1157.93 2240.907 1150.55 2233.066 1147.39 2233.066 1147.39 2245.897 1150.84 2245.897 1150.84 2237.674 1158.48 2245.897 1161.38 2245.897"></polygon>
            <polygon id="Fill-45" fill="#FFFFFF" points="1176.45 2233.066 1162.99 2233.066 1162.99 2235.412 1167.99 2235.412 1167.99 2245.897 1171.45 2245.897 1171.45 2235.412 1176.45 2235.412"></polygon>
            <path d="M1183.55,2245.896 L1183.55,2233.066 L1189.74,2233.066 C1192.58,2233.066 1194.27,2234.832 1194.27,2236.749 C1194.27,2238.162 1193.47,2239.217 1191.89,2239.891 C1193.31,2240.548 1193.73,2242.129 1195.68,2245.896 L1191.89,2245.896 C1190.41,2243.147 1189.86,2240.687 1188,2240.687 L1187.01,2240.687 L1187.01,2245.896 L1183.55,2245.896 Z M1188.74,2235.412 L1187.01,2235.412 L1187.01,2238.329 L1188.82,2238.329 C1189.78,2238.329 1190.72,2237.955 1190.72,2236.869 C1190.72,2235.911 1190.05,2235.412 1188.74,2235.412 Z" id="Fill-46" fill="#FFFFFF"></path>
            <polygon id="Fill-47" fill="#FFFFFF" points="1207.1 2243.537 1200.35 2243.537 1200.35 2240.453 1206.65 2240.453 1206.65 2238.107 1200.35 2238.107 1200.35 2235.412 1206.96 2235.412 1206.96 2233.066 1196.91 2233.066 1196.91 2245.891 1207.1 2245.891"></polygon>
            <path d="M1218.62,2233.896 C1216.88,2233.201 1215.48,2232.896 1213.94,2232.896 C1210.73,2232.896 1208.67,2234.37 1208.67,2236.585 C1208.67,2241.19 1215.7,2240.421 1215.7,2242.524 C1215.7,2243.277 1214.99,2243.712 1213.68,2243.712 C1212.15,2243.712 1210.94,2243.277 1208.95,2242.057 L1208.95,2244.817 C1210.33,2245.475 1211.52,2246.064 1213.94,2246.064 C1217.02,2246.064 1219.25,2244.632 1219.25,2242.169 C1219.25,2237.698 1212.22,2238.239 1212.22,2236.301 C1212.22,2235.659 1213,2235.251 1214.24,2235.251 C1215.42,2235.251 1216.61,2235.574 1218.62,2236.396 L1218.62,2233.896 Z" id="Fill-48" fill="#FFFFFF"></path>
            <polygon id="Fill-49" fill="#FFFFFF" points="1231.45 2243.537 1224.69 2243.537 1224.69 2240.453 1231 2240.453 1231 2238.107 1224.69 2238.107 1224.69 2235.412 1231.3 2235.412 1231.3 2233.066 1221.24 2233.066 1221.24 2245.891 1231.45 2245.891"></polygon>
            <path d="M1237.77,2233.066 L1241.77,2233.066 L1247.91,2245.896 L1244.21,2245.896 L1243.07,2243.354 L1236.88,2243.354 L1235.85,2245.896 L1232.19,2245.896 L1237.77,2233.066 Z M1237.79,2241.113 L1242.05,2241.113 L1239.81,2236.136 L1237.79,2241.113 Z" id="Fill-50" fill="#FFFFFF"></path>
            <path d="M1249.03,2245.896 L1249.03,2233.066 L1255.22,2233.066 C1258.06,2233.066 1259.74,2234.832 1259.74,2236.749 C1259.74,2238.162 1258.95,2239.217 1257.37,2239.891 C1258.79,2240.548 1259.21,2242.129 1261.15,2245.896 L1257.37,2245.896 C1255.88,2243.147 1255.33,2240.687 1253.47,2240.687 L1252.48,2240.687 L1252.48,2245.896 L1249.03,2245.896 Z M1254.23,2235.412 L1252.48,2235.412 L1252.48,2238.329 L1254.3,2238.329 C1255.25,2238.329 1256.19,2237.955 1256.19,2236.869 C1256.19,2235.911 1255.52,2235.412 1254.23,2235.412 Z" id="Fill-51" fill="#FFFFFF"></path>
            <path d="M1275.24,2241.978 C1273.24,2242.864 1272.03,2243.397 1270.22,2243.397 C1267.34,2243.397 1265.3,2241.752 1265.3,2239.459 C1265.3,2237.183 1267.36,2235.574 1270.31,2235.574 C1272.01,2235.574 1273.55,2236.099 1275.07,2236.889 L1275.07,2234.023 C1273.71,2233.273 1271.98,2232.896 1270.06,2232.896 C1264.77,2232.896 1261.75,2236.099 1261.75,2239.52 C1261.75,2242.824 1264.42,2246.064 1269.8,2246.064 C1271.84,2246.064 1273.3,2245.7 1275.24,2244.783 L1275.24,2241.978 Z" id="Fill-52" fill="#FFFFFF"></path>
            <polygon id="Fill-53" fill="#FFFFFF" points="1291.3 2233.066 1287.85 2233.066 1287.85 2238.223 1280.95 2238.223 1280.95 2233.066 1277.5 2233.066 1277.5 2245.897 1280.95 2245.897 1280.95 2240.7 1287.85 2240.7 1287.85 2245.897 1291.3 2245.897"></polygon>
            <path d="M1312.21,2241.978 C1310.22,2242.864 1309,2243.397 1307.2,2243.397 C1304.32,2243.397 1302.27,2241.752 1302.27,2239.459 C1302.27,2237.183 1304.34,2235.574 1307.28,2235.574 C1308.98,2235.574 1310.53,2236.099 1312.05,2236.889 L1312.05,2234.023 C1310.68,2233.273 1308.96,2232.896 1307.03,2232.896 C1301.74,2232.896 1298.72,2236.099 1298.72,2239.52 C1298.72,2242.824 1301.4,2246.064 1306.77,2246.064 C1308.83,2246.064 1310.28,2245.7 1312.21,2244.783 L1312.21,2241.978 Z" id="Fill-54" fill="#FFFFFF"></path>
            <path d="M1321.81,2232.896 C1327.02,2232.896 1329.72,2236.396 1329.72,2239.474 C1329.72,2242.768 1326.78,2246.064 1321.81,2246.064 C1316.73,2246.064 1313.88,2242.749 1313.88,2239.474 C1313.88,2236.378 1316.6,2232.896 1321.81,2232.896 Z M1321.81,2243.396 C1324.42,2243.396 1326.17,2241.829 1326.17,2239.474 C1326.17,2237.128 1324.42,2235.574 1321.81,2235.574 C1319.17,2235.574 1317.42,2237.128 1317.42,2239.474 C1317.42,2241.829 1319.17,2243.396 1321.81,2243.396 Z" id="Fill-55" fill="#FFFFFF"></path>
            <path d="M1341.92,2233.066 L1341.92,2240.206 C1341.92,2242.508 1340.24,2243.397 1338.42,2243.397 C1336.43,2243.397 1334.99,2242.274 1334.99,2240.434 L1334.99,2233.066 L1331.54,2233.066 L1331.54,2240.363 C1331.54,2244.33 1334.44,2246.064 1338.46,2246.064 C1342.25,2246.064 1345.37,2244.595 1345.37,2240.349 L1345.37,2233.066 L1341.92,2233.066 Z" id="Fill-56" fill="#FFFFFF"></path>
            <polygon id="Fill-57" fill="#FFFFFF" points="1361.84 2233.066 1358.39 2233.066 1358.39 2240.907 1351.01 2233.066 1347.85 2233.066 1347.85 2245.897 1351.29 2245.897 1351.29 2237.674 1358.94 2245.897 1361.84 2245.897"></polygon>
            <path d="M1377.31,2241.978 C1375.33,2242.864 1374.11,2243.397 1372.31,2243.397 C1369.43,2243.397 1367.38,2241.752 1367.38,2239.459 C1367.38,2237.183 1369.44,2235.574 1372.39,2235.574 C1374.09,2235.574 1375.63,2236.099 1377.16,2236.889 L1377.16,2234.023 C1375.8,2233.273 1374.07,2232.896 1372.15,2232.896 C1366.85,2232.896 1363.82,2236.099 1363.82,2239.52 C1363.82,2242.824 1366.51,2246.064 1371.88,2246.064 C1373.92,2246.064 1375.38,2245.7 1377.31,2244.783 L1377.31,2241.978 Z" id="Fill-58" fill="#FFFFFF"></path>
            <polygon id="Fill-59" fill="#FFFFFF" points="1379.69 2245.897 1383.1346 2245.897 1383.1346 2233.0662 1379.69 2233.0662"></polygon>
            <polygon id="Fill-60" fill="#FFFFFF" points="1396.67 2243.537 1389.57 2243.537 1389.57 2233.066 1386.13 2233.066 1386.13 2245.891 1396.67 2245.891"></polygon>
            <path d="M779.49,2196.918 C777.342,2198.863 774.808,2199.849 771.939,2199.849 C768.447,2199.849 765.532,2198.544 763.278,2195.972 C761.045,2193.435 759.912,2190.083 759.912,2186.01 C759.912,2182.144 760.971,2178.766 763.067,2175.974 C765.209,2173.111 768.389,2171.66 772.538,2171.66 C777.437,2171.66 780.961,2174.216 783.02,2179.244 L788.422,2179.244 L788.422,2166.768 L783.278,2166.768 L783.278,2169.074 L781.993,2169.698 C778.945,2167.333 775.088,2166.134 770.538,2166.134 C766.86,2166.134 763.437,2166.911 760.357,2168.449 C757.314,2169.966 754.849,2172.265 753.05,2175.282 C751.238,2178.305 750.32,2181.884 750.32,2185.931 C750.32,2191.61 752.09,2196.356 755.568,2200.057 C759.035,2203.734 764.288,2205.611 771.199,2205.611 C780.797,2205.611 786.924,2201.456 789.898,2192.907 L783.57,2189.884 C782.776,2192.812 781.406,2195.179 779.49,2196.918 Z" id="Fill-61" fill="#FFFFFF"></path>
            <polygon id="Fill-62" fill="#FFFFFF" points="828.741 2177.836 828.741 2166.768 795.194 2166.768 795.194 2171.92 799.189 2171.92 799.983 2172.718 799.983 2199.165 799.189 2199.96 795.194 2199.96 795.194 2205.118 828.741 2205.118 828.741 2193.986 822.709 2193.986 822.709 2199.165 821.91 2199.96 809.561 2199.96 808.761 2199.165 808.761 2188.688 809.561 2187.888 818.74 2187.888 818.74 2182.73 809.603 2182.73 808.973 2181.627 808.761 2181.235 808.761 2172.718 809.561 2171.92 821.91 2171.92 822.709 2172.718 822.709 2177.836"></polygon>
            <polygon id="Fill-63" fill="#FFFFFF" points="851.864 2199.96 848.472 2199.96 847.683 2199.165 847.683 2188.254 848.472 2187.453 859.34 2187.453 860.128 2188.254 860.128 2199.165 859.34 2199.96 856.091 2199.96 856.091 2205.118 873.61 2205.118 873.61 2199.96 869.419 2199.96 868.626 2199.165 868.626 2172.718 869.419 2171.92 873.61 2171.92 873.61 2166.768 856.091 2166.768 856.091 2171.92 859.34 2171.92 860.128 2172.718 860.128 2181.474 859.34 2182.274 848.472 2182.274 847.683 2181.474 847.683 2172.718 848.472 2171.92 851.864 2171.92 851.864 2166.768 834.196 2166.768 834.196 2171.92 838.392 2171.92 839.18 2172.718 839.18 2199.165 838.392 2199.96 834.196 2199.96 834.196 2205.118 851.864 2205.118"></polygon>
            <path d="M740.375,2181.706 C742.42,2142.921 774.543,2111.996 813.743,2111.996 C854.258,2111.996 887.219,2145.031 887.219,2185.637 C887.219,2185.697 887.214,2185.944 887.2,2186.358 C886.811,2226.632 854.017,2259.279 813.743,2259.279 C804.771,2259.279 796.169,2255.666 788.214,2250.041 C796.116,2253.199 804.731,2254.936 813.743,2254.936 C833.958,2254.936 852.175,2246.194 864.829,2232.286 C861.853,2233.499 858.493,2234.203 854.678,2234.203 C844.297,2234.203 834.667,2223.701 824.823,2208.527 L829.974,2208.527 C837.887,2220.298 846.498,2229.86 854.678,2229.86 C880.427,2229.86 882.865,2186.21 882.87,2186.213 C882.885,2147.427 851.868,2116.34 813.743,2116.34 C793.528,2116.34 775.316,2125.081 762.659,2138.987 C765.638,2137.775 768.993,2137.073 772.807,2137.073 C783.307,2137.073 793.036,2147.822 802.999,2163.275 L797.866,2163.275 C789.861,2151.261 781.112,2141.416 772.807,2141.416 C760.741,2141.416 753.815,2149.767 749.838,2159.211 C749.538,2159.937 749.248,2160.668 748.973,2161.406 C746.279,2168.701 745.204,2176.291 744.775,2180.994 C744.671,2182.53 744.601,2184.076 744.601,2185.637 C744.601,2189.094 744.855,2192.493 745.345,2195.816 C742.071,2189.656 740.27,2185.636 740.268,2185.637 C740.268,2185.627 740.156,2185.605 740.156,2185.605 C740.156,2185.522 740.184,2184.053 740.375,2181.706 Z M745.345,2195.816 C748.991,2220.538 765.711,2241.05 788.214,2250.042 C768.642,2236.203 752.983,2210.184 745.345,2195.816 Z" id="Fill-64" fill="#FFFFFF"></path>
            <polygon id="Fill-65" fill-opacity="0" fill="#000000" points="781.099 2517.335 1235.57 2517.335 1235.57 2398.599 781.099 2398.599"></polygon>
            <path d="M777.005,2521.43 L1239.665,2521.43 L1239.665,2394.506 L777.005,2394.506 L777.005,2521.43 Z M785.194,2513.241 L1231.476,2513.241 L1231.476,2402.694 L785.194,2402.694 L785.194,2513.241 Z" id="Fill-66" fill="#FFFFFF"></path>
            <polygon id="Fill-67" fill-opacity="0" fill="#000000" points="1493.51 2517.335 1947.981 2517.335 1947.981 2398.599 1493.51 2398.599"></polygon>
            <path d="M1489.42,2521.43 L1952.08,2521.43 L1952.08,2394.506 L1489.42,2394.506 L1489.42,2521.43 Z M1497.61,2513.241 L1943.893,2513.241 L1943.893,2402.694 L1497.61,2402.694 L1497.61,2513.241 Z" id="Fill-68" fill="#FFFFFF"></path>
            <polygon id="Fill-69" fill-opacity="0" fill="#000000" points="1497.61 2255.298 1952.081 2255.298 1952.081 2136.562 1497.61 2136.562"></polygon>
            <path d="M1493.51,2259.392 L1956.17,2259.392 L1956.17,2132.468 L1493.51,2132.468 L1493.51,2259.392 Z M1501.7,2251.203 L1947.983,2251.203 L1947.983,2140.656 L1501.7,2140.656 L1501.7,2251.203 Z" id="Fill-70" fill="#FFFFFF"></path>
            <path d="M1026.36,971.93 C1031.73,967.06 1036.33,960.65 1039.39,954.75 L1024.06,946.3 C1021.76,951.42 1017.92,956.81 1013.06,960.91 C1006.93,966.03 1000.03,968.6 991.334,968.6 C972.928,968.6 957.844,954.5 957.589,932.45 L1040.16,932.45 C1040.67,918.36 1036.84,901.95 1030.19,892.47 C1023.8,883.24 1010.76,872.99 990.055,872.99 C958.1,872.99 938.67,897.6 938.67,929.38 C938.67,968.85 965.514,985 991.079,985 C1004.63,985 1016.64,980.64 1026.36,971.93 M990.055,889.39 C1005.65,889.39 1018.18,900.41 1021.24,917.08 L958.866,917.08 C961.679,901.18 974.461,889.39 990.055,889.39" id="Fill-71" fill="#FFFFFF"></path>
            <path d="M1124.77,821.72 C1112.25,811.73 1095.12,810.96 1085.66,810.96 L1054.98,810.96 L1054.98,981.93 L1097.42,981.93 C1109.18,981.93 1124.77,981.41 1138.32,970.65 C1147.53,963.47 1155.71,950.14 1155.71,933.74 C1155.71,917.33 1147.02,896.57 1123.24,890.67 C1138.32,880.42 1140.11,865.55 1140.11,857.1 C1140.11,836.33 1130.14,825.82 1124.77,821.72 M1073.9,886.06 L1088.22,886.06 C1098.19,886.06 1121.71,884.01 1121.71,857.61 C1121.71,829.41 1094.1,828.9 1088.73,828.9 L1073.9,828.9 L1073.9,886.06 M1073.9,963.98 L1095.63,963.98 C1106.62,963.98 1117.36,963.21 1125.54,956.81 C1132.19,951.94 1136.79,943.48 1136.79,933.22 C1136.79,919.64 1128.87,911.69 1122.22,908.1 C1115.83,904.52 1106.88,902.98 1093.33,902.98 L1073.9,902.98 L1073.9,963.98" id="Fill-72" fill="#FFFFFF"></path>
            <polyline id="Fill-73" fill="#FFFFFF" points="1162.88 981.93 1191.26 801.47 1256.71 945.78 1323.43 801.22 1350.02 981.93 1330.59 981.93 1314.48 862.99 1256.45 989.1 1199.19 862.99 1182.31 981.93"></polyline>
            <path d="M1442.25,844.79 C1439.95,840.18 1436.12,835.05 1432.28,831.98 C1428.96,829.41 1422.82,826.08 1413.11,826.08 C1396.23,826.08 1384.47,836.59 1384.47,852.48 C1384.47,859.15 1386.26,862.99 1390.87,867.35 C1395.98,872.48 1402.37,875.3 1408.76,878.11 L1425.12,885.29 C1435.09,889.65 1444.3,894.26 1451.45,901.44 C1460.14,910.16 1463.72,920.15 1463.72,932.45 C1463.72,963.98 1440.46,985 1409.78,985 C1398.54,985 1384.47,982.69 1372.72,971.16 C1364.28,962.96 1359.17,951.17 1356.86,940.91 L1375.27,935.79 C1376.55,944.76 1380.64,952.45 1385.5,957.57 C1392.91,965.01 1401.35,967.06 1410.04,967.06 C1433.3,967.06 1444.3,950.4 1444.3,933.22 C1444.3,925.53 1441.99,918.87 1435.86,913.23 C1431,908.62 1424.36,905.54 1415.41,901.44 L1400.07,894.26 C1393.42,891.19 1384.99,887.6 1377.32,880.17 C1369.9,872.99 1365.56,865.04 1365.56,852.23 C1365.56,825.82 1385.75,808.14 1413.36,808.14 C1423.84,808.14 1432.28,810.19 1440.72,815.83 C1447.62,820.44 1453.5,827.36 1457.33,834.8" id="Fill-74" fill="#FFFFFF"></path>
            <path d="M920.797,738.04 C920.807,737.48 920.791,736.92 920.745,736.37 C921.176,736.71 921.597,737.06 922.032,737.4" id="Fill-75" fill="#A7A9AC"></path>
            <path d="M893.483,713.47 C893.523,713.48 893.54,713.48 893.574,713.49" id="Fill-76" fill="#A7A9AC"></path>
            <path d="M941.766,587.06 C957.15,599.91 967.57,609.8 967.57,609.8 C983.4,563.09 1005.33,536.6 1023.82,521.69 C1077.83,502.15 1049.31,606.01 1049.31,606.01 C1038.88,652.44 977.521,736.85 957.774,763.16 C958.925,728.54 956.1,593.98 848.261,530.35 C876.145,535.69 915.717,565.33 941.516,586.85 C940.275,588.43 939.604,589.3 939.604,589.3" id="Fill-77" fill-opacity="0.3333" fill="#000000"></path>
            <path d="M881.731,761.56 C881.396,761.53 881.758,761.56 881.821,761.56 C881.789,761.56 889.517,761.48 893.102,760.91 C893.097,760.91 894.139,760.71 894.659,760.61 C909.486,757.8 920.369,749.23 920.785,738.64 C920.787,738.6 920.779,738.56 920.794,738.4 C920.782,738.48 920.794,738.16 922.032,737.4 C921.595,737.62 921.176,736.71 920.745,736.37 C919.858,726.02 909.13,717.1 894.441,713.69 C832.446,655.56 822.261,608.61 822.261,608.61 C811.698,565.79 814.546,543.57 824.978,534.52 C870.807,559.42 948.993,635.21 949.114,782.19 C920.109,799.6 896.84,803.32 896.84,803.32 C810.882,813.4 844.132,784.16 879.93,761.43" id="Fill-78" fill-opacity="0.3333" fill="#000000"></path>
            <path d="M816.597,866.32 C816.597,866.32 816.637,866.33 816.687,866.35" id="Fill-79" fill="#A7A9AC"></path>
            <path d="M939.604,589.3 C939.604,589.3 940.275,588.43 941.516,586.85 C941.599,586.92 941.683,586.99 941.766,587.06" id="Fill-80" fill="#A7A9AC"></path>
            <path d="M928.932,805.24 C649.633,936.22 840.915,728.5 840.915,728.5 C730.3,603.83 766.35,523.81 788.47,510.11 C793.876,506.76 795.423,508.14 795.423,508.14 C815.284,513.83 832.732,521.44 848.06,530.48 C955.899,594.11 958.724,728.67 957.573,763.3 C977.32,736.98 1038.68,652.57 1049.11,606.14 C1049.11,606.14 1077.62,502.28 1023.62,521.82 C1006.39,528.05 943.189,585.43 941.596,587.15 C959.478,563.95 1098.03,393.16 1067.18,584.17 C1067.18,584.17 1065.94,598.09 1051.05,630.22 C1036.96,660.61 1010.65,707.32 961.618,774.01 C957.662,779.39 953.578,784.88 949.32,790.52 L948.844,790.5 C948.895,787.75 948.914,785.03 948.912,782.32 C948.791,635.34 870.606,559.55 824.777,534.66 C809.226,526.21 797.401,523.62 793.618,526.1 C727.941,569.12 849.819,718.75 849.819,718.75 L851.694,721.8 C851.786,721.75 852.163,721.56 852.169,721.55 C859.303,715.53 870.761,711.86 883.559,712.36 C883.682,712.37 891.246,713.03 893.282,713.6 C893.604,713.67 893.922,713.74 894.24,713.82 C908.929,717.23 919.657,726.15 920.544,736.5 C920.583,736.96 920.594,737.98 920.595,738.17 C920.591,738.57 920.586,738.73 920.579,738.65 C920.168,749.36 909.286,757.93 894.457,760.74 C893.939,760.84 892.9,761.04 892.9,761.04 C889.323,761.61 881.62,761.69 881.62,761.69 C881.577,761.69 881.39,761.68 881.39,761.68 C881.39,761.68 881.427,761.68 881.53,761.69 C880.784,761.64 879.408,761.55 879.409,761.54 C879.409,761.54 879.503,761.55 879.729,761.56 C878.107,761.43 876.568,761.25 876.07,761.19 L876.059,761.19 C874.145,760.92 872.391,760.58 872.258,760.56 L872.25,760.56 C858.904,757.8 848.752,750.79 845.512,742.22 L838.212,750.53 C707.353,912.64 934.09,794.95 934.09,794.95 L928.932,805.24 M859.8,737.03 C860.139,728.39 871.352,721.82 884.843,722.35 C898.334,722.89 908.995,730.32 908.656,738.96 C908.524,742.29 906.769,745.31 903.893,747.74 C902.073,749.28 899.807,750.57 897.212,751.56 C893.28,753.05 888.604,753.83 883.613,753.63 C870.122,753.1 859.46,745.66 859.8,737.03" id="Fill-81" fill="#FFFFFF"></path>
            <path d="M852.208,917.27 C852.09,903.22 854.996,890.58 860.599,878.55 C867.907,862.85 879.228,850.76 893.821,841.63 C908.622,832.37 923.204,822.81 935.914,810.7 C939,807.77 941.767,804.49 945.46,800.54 C939.411,822.09 928.387,839.49 914.16,855.17 C927.94,849.36 942.492,845.05 952.843,833.11 C957.972,827.19 960.726,820.21 963.155,812.95 C965.774,805.12 968.156,797.16 971.537,789.66 C976.581,778.48 985.393,770.85 997.173,765.57 C981.633,785.78 974.937,809.05 968.581,832.46 C967.62,836.01 966.563,839.53 965.457,843.03 C961.096,856.84 952.726,867.7 939.804,874.01 C928.441,879.55 916.422,883.78 904.579,888.3" id="Fill-82" fill="#FFFFFF"></path>
            <path d="M998.916,774.65 C994.043,788.31 989.723,800.91 985.004,813.37 C983.349,817.74 980.84,821.81 978.466,825.86 C977.459,827.58 975.793,828.91 974.001,830.09" id="Fill-83" fill="#FFFFFF"></path>
            <text id="App" font-family="AppleSDGothicNeo-UltraLight, Apple SD Gothic Neo" font-size="262.868" font-weight="300" fill="#FFFFFF">
                <tspan x="1564.1" y="993.64132">A</tspan>
                <tspan x="1719.71786" y="993.64132" letter-spacing="0.0262868">p</tspan>
                <tspan x="1857.48697" y="993.64132" letter-spacing="-137.742832">p</tspan>
            </text>
            <text id="1.0" font-family="AppleSDGothicNeo-UltraLight, Apple SD Gothic Neo" font-size="171.128" font-weight="300" letter-spacing="-0.0171128" fill="#FFFFFF">
                <tspan x="1790.24" y="1268.43667">1</tspan>
                <tspan x="1851.31558" y="1268.43667">.</tspan>
                <tspan x="1887.59472" y="1268.43667" letter-spacing="-106.270488">0</tspan>
            </text>
        </g>
    </g>
</svg>