<svg id="Ebene_1" data-name="Ebene 1" xmlns="http://www.w3.org/2000/svg" viewBox="0 0 170.47 182.11"><defs><style>.cls-1{fill:#f07d14;}.cls-2{fill:#003f25;}.cls-3{fill:#b44173;}</style></defs><path class="cls-1" d="M74.26,74.8l2,2.53A9.16,9.16,0,0,1,68.65,81c-5.24,0-8.86-3.62-8.86-10s3.62-9.94,8.86-9.94c4.7,0,7.78,3.07,7.78,7a10.55,10.55,0,0,1-.91,4.34H63.77c.36,3.26,2.17,5.06,5.24,5.06A6.66,6.66,0,0,0,74.26,74.8ZM63.77,69.2h8.86a7,7,0,0,0,.18-1.45c0-1.81-1.45-3.25-4.16-3.25S64.13,66.3,63.77,69.2Z"/><path class="cls-2" d="M116.53,135.69l2,2.53a9.19,9.19,0,0,1-7.59,3.62c-5.25,0-8.86-3.62-8.86-10s3.61-9.94,8.86-9.94c4.7,0,7.77,3.07,7.77,7a10.64,10.64,0,0,1-.9,4.34H106.05c.36,3.25,2.16,5.06,5.24,5.06A6.65,6.65,0,0,0,116.53,135.69Zm-10.48-5.6h8.85a7,7,0,0,0,.18-1.45c0-1.81-1.44-3.26-4.15-3.26S106.41,127.19,106.05,130.09Z"/><path class="cls-2" d="M52.24,123.4c-1.45,0-2.48,1.85-2.48,1.85s1.81,1.44,1.81,4.88c0,4.16-2.71,6.87-7.59,6.87a9.55,9.55,0,0,1-3.44-.54,1.35,1.35,0,0,0-.54,1.08c0,.91.54,1.45,1.81,1.45h5.06c3.8,0,6.15,2.35,6.15,5.61,0,3.61-2.72,6.32-8.68,6.32s-8.68-2.71-8.68-6A5.23,5.23,0,0,1,38,140.8a3.45,3.45,0,0,1-1.63-2.9A3.55,3.55,0,0,1,38,134.83a6.91,6.91,0,0,1-1.63-4.7c0-4.16,2.71-6.87,7.6-6.87a10.08,10.08,0,0,1,2.89.36c0-1.63,1.45-3.07,3.8-3.07Zm-5.73,18.84H40.72a2.78,2.78,0,0,0-1.45,2.36c0,1.62,1.45,3.07,5.07,3.07s5.06-1.45,5.06-3.07C49.4,143.33,48.32,142.24,46.51,142.24ZM44,126.51c-2.54,0-4,1.45-4,3.62s1.44,3.62,4,3.62,4-1.45,4-3.62S46.51,126.51,44,126.51Z"/><path class="cls-3" d="M75.05,98.07v7.23c0,1.27.54,1.81,1.81,1.81h.72V110a8,8,0,0,1-2.17.36,3.47,3.47,0,0,1-3.62-3.26h-.18a6.5,6.5,0,0,1-5.78,3.44,5.76,5.76,0,0,1-6-5.79c0-3.07,2.53-5.6,7-5.6h4.52V98.07c0-2.53-1.44-4-3.61-4s-3.26,1.09-3.26,2.54a3.92,3.92,0,0,0,.18,1.08H61.13A6.84,6.84,0,0,1,61,96.26c0-2.89,2.71-5.6,6.87-5.6A7.08,7.08,0,0,1,75.05,98.07Zm-3.62,4.34H66.91c-2.35,0-3.43,1.09-3.43,2.35s1.08,2.35,3.07,2.35A5.07,5.07,0,0,0,71.43,102.41Z"/><path class="cls-2" d="M69,124.08v7.23c0,1.26.54,1.8,1.8,1.8h.73V136a8,8,0,0,1-2.17.36,3.47,3.47,0,0,1-3.62-3.26H65.6a6.52,6.52,0,0,1-5.78,3.44,5.75,5.75,0,0,1-6-5.78c0-3.08,2.53-5.61,7-5.61h4.52v-1.08c0-2.54-1.45-4-3.61-4s-3.26,1.08-3.26,2.53a3.92,3.92,0,0,0,.18,1.08H55.12a6.81,6.81,0,0,1-.18-1.44c0-2.89,2.71-5.61,6.87-5.61A7.09,7.09,0,0,1,69,124.08Zm-3.62,4.33H60.9c-2.35,0-3.43,1.09-3.43,2.36s1.08,2.34,3.07,2.34A5.06,5.06,0,0,0,65.42,128.41Z"/><path class="cls-3" d="M56.65,88.85a7.79,7.79,0,0,1,3.07.72l.36-3.25a10.29,10.29,0,0,0-4.16-.9c-3.61,0-6,2.35-6,7v1.81H46.7v3.43H50v15.7h3.61V97.71h5.07V94.28H53.57V92.47C53.57,89.94,54.66,88.85,56.65,88.85Z"/><path class="cls-3" d="M83.85,77.05H80.23v32.86c0,2.89,1.45,4.33,4,4.33a8,8,0,0,0,2.17-.36V111h-.73c-1.26,0-1.8-.55-1.8-1.81Z"/><path class="cls-3" d="M115.91,104.4l2,2.53a9.19,9.19,0,0,1-7.59,3.62c-5.25,0-8.86-3.62-8.86-10s3.61-9.94,8.86-9.94c4.7,0,7.77,3.07,7.77,7a10.64,10.64,0,0,1-.9,4.34H105.43c.36,3.25,2.17,5.06,5.24,5.06A6.65,6.65,0,0,0,115.91,104.4Zm-10.48-5.6h8.85a6.62,6.62,0,0,0,.19-1.45c0-1.81-1.45-3.26-4.16-3.26S105.79,95.9,105.43,98.8Z"/><path class="cls-3" d="M90.42,110.73c0,4.7,2.35,7,6,7a10.27,10.27,0,0,0,4.15-.9l-.36-3.26a7.71,7.71,0,0,1-3.07.73c-2,0-3.08-1.09-3.08-3.62v-8.68H99.1V98.62H94V93.55H91.14l-.72,5.07H87.16v3.43h3.26Z"/><path class="cls-3" d="M123.33,96.41v12.78H127v-8.07c0-4,2.17-6.15,4.88-6.15h2.35v-3.8h-1.63a6.21,6.21,0,0,0-5.78,3.43h-.18A3.46,3.46,0,0,0,123,91.35a8,8,0,0,0-2.17.36V94.6h.72C122.79,94.6,123.33,95.15,123.33,96.41Z"/><polygon class="cls-1" points="41.62 76.05 48.68 57.24 44.7 57.24 40 70.44 39.82 70.44 35.12 57.24 31.14 57.24 38.19 76.05 41.62 76.05"/><path class="cls-1" d="M56.32,76.05V61.22c0-2.89-1.45-4.34-4-4.34a8,8,0,0,0-2.17.36v2.9h.73c1.26,0,1.81.54,1.81,1.8V76.05Z"/><path class="cls-1" d="M80.23,46.45v26h3.62V45.73c0-2.89-1.45-4.34-4-4.34a7.68,7.68,0,0,0-2.17.37v2.89h.72C79.69,44.65,80.23,45.19,80.23,46.45Z"/><path class="cls-3" d="M58.61,50.55c2.64-.87,6.19-8.45,5.23-13.46-.72-3.55-8.3-7.5-13.46-5.23-7,2.1-6.91,8.91-5.85,13.6C45.34,49,53.71,51.83,58.61,50.55Z"/><path class="cls-2" d="M78.27,128.05h-.18a3.46,3.46,0,0,0-3.62-3.25,7.85,7.85,0,0,0-2.16.36v2.89H73c1.27,0,1.81.55,1.81,1.81V144h3.62v-9.41c0-4,2.16-6.15,4.88-6.15h2.35v-3.79H84.06A6.22,6.22,0,0,0,78.27,128.05Z"/><path class="cls-2" d="M97.11,145.64c-2,0-3.08-1.09-3.08-3.62v-8.68H99.1v-3.43H94v-5.07H91.14l-.72,5.07H87.16v3.43h3.26V142c0,4.7,2.35,7,6,7a10.21,10.21,0,0,0,4.15-.9l-.36-3.26A7.65,7.65,0,0,1,97.11,145.64Z"/><path class="cls-2" d="M132.82,124.62a6.22,6.22,0,0,0-5.79,3.43h-.18a3.46,3.46,0,0,0-3.62-3.25,7.85,7.85,0,0,0-2.16.36v2.89h.72c1.27,0,1.81.55,1.81,1.81V144h3.62V134.2c0-4,2.16-6.15,4.88-6.15a3.41,3.41,0,0,1,3.61,3.62V144h3.62v-12.3C139.33,127.33,136.62,124.62,132.82,124.62Z"/></svg>