<?xml version="1.0" encoding="iso-8859-1"?>
<!-- Generator: Adobe Illustrator 19.0.0, SVG Export Plug-In . SVG Version: 6.00 Build 0)  -->
<svg version="1.1" id="Capa_1" xmlns="http://www.w3.org/2000/svg" xmlns:xlink="http://www.w3.org/1999/xlink" x="0px" y="0px"
	 viewBox="0 0 463 463" style="enable-background:new 0 0 463 463;" xml:space="preserve">
<path d="M295,207.5c0-8.481-4.517-15.927-11.271-20.059c2.075-3.502,3.271-7.583,3.271-11.941v-16
	c0-8.481-4.517-15.927-11.271-20.059c2.075-3.502,3.271-7.583,3.271-11.941v-16c0-8.479-4.514-15.925-11.266-20.058
	C269.809,87.941,271,83.858,271,79.5v-8c0-7.023-3.101-13.332-8-17.642V47.5c0-8.056-3.043-15.412-8.036-20.988
	c-0.196-5.979-1.377-18.392-7.579-24.399c-2.976-2.882-7.724-2.808-10.606,0.167c-2.882,2.976-2.808,7.723,0.167,10.604
	c0.544,0.551,1.122,1.978,1.629,3.926C236.299,16.287,233.933,16,231.5,16c-2.433,0-4.799,0.287-7.075,0.811
	c0.488-1.905,1.056-3.345,1.627-3.924c2.975-2.882,3.051-7.63,0.168-10.605c-2.88-2.974-7.629-3.051-10.605-0.168
	c-6.202,6.007-7.383,18.42-7.579,24.399C203.043,32.088,200,39.445,200,47.5v6.358c-4.899,4.31-8,10.619-8,17.642v8
	c0,4.357,1.191,8.44,3.266,11.942C188.514,95.576,184,103.021,184,111.5v16c0,4.357,1.196,8.439,3.271,11.941
	C180.517,143.574,176,151.019,176,159.5v16c0,4.357,1.196,8.439,3.271,11.941C172.517,191.574,168,199.019,168,207.5v16
	c0,6.177,2.399,11.801,6.31,16c-3.911,4.199-6.31,9.823-6.31,16v16c0,8.481,4.517,15.927,11.271,20.059
	c-2.075,3.502-3.271,7.583-3.271,11.941v16c0,6.177,2.399,11.801,6.31,16c-3.911,4.199-6.31,9.823-6.31,16v16
	c0,8.481,4.517,15.927,11.271,20.059c-2.075,3.502-3.271,7.583-3.271,11.941v8c0,8.479,4.514,15.925,11.266,20.058
	C193.192,431.06,192,435.143,192,439.5c0,12.958,10.542,23.5,23.5,23.5h32c12.958,0,23.5-10.542,23.5-23.5
	c0-4.357-1.191-8.44-3.266-11.942C274.486,423.425,279,415.98,279,407.5v-8c0-4.357-1.196-8.439-3.271-11.941
	C282.483,383.427,287,375.982,287,367.5v-16c0-6.177-2.399-11.801-6.31-16c3.911-4.199,6.31-9.823,6.31-16v-16
	c0-4.357-1.196-8.439-3.271-11.941C290.483,287.427,295,279.982,295,271.5v-16c0-6.177-2.399-11.801-6.31-16
	c3.911-4.199,6.31-9.823,6.31-16V207.5z M215,47.5c0-9.098,7.402-16.5,16.5-16.5S248,38.403,248,47.5v0.513
	C247.833,48.01,247.668,48,247.5,48h-32c-0.168,0-0.333,0.009-0.5,0.013V47.5z M264,407.5c0,4.687-3.813,8.5-8.5,8.5h-8
	c-4.142,0-7.5,3.357-7.5,7.5s3.358,7.5,7.5,7.5c4.687,0,8.5,3.813,8.5,8.5s-3.813,8.5-8.5,8.5h-32c-4.687,0-8.5-3.813-8.5-8.5
	s3.813-8.5,8.5-8.5c4.142,0,7.5-3.357,7.5-7.5s-3.358-7.5-7.5-7.5h-8c-4.687,0-8.5-3.813-8.5-8.5v-8c0-4.687,3.813-8.5,8.5-8.5h8
	c4.142,0,7.5-3.357,7.5-7.5s-3.358-7.5-7.5-7.5h-16c-4.687,0-8.5-3.813-8.5-8.5v-16c0-4.687,3.813-8.5,8.5-8.5h16
	c4.142,0,7.5-3.357,7.5-7.5s-3.358-7.5-7.5-7.5h-16c-4.687,0-8.5-3.813-8.5-8.5v-16c0-4.687,3.813-8.5,8.5-8.5h16
	c4.142,0,7.5-3.357,7.5-7.5s-3.358-7.5-7.5-7.5h-24c-4.687,0-8.5-3.813-8.5-8.5v-16c0-4.687,3.813-8.5,8.5-8.5h24
	c4.142,0,7.5-3.357,7.5-7.5s-3.358-7.5-7.5-7.5h-24c-4.687,0-8.5-3.813-8.5-8.5v-16c0-4.687,3.813-8.5,8.5-8.5h24
	c4.142,0,7.5-3.357,7.5-7.5s-3.358-7.5-7.5-7.5h-16c-4.687,0-8.5-3.813-8.5-8.5v-16c0-4.687,3.813-8.5,8.5-8.5h16
	c4.142,0,7.5-3.357,7.5-7.5s-3.358-7.5-7.5-7.5h-8c-4.687,0-8.5-3.813-8.5-8.5v-16c0-4.687,3.813-8.5,8.5-8.5h8
	c4.142,0,7.5-3.357,7.5-7.5s-3.358-7.5-7.5-7.5c-4.687,0-8.5-3.813-8.5-8.5v-8c0-4.687,3.813-8.5,8.5-8.5h32
	c4.687,0,8.5,3.813,8.5,8.5v8c0,4.687-3.813,8.5-8.5,8.5c-4.142,0-7.5,3.357-7.5,7.5s3.358,7.5,7.5,7.5h8c4.687,0,8.5,3.813,8.5,8.5
	v16c0,4.687-3.813,8.5-8.5,8.5h-8c-4.142,0-7.5,3.357-7.5,7.5s3.358,7.5,7.5,7.5h16c4.687,0,8.5,3.813,8.5,8.5v16
	c0,4.687-3.813,8.5-8.5,8.5h-16c-4.142,0-7.5,3.357-7.5,7.5s3.358,7.5,7.5,7.5h24c4.687,0,8.5,3.813,8.5,8.5v16
	c0,4.687-3.813,8.5-8.5,8.5h-24c-4.142,0-7.5,3.357-7.5,7.5s3.358,7.5,7.5,7.5h24c4.687,0,8.5,3.813,8.5,8.5v16
	c0,4.687-3.813,8.5-8.5,8.5h-24c-4.142,0-7.5,3.357-7.5,7.5s3.358,7.5,7.5,7.5h16c4.687,0,8.5,3.813,8.5,8.5v16
	c0,4.687-3.813,8.5-8.5,8.5h-16c-4.142,0-7.5,3.357-7.5,7.5s3.358,7.5,7.5,7.5h16c4.687,0,8.5,3.813,8.5,8.5v16
	c0,4.687-3.813,8.5-8.5,8.5h-16c-4.142,0-7.5,3.357-7.5,7.5s3.358,7.5,7.5,7.5h8c4.687,0,8.5,3.813,8.5,8.5V407.5z"/>
<g>
</g>
<g>
</g>
<g>
</g>
<g>
</g>
<g>
</g>
<g>
</g>
<g>
</g>
<g>
</g>
<g>
</g>
<g>
</g>
<g>
</g>
<g>
</g>
<g>
</g>
<g>
</g>
<g>
</g>
</svg>
