<svg width="52" height="52" viewBox="0 0 52 52" fill="none" xmlns="http://www.w3.org/2000/svg">
  <rect x="9" y="10" width="33" height="33" rx="4" stroke="#CE7011" stroke-width="2"
    stroke-dasharray="4 4" />
  <path
    d="M32 33L28 34.3636L26 31.1818L24 33.7273L21 34.3636L18 31.1818L19 27.3636L16.6667 28L15.5 23.5V20.5L20 21.6364L22 22.9091L25.3333 26.7273L29 22.5L33.3333 20.5L36 21L35.3333 27.3636H31.3333L33.3333 29.2727L32 33Z"
    fill="#FFB989" />
  <path
    d="M35.5444 20.5358C35.3478 20.3483 35.0874 20.2482 34.8128 20.2542C33.1346 20.2903 29.0345 20.8654 26.2296 25.2975C26.149 25.2162 26.0544 25.1482 25.9494 25.0975L28.2168 20.043C28.2886 19.8831 28.2138 19.6967 28.0498 19.6268C27.8857 19.5568 27.6947 19.6297 27.623 19.7897L25.4999 24.5223L23.3767 19.7896C23.305 19.6297 23.114 19.5566 22.9499 19.6267C22.786 19.6967 22.7112 19.883 22.7829 20.043L25.0504 25.0974C24.9455 25.1482 24.8508 25.2161 24.7702 25.2974C21.9652 20.8654 17.8651 20.2903 16.187 20.2542C15.9112 20.2483 15.6519 20.3483 15.4553 20.5358C15.2584 20.7238 15.1499 20.9755 15.1499 21.2448V22.2764C15.1499 23.1507 15.2409 23.5947 15.3291 24.0242C15.4148 24.442 15.4957 24.8365 15.4957 25.6481C15.4957 26.7172 15.8859 27.3124 16.2133 27.6233C16.4584 27.8562 16.7867 27.9833 17.141 27.9833C17.1533 27.9833 17.1656 27.9831 17.1779 27.9828C17.6301 27.9716 18.1955 27.9394 18.813 27.8948C17.9983 28.4567 17.57 29.1893 17.57 30.0312C17.57 30.0323 17.57 30.0334 17.57 30.0346C17.57 30.035 17.57 30.0355 17.57 30.0359C17.5714 31.2854 18.1119 32.3423 19.1767 33.1773C20.0684 33.8764 21.1584 34.2744 21.9159 34.4852C22.0735 34.529 22.2329 34.5501 22.3904 34.5501C22.9882 34.5501 23.5559 34.2457 23.8674 33.725L25.1758 31.5376V32.0542C25.1758 32.2287 25.3209 32.3703 25.4999 32.3703C25.6789 32.3703 25.824 32.2287 25.824 32.0542V31.5376L27.1324 33.725C27.4439 34.2457 28.0116 34.5501 28.6094 34.5501C28.7669 34.5501 28.9264 34.529 29.0839 34.4852C29.8413 34.2744 30.9314 33.8764 31.823 33.1773C32.8879 32.3423 33.4284 31.2855 33.4298 30.0359C33.4298 30.0355 33.4298 30.035 33.4298 30.0346C33.4298 30.0334 33.4298 30.0323 33.4298 30.0312C33.4298 29.1892 33.0015 28.4567 32.1868 27.8948C32.8042 27.9394 33.3697 27.9715 33.8219 27.9828C33.8342 27.9831 33.8465 27.9833 33.8588 27.9833C34.2132 27.9833 34.5414 27.8562 34.7865 27.6233C35.1139 27.3123 35.5042 26.7172 35.5042 25.6481C35.5042 24.8365 35.5851 24.4419 35.6707 24.0242C35.7588 23.5947 35.8499 23.1507 35.8499 22.2764V21.2448C35.8498 20.9755 35.7414 20.7238 35.5444 20.5358ZM16.1366 25.2428C16.1134 24.6256 16.038 24.2577 15.9647 23.9003C15.879 23.4826 15.7981 23.088 15.7981 22.2764V21.2447C15.7981 21.1469 15.8374 21.0557 15.9086 20.9877C15.9795 20.9201 16.0733 20.8843 16.1727 20.8862C17.1128 20.9064 18.8655 21.1083 20.6875 22.1622C19.6038 22.259 18.377 22.8315 17.4617 23.595C16.8415 24.1124 16.3963 24.6737 16.1366 25.2428ZM17.1614 27.3509C16.9866 27.355 16.8259 27.3022 16.7024 27.202C16.0128 25.7917 17.4281 24.455 17.8831 24.0754C18.5411 23.5266 19.3579 23.0978 20.1241 22.8991C20.894 22.6994 21.5397 22.7461 21.943 23.0303C22.8458 23.7666 23.7233 24.752 24.4843 26.0688V26.7151C23.3471 26.8419 19.1126 27.3024 17.1614 27.3509ZM20.7491 27.7337C22.3018 27.5911 23.8093 27.4269 24.4843 27.3516V27.4961C24.2629 27.6508 24.0569 27.8197 23.8674 28.0023C20.881 28.2272 19.2086 28.8719 18.3708 29.3277C18.8908 28.1933 20.572 27.7748 20.7491 27.7337ZM22.0938 33.8773C20.675 33.4825 18.3142 32.4798 18.2214 30.1724C18.5699 29.9041 19.9364 29.0297 23.2752 28.6894C22.6996 29.498 22.3626 30.4907 22.2847 31.6293C22.2137 32.6686 22.3754 33.5431 22.4606 33.9153C22.3396 33.9229 22.2157 33.9112 22.0938 33.8773ZM23.3074 33.4066C23.2443 33.512 23.164 33.6029 23.0717 33.6777C22.9927 33.2999 22.8717 32.5454 22.9315 31.6713C23.0293 30.2406 23.5511 29.1105 24.4843 28.3031V29.694C24.4843 30.0668 24.6966 30.392 25.0094 30.561L23.3074 33.4066ZM25.8672 29.694C25.8672 29.8916 25.7024 30.0523 25.4999 30.0523C25.2973 30.0523 25.1325 29.8916 25.1325 29.694V26.9083C25.2465 26.9516 25.3703 26.9756 25.4999 26.9756C25.6294 26.9756 25.7532 26.9516 25.8672 26.9083V29.694ZM25.4999 26.3435C25.2973 26.3435 25.1325 26.1828 25.1325 25.9853C25.1325 25.788 25.2968 25.6275 25.4989 25.627C25.4992 25.627 25.4995 25.6271 25.4997 25.6271H25.4998H25.5C25.5002 25.6271 25.5005 25.627 25.5007 25.627C25.7028 25.6275 25.8671 25.788 25.8671 25.9853C25.8672 26.1828 25.7024 26.3435 25.4999 26.3435ZM27.9277 33.6775C27.8356 33.6027 27.7553 33.5119 27.6923 33.4066L25.9903 30.561C26.3031 30.392 26.5154 30.0668 26.5154 29.694V28.3031C27.4444 29.1069 27.9658 30.2308 28.0669 31.6528C28.1294 32.5309 28.0071 33.2957 27.9277 33.6775ZM32.7783 30.1746C32.684 32.4805 30.3243 33.4827 28.906 33.8773C28.784 33.9112 28.6601 33.9229 28.5392 33.9151C28.6244 33.543 28.7861 32.6685 28.715 31.6293C28.6372 30.4908 28.3002 29.4982 27.7247 28.6896C31.03 29.0286 32.4217 29.906 32.7783 30.1746ZM32.6301 29.3284C31.7928 28.8725 30.1201 28.2273 27.1323 28.0023C26.9428 27.8197 26.7368 27.6508 26.5154 27.4961V27.3516C27.1904 27.4269 28.698 27.5911 30.2509 27.7338C30.4298 27.7749 32.1119 28.1901 32.6301 29.3284ZM34.2973 27.202C34.1737 27.3023 34.0126 27.3552 33.8383 27.3509C31.8873 27.3025 27.6527 26.8419 26.5154 26.7151V26.0687C27.2764 24.752 28.1539 23.7665 29.0567 23.0302C29.46 22.746 30.1057 22.6994 30.8756 22.8991C31.6418 23.0978 32.4586 23.5266 33.1166 24.0754C33.5716 24.455 34.9868 25.7917 34.2973 27.202ZM35.2016 22.2764C35.2016 23.088 35.1207 23.4826 35.035 23.9002C34.9617 24.2577 34.8864 24.6255 34.8632 25.2428C34.6035 24.6736 34.1582 24.1124 33.538 23.5949C32.6227 22.8315 31.3959 22.259 30.3122 22.1622C32.1342 21.1083 33.8869 20.9064 34.827 20.8862C34.9274 20.8841 35.0202 20.9201 35.091 20.9877C35.1623 21.0557 35.2015 21.147 35.2015 21.2447V22.2764H35.2016Z"
    fill="#BE6000" />
</svg>