<svg width="52" height="52" viewBox="0 0 52 52" fill="none" xmlns="http://www.w3.org/2000/svg">
  <circle cx="27" cy="25" r="15" fill="#FEB988" fill-opacity="0.56" />
  <path
    d="M15.3764 9.33877C15.3471 9.34408 15.3179 9.35205 15.2914 9.36002C14.9753 9.43173 14.7521 9.71595 14.7601 10.04V16.16H20.8801C21.1245 16.1627 21.3529 16.0352 21.4778 15.8227C21.6 15.6102 21.6 15.3499 21.4778 15.1374C21.3529 14.9249 21.1245 14.7974 20.8801 14.8H17.0126C19.5892 12.2792 23.1087 10.72 27.0001 10.72C34.8945 10.72 41.2801 17.1056 41.2801 25C41.2801 32.8944 34.8945 39.28 27.0001 39.28C19.1057 39.28 12.7201 32.8944 12.7201 25C12.7201 22.6386 13.3018 20.4153 14.3139 18.455L13.1026 17.8388C11.9923 19.985 11.3601 22.4208 11.3601 25C11.3601 33.6302 18.37 40.64 27.0001 40.64C35.6303 40.64 42.6401 33.6302 42.6401 25C42.6401 16.3699 35.6303 9.36002 27.0001 9.36002C22.766 9.36002 18.9357 11.0627 16.1201 13.8013V10.04C16.1281 9.84345 16.0484 9.65486 15.9076 9.52205C15.7642 9.38658 15.5703 9.32017 15.3764 9.33877ZM27.0001 11.4C26.6256 11.4 26.3201 11.7055 26.3201 12.08C26.3201 12.4545 26.6256 12.76 27.0001 12.76C27.3746 12.76 27.6801 12.4545 27.6801 12.08C27.6801 11.7055 27.3746 11.4 27.0001 11.4ZM33.4601 13.1213C33.0856 13.1213 32.7801 13.4267 32.7801 13.8013C32.7801 14.1758 33.0856 14.4813 33.4601 14.4813C33.8346 14.4813 34.1401 14.1758 34.1401 13.8013C34.1401 13.4267 33.8346 13.1213 33.4601 13.1213ZM38.1989 17.86C37.8243 17.86 37.5189 18.1655 37.5189 18.54C37.5189 18.9145 37.8243 19.22 38.1989 19.22C38.5734 19.22 38.8789 18.9145 38.8789 18.54C38.8789 18.1655 38.5734 17.86 38.1989 17.86ZM14.0801 24.32C13.7056 24.32 13.4001 24.6255 13.4001 25C13.4001 25.3745 13.7056 25.68 14.0801 25.68C14.4546 25.68 14.7601 25.3745 14.7601 25C14.7601 24.6255 14.4546 24.32 14.0801 24.32ZM39.9201 24.32C39.5456 24.32 39.2401 24.6255 39.2401 25C39.2401 25.3745 39.5456 25.68 39.9201 25.68C40.2946 25.68 40.6001 25.3745 40.6001 25C40.6001 24.6255 40.2946 24.32 39.9201 24.32ZM15.8014 30.78C15.4268 30.78 15.1214 31.0855 15.1214 31.46C15.1214 31.8345 15.4268 32.14 15.8014 32.14C16.1759 32.14 16.4814 31.8345 16.4814 31.46C16.4814 31.0855 16.1759 30.78 15.8014 30.78ZM38.1989 30.78C37.8243 30.78 37.5189 31.0855 37.5189 31.46C37.5189 31.8345 37.8243 32.14 38.1989 32.14C38.5734 32.14 38.8789 31.8345 38.8789 31.46C38.8789 31.0855 38.5734 30.78 38.1989 30.78ZM20.5401 35.5188C20.1656 35.5188 19.8601 35.8242 19.8601 36.1988C19.8601 36.5733 20.1656 36.8788 20.5401 36.8788C20.9146 36.8788 21.2201 36.5733 21.2201 36.1988C21.2201 35.8242 20.9146 35.5188 20.5401 35.5188ZM33.4601 35.5188C33.0856 35.5188 32.7801 35.8242 32.7801 36.1988C32.7801 36.5733 33.0856 36.8788 33.4601 36.8788C33.8346 36.8788 34.1401 36.5733 34.1401 36.1988C34.1401 35.8242 33.8346 35.5188 33.4601 35.5188ZM27.0001 37.24C26.6256 37.24 26.3201 37.5455 26.3201 37.92C26.3201 38.2945 26.6256 38.6 27.0001 38.6C27.3746 38.6 27.6801 38.2945 27.6801 37.92C27.6801 37.5455 27.3746 37.24 27.0001 37.24Z"
    fill="#CF7111" />
  <path
    d="M24.1929 19.8182V30H22.6517V21.3594H22.5921L20.156 22.9503V21.4787L22.6965 19.8182H24.1929ZM30.308 30.1392C29.6849 30.1392 29.1247 30.0199 28.6276 29.7812C28.1337 29.5393 27.7393 29.2079 27.4443 28.7869C27.1494 28.366 26.9919 27.8854 26.972 27.3452H28.4635C28.5 27.7827 28.6939 28.1423 29.0452 28.424C29.3965 28.7057 29.8174 28.8466 30.308 28.8466C30.6991 28.8466 31.0454 28.7571 31.347 28.5781C31.652 28.3958 31.8906 28.1456 32.0629 27.8274C32.2386 27.5092 32.3264 27.1463 32.3264 26.7386C32.3264 26.3243 32.2369 25.9548 32.058 25.63C31.879 25.3052 31.6321 25.05 31.3172 24.8643C31.0057 24.6787 30.6477 24.5843 30.2433 24.581C29.9351 24.581 29.6252 24.634 29.3137 24.7401C29.0021 24.8461 28.7502 24.9853 28.558 25.1577L27.151 24.9489L27.7227 19.8182H33.3208V21.1357H29.0004L28.6773 23.9844H28.7369C28.9358 23.7921 29.1993 23.6314 29.5274 23.5021C29.8589 23.3729 30.2135 23.3082 30.5914 23.3082C31.2111 23.3082 31.763 23.4557 32.2469 23.7507C32.7341 24.0457 33.1169 24.4484 33.3953 24.9588C33.6771 25.4659 33.8163 26.0492 33.8129 26.7088C33.8163 27.3684 33.6671 27.9567 33.3655 28.4737C33.0672 28.9908 32.6529 29.3984 32.1226 29.6967C31.5956 29.9917 30.9907 30.1392 30.308 30.1392Z"
    fill="#CE7011" />
</svg>