<svg width="52" height="52" viewBox="0 0 52 52" fill="none" xmlns="http://www.w3.org/2000/svg">
  <rect x="9" y="10" width="33" height="33" rx="4" stroke="#CE7011" stroke-width="2"
    stroke-dasharray="4 4" />
  <path
    d="M31.172 32.2094L26.9451 27.1899V25.8689L27.4734 25.3406L36.1916 29.0392V30.3601L31.172 32.2094Z"
    fill="#FEB988" />
  <path
    d="M19.5479 33.0018L24.039 26.133V24.8121L24.5674 24.2837L33.2855 27.9823L30.6437 33.5302L20.6046 33.7944L19.5479 33.0018Z"
    fill="#FEB988" />
  <path
    d="M20.0236 32.2094L25.0959 27.1899V25.8689L24.4619 25.3406L14.0001 29.0392V30.3601L20.0236 32.2094Z"
    fill="#FEB988" />
  <path
    d="M20.9277 19.0899C20.8199 19.1933 20.7974 19.4269 20.8873 19.5392C20.9187 19.5751 21.1209 19.7593 21.3455 19.9435C21.5657 20.1277 21.8846 20.4108 22.0509 20.568L22.3564 20.851L22.244 20.9409C22.1632 21.0038 22.1317 21.0712 22.1317 21.1835C22.1317 21.4935 22.1991 21.5384 22.873 21.6507C23.183 21.7047 23.1875 21.7091 23.4346 22.0012C23.5694 22.1629 23.6862 22.3067 23.6952 22.3246C23.6997 22.3381 23.5694 22.3426 23.4032 22.3336C23.1426 22.3202 23.0797 22.3291 22.9719 22.4145C22.864 22.4999 22.8461 22.5403 22.8595 22.6975C22.882 22.9896 22.9853 23.0345 23.6952 23.0704L24.2927 23.1019L24.4275 23.2951C24.5353 23.4568 24.5533 23.5062 24.5128 23.5826C24.4859 23.632 24.4544 23.8072 24.4365 23.9779C24.414 24.243 24.3826 24.3149 24.1939 24.5979C23.9872 24.89 23.9647 24.9124 23.83 24.8945C23.7491 24.8855 23.5514 24.9214 23.3897 24.9708L23.1021 25.0607L21.4668 24.7282C20.5683 24.544 19.7821 24.3913 19.7102 24.3913C19.4451 24.3913 19.2924 24.7552 19.4721 24.9708C19.535 25.0517 19.7416 25.1056 20.6042 25.2853C21.1838 25.4066 21.7004 25.5144 21.7499 25.5234C21.7993 25.5324 21.2646 25.757 20.5593 26.0266C15.9274 27.7922 15.0468 28.1966 14.4043 28.857C14.0854 29.1849 14 29.3467 14 29.6252C14 29.8858 14.0988 30.079 14.3235 30.2452C14.6065 30.4564 15.5994 31.0314 16.2239 31.3414C17.356 31.912 18.1962 32.204 18.9914 32.3029L19.3822 32.3523L19.4002 32.7207C19.4361 33.3766 19.7102 33.7315 20.4245 34.064C21.3859 34.5133 21.669 34.6031 22.1362 34.6256C22.6888 34.648 22.8236 34.6121 24.0591 34.064C25.0969 33.6012 25.1867 33.5563 25.3799 33.3811L25.5012 33.2688L25.627 33.3811C25.8157 33.5563 25.9056 33.6012 26.9434 34.064C28.1789 34.6121 28.3136 34.648 28.8662 34.6256C29.3335 34.6031 29.6165 34.5133 30.5779 34.064C31.2923 33.7315 31.5663 33.3766 31.6023 32.7207L31.6202 32.3523L32.0111 32.3029C32.2268 32.2759 32.5637 32.213 32.7569 32.1591C33.5476 31.9524 34.8819 31.3459 35.9691 30.6945C36.661 30.2767 36.8093 30.1688 36.9171 29.9891C37.0204 29.8184 37.0294 29.4725 36.9306 29.2613C36.8227 29.0367 36.2117 28.4841 35.8119 28.2505C35.1829 27.8821 33.6374 27.2441 30.4432 26.0266C29.7378 25.757 29.2032 25.5324 29.2526 25.5234C29.302 25.5144 29.8187 25.4066 30.3982 25.2853C31.5484 25.0472 31.6113 25.0202 31.6113 24.7327C31.6113 24.553 31.454 24.3913 31.2833 24.3913C31.2204 24.3913 30.4342 24.544 29.5356 24.7282L27.9003 25.0607L27.6128 24.9708C27.451 24.9214 27.2534 24.8855 27.1725 24.8945C27.0377 24.9124 27.0153 24.89 26.8086 24.5979C26.6199 24.3149 26.5885 24.243 26.566 23.9779C26.548 23.8072 26.5166 23.632 26.4896 23.5826C26.4492 23.5062 26.4672 23.4568 26.575 23.2951L26.7098 23.1019L27.3073 23.0704C28.0171 23.0345 28.1205 22.9896 28.1429 22.6975C28.1564 22.5403 28.1384 22.4999 28.0306 22.4145C27.9228 22.3291 27.8599 22.3202 27.5993 22.3336C27.4331 22.3426 27.3028 22.3381 27.3073 22.3246C27.3163 22.3067 27.4331 22.1629 27.5679 22.0012C27.8374 21.6777 27.7476 21.7181 28.5428 21.5789C28.7539 21.5384 28.8707 21.4081 28.8707 21.2015C28.8707 21.0712 28.8438 21.0083 28.7584 20.9409L28.6506 20.8555L28.9516 20.5635C29.1178 20.4063 29.4368 20.1277 29.6569 19.9435C30.1511 19.5347 30.1691 19.5077 30.1736 19.328C30.1736 19.1349 30.0253 19.0001 29.8142 19.0001C29.6749 19.0001 29.5806 19.0585 29.2032 19.3685C28.9606 19.5706 28.4754 20.0154 28.1249 20.3569C27.779 20.6983 27.478 20.9634 27.4645 20.9454C27.4466 20.9319 27.4331 20.86 27.4331 20.7882C27.4331 20.604 27.2893 20.4827 27.0737 20.4827C26.7861 20.4827 26.7412 20.5995 26.7547 21.2644L26.7637 21.8125L26.5211 22.127C26.3908 22.2977 26.1976 22.5583 26.0988 22.7065L25.919 22.9761L25.4967 22.9716L25.0744 22.9671V22.3606C25.0744 21.826 25.0654 21.7406 24.9891 21.6552C24.8588 21.5115 24.5937 21.5249 24.4724 21.6777C24.4185 21.7451 24.3781 21.8394 24.3781 21.8933C24.3736 21.9877 24.3736 21.9877 24.3062 21.8978C24.2523 21.826 24.2388 21.6957 24.2478 21.2644C24.2568 20.8106 24.2478 20.6983 24.1849 20.5995C24.0366 20.3748 23.5694 20.4871 23.5694 20.7477C23.5694 21.0173 23.52 20.9858 22.8775 20.3569C22.5316 20.0154 22.0419 19.5706 21.7993 19.3685C21.4219 19.0585 21.3275 19.0001 21.1883 19.0001C21.0849 19.0001 20.9906 19.036 20.9277 19.0899ZM25.7483 23.7893C25.8876 23.942 25.8921 24.0813 25.7573 24.2385C25.6809 24.3284 25.6091 24.3598 25.5012 24.3598C25.3934 24.3598 25.3215 24.3284 25.2451 24.2385C25.1104 24.0813 25.1149 23.9195 25.2541 23.7848C25.4024 23.632 25.6046 23.6365 25.7483 23.7893ZM25.0654 25.0068C25.1553 25.0562 25.3125 25.0831 25.5012 25.0831C25.6899 25.0831 25.8472 25.0562 25.937 25.0068C26.1347 24.9034 26.1482 24.9079 26.2695 25.0921L26.3773 25.2539L26.2425 25.5279C26.1212 25.775 26.1077 25.8469 26.1032 26.2557L26.0988 26.705L25.8112 27.2756C25.654 27.5945 25.5147 27.8506 25.5012 27.8506C25.4877 27.8506 25.3485 27.5945 25.1912 27.2756L24.9037 26.705L24.8992 26.2557C24.8947 25.8469 24.8812 25.775 24.7599 25.5279L24.6252 25.2539L24.733 25.0921C24.8543 24.9079 24.8678 24.9034 25.0654 25.0068ZM24.0231 25.7346C24.095 25.8065 24.1534 25.8828 24.1534 25.9053C24.1534 25.9233 23.7446 26.0985 23.2414 26.2962C21.7094 26.8937 20.2807 27.5182 19.0093 28.1426C17.3246 28.9738 16.48 29.4994 15.9543 30.043L15.7387 30.2677L15.2624 29.9757C15.0019 29.8139 14.7682 29.6657 14.7413 29.6432C14.6874 29.5893 15.0288 29.2389 15.3658 29.0097C15.7611 28.7402 16.5608 28.3718 18.0434 27.7832C19.8495 27.0644 23.7087 25.6088 23.8075 25.6043C23.8524 25.6043 23.9513 25.6627 24.0231 25.7346ZM29.3514 26.3905C33.3993 27.918 35.0437 28.6009 35.6367 29.0097C35.9736 29.2389 36.3151 29.5893 36.2612 29.6432C36.2342 29.6657 36.0051 29.8139 35.7445 29.9712L35.2683 30.2632L34.9313 29.9442C34.3383 29.3871 33.4577 28.848 31.8584 28.0708C30.6229 27.4687 29.5311 26.997 29.3784 26.997C29.1043 26.997 28.9471 27.3609 29.1313 27.5721C29.1717 27.626 29.5536 27.8192 29.9714 27.9989C32.0291 28.8974 33.4982 29.6926 34.3248 30.3575L34.6348 30.6046L34.3698 30.7394C33.1208 31.3729 31.9482 31.7008 31.3687 31.5795C30.569 31.4133 29.1628 29.9307 27.5499 27.5496L27.0242 26.7769L27.46 26.9566C27.7026 27.0509 27.9542 27.1318 28.0261 27.1318C28.3091 27.1318 28.4844 26.7454 28.2912 26.5522C28.2462 26.5073 27.9003 26.3501 27.5274 26.2063C27.1545 26.0581 26.849 25.9233 26.849 25.9053C26.849 25.8379 27.1096 25.6043 27.186 25.6043C27.2264 25.6043 28.1968 25.9592 29.3514 26.3905ZM23.6547 27.2531C21.9296 29.8319 20.4649 31.4088 19.6338 31.5795C19.2969 31.6514 18.8072 31.584 18.1557 31.3729C17.6166 31.2022 16.4665 30.69 16.4395 30.6091C16.4171 30.5417 16.9831 30.1015 17.5762 29.7286C18.2501 29.3018 20.1684 28.3628 21.5701 27.7653C22.4687 27.3879 23.8524 26.8128 23.9647 26.7769C23.9692 26.7724 23.83 26.988 23.6547 27.2531ZM25.034 28.7402C25.1059 29.0007 25.1194 29.2613 25.1328 30.7035C25.1418 31.8087 25.1328 32.4197 25.1014 32.532C25.0744 32.6218 24.9846 32.7521 24.9037 32.824C24.8183 32.8959 24.2792 33.1655 23.6997 33.426L22.6484 33.8933H22.244C21.8442 33.8933 21.8352 33.8888 21.1388 33.5878C20.2179 33.1879 20.11 33.0756 20.11 32.5275V32.2085L20.3032 32.1142C21.2197 31.6514 22.5046 30.2362 24.0231 28.0169L24.4455 27.3924L24.697 27.918C24.8363 28.2055 24.9891 28.5739 25.034 28.7402ZM27.0108 28.0528C28.4933 30.2272 29.7872 31.6514 30.7037 32.1142L30.8924 32.2085V32.5275C30.8924 33.0756 30.7846 33.1879 29.8636 33.5878C29.1672 33.8888 29.1583 33.8933 28.7584 33.8933H28.3541L27.3028 33.426C26.7232 33.1655 26.1841 32.8959 26.0988 32.824C26.0179 32.7521 25.928 32.6218 25.9011 32.532C25.8696 32.4197 25.8606 31.8132 25.8741 30.681C25.8876 29.2478 25.9011 28.9558 25.9685 28.7267C26.0673 28.3853 26.539 27.3879 26.5795 27.4328C26.5974 27.4553 26.7906 27.7293 27.0108 28.0528Z"
    fill="#CF7010" />
</svg>