<svg width="52" height="52" viewBox="0 0 52 52" fill="none" xmlns="http://www.w3.org/2000/svg">
  <circle cx="27.9999" cy="24.9999" r="13.2353" fill="#FEB988" fill-opacity="0.56" />
  <path
    d="M17.7437 11.1812C17.7179 11.1859 17.6921 11.1929 17.6687 11.1999C17.3898 11.2632 17.1929 11.514 17.2 11.7999V17.1999H22.6C22.8156 17.2023 23.0171 17.0898 23.1273 16.9023C23.2351 16.7148 23.2351 16.4851 23.1273 16.2976C23.0171 16.1101 22.8156 15.9976 22.6 15.9999H19.1875C21.4609 13.7757 24.5664 12.3999 28 12.3999C34.9656 12.3999 40.6 18.0343 40.6 24.9999C40.6 31.9656 34.9656 37.5999 28 37.5999C21.0343 37.5999 15.4 31.9656 15.4 24.9999C15.4 22.9163 15.9132 20.9546 16.8062 19.2249L15.7375 18.6812C14.7578 20.5749 14.2 22.7241 14.2 24.9999C14.2 32.6148 20.3851 38.7999 28 38.7999C35.6148 38.7999 41.8 32.6148 41.8 24.9999C41.8 17.3851 35.6148 11.1999 28 11.1999C24.264 11.1999 20.8843 12.7023 18.4 15.1187V11.7999C18.407 11.6265 18.3367 11.4601 18.2125 11.3429C18.0859 11.2234 17.9148 11.1648 17.7437 11.1812ZM28 12.9999C27.6695 12.9999 27.4 13.2695 27.4 13.5999C27.4 13.9304 27.6695 14.1999 28 14.1999C28.3304 14.1999 28.6 13.9304 28.6 13.5999C28.6 13.2695 28.3304 12.9999 28 12.9999ZM33.7 14.5187C33.3695 14.5187 33.1 14.7882 33.1 15.1187C33.1 15.4491 33.3695 15.7187 33.7 15.7187C34.0304 15.7187 34.3 15.4491 34.3 15.1187C34.3 14.7882 34.0304 14.5187 33.7 14.5187ZM37.8812 18.6999C37.5507 18.6999 37.2812 18.9695 37.2812 19.2999C37.2812 19.6304 37.5507 19.8999 37.8812 19.8999C38.2117 19.8999 38.4812 19.6304 38.4812 19.2999C38.4812 18.9695 38.2117 18.6999 37.8812 18.6999ZM16.6 24.3999C16.2695 24.3999 16 24.6695 16 24.9999C16 25.3304 16.2695 25.5999 16.6 25.5999C16.9304 25.5999 17.2 25.3304 17.2 24.9999C17.2 24.6695 16.9304 24.3999 16.6 24.3999ZM39.4 24.3999C39.0695 24.3999 38.8 24.6695 38.8 24.9999C38.8 25.3304 39.0695 25.5999 39.4 25.5999C39.7304 25.5999 40 25.3304 40 24.9999C40 24.6695 39.7304 24.3999 39.4 24.3999ZM18.1187 30.0999C17.7882 30.0999 17.5187 30.3695 17.5187 30.6999C17.5187 31.0304 17.7882 31.2999 18.1187 31.2999C18.4492 31.2999 18.7187 31.0304 18.7187 30.6999C18.7187 30.3695 18.4492 30.0999 18.1187 30.0999ZM37.8812 30.0999C37.5507 30.0999 37.2812 30.3695 37.2812 30.6999C37.2812 31.0304 37.5507 31.2999 37.8812 31.2999C38.2117 31.2999 38.4812 31.0304 38.4812 30.6999C38.4812 30.3695 38.2117 30.0999 37.8812 30.0999ZM22.3 34.2812C21.9695 34.2812 21.7 34.5507 21.7 34.8812C21.7 35.2116 21.9695 35.4812 22.3 35.4812C22.6304 35.4812 22.9 35.2116 22.9 34.8812C22.9 34.5507 22.6304 34.2812 22.3 34.2812ZM33.7 34.2812C33.3695 34.2812 33.1 34.5507 33.1 34.8812C33.1 35.2116 33.3695 35.4812 33.7 35.4812C34.0304 35.4812 34.3 35.2116 34.3 34.8812C34.3 34.5507 34.0304 34.2812 33.7 34.2812ZM28 35.7999C27.6695 35.7999 27.4 36.0695 27.4 36.3999C27.4 36.7304 27.6695 36.9999 28 36.9999C28.3304 36.9999 28.6 36.7304 28.6 36.3999C28.6 36.0695 28.3304 35.7999 28 35.7999Z"
    fill="#CF7111" />
  <path
    d="M25.1929 19.5828V29.7646H23.6517V21.124H23.592L21.1559 22.7149V21.2433L23.6964 19.5828H25.1929ZM31.3079 29.9039C30.6848 29.9039 30.1247 29.7845 29.6275 29.5459C29.1337 29.3039 28.7393 28.9725 28.4443 28.5516C28.1493 28.1307 27.9919 27.6501 27.972 27.1098H29.4635C29.4999 27.5473 29.6938 27.9069 30.0451 28.1887C30.3965 28.4704 30.8174 28.6112 31.3079 28.6112C31.699 28.6112 32.0454 28.5218 32.347 28.3428C32.6519 28.1605 32.8905 27.9102 33.0629 27.5921C33.2385 27.2739 33.3264 26.911 33.3264 26.5033C33.3264 26.089 33.2369 25.7194 33.0579 25.3946C32.8789 25.0698 32.632 24.8146 32.3171 24.629C32.0056 24.4434 31.6476 24.3489 31.2433 24.3456C30.935 24.3456 30.6251 24.3986 30.3136 24.5047C30.002 24.6108 29.7501 24.75 29.5579 24.9223L28.151 24.7135L28.7227 19.5828H34.3207V20.9003H30.0004L29.6772 23.749H29.7369C29.9358 23.5568 30.1993 23.396 30.5274 23.2668C30.8588 23.1375 31.2135 23.0729 31.5913 23.0729C32.2111 23.0729 32.7629 23.2204 33.2468 23.5154C33.7341 23.8103 34.1169 24.213 34.3953 24.7235C34.677 25.2306 34.8162 25.8139 34.8129 26.4735C34.8162 27.133 34.6671 27.7213 34.3654 28.2384C34.0671 28.7554 33.6528 29.1631 33.1225 29.4614C32.5956 29.7564 31.9907 29.9039 31.3079 29.9039Z"
    fill="#CE7011" />
  <path
    d="M23.7333 41.8182L20.3333 44L17.5 40.7273L15.8 42.9091L14.1 43.4545L10.7 40.7273L12.4 38H9.56667L9 32L12.4 32.5455L14.1 33.6364L16.9333 36.9091L18.6333 35.8182L22.6 32.5455L26 32L25.4333 37.4545H22.0333L23.7333 39.0909V41.8182Z"
    fill="#FED2AB" />
  <mask id="path-6-outside-1_169_538" maskUnits="userSpaceOnUse" x="8" y="30" width="20" height="15"
    fill="black">
    <rect fill="white" x="8" y="30" width="20" height="15" />
    <path
      d="M26.7343 31.8137C26.5634 31.6506 26.337 31.5636 26.0981 31.5688C24.6389 31.6002 21.0736 32.1003 18.6345 35.9542C18.5644 35.8835 18.4821 35.8245 18.3909 35.7804L20.3626 31.3852C20.4249 31.2461 20.3599 31.084 20.2173 31.0232C20.0746 30.9624 19.9086 31.0258 19.8462 31.1648L18 35.2802L16.1538 31.1648C16.0914 31.0258 15.9253 30.9622 15.7826 31.0231C15.6401 31.084 15.575 31.246 15.6374 31.3851L17.6091 35.7803C17.5179 35.8244 17.4356 35.8835 17.3655 35.9542C14.9263 32.1002 11.3611 31.6001 9.90182 31.5688C9.66202 31.5637 9.43653 31.6506 9.2656 31.8137C9.09432 31.9771 9 32.196 9 32.4301V33.3272C9 34.0874 9.07917 34.4736 9.15581 34.8471C9.23031 35.2103 9.30066 35.5534 9.30066 36.2591C9.30066 37.1888 9.63998 37.7063 9.92468 37.9767C10.1379 38.1792 10.4233 38.2897 10.7314 38.2897C10.7421 38.2897 10.7528 38.2896 10.7635 38.2893C11.1567 38.2795 11.6484 38.2515 12.1853 38.2128C11.4769 38.7014 11.1044 39.3384 11.1044 40.0705C11.1044 40.0715 11.1044 40.0724 11.1044 40.0734C11.1044 40.0739 11.1044 40.0742 11.1044 40.0746C11.1056 41.1612 11.5756 42.0802 12.5016 42.8062C13.2769 43.4142 14.2248 43.7603 14.8835 43.9435C15.0205 43.9817 15.1591 44 15.2961 44C15.8159 44 16.3096 43.7353 16.5804 43.2826L17.7182 41.3804V41.8296C17.7182 41.9814 17.8443 42.1045 18 42.1045C18.1557 42.1045 18.2818 41.9814 18.2818 41.8296V41.3804L19.4196 43.2826C19.6904 43.7353 20.1841 44 20.7039 44C20.8408 44 20.9796 43.9816 21.1165 43.9435C21.7752 43.7602 22.723 43.4142 23.4984 42.8062C24.4243 42.0802 24.8943 41.1612 24.8955 40.0746C24.8955 40.0742 24.8955 40.0738 24.8955 40.0734C24.8955 40.0724 24.8956 40.0715 24.8956 40.0705C24.8956 39.3384 24.5231 38.7014 23.8147 38.2128C24.3516 38.2515 24.8433 38.2795 25.2365 38.2893C25.2473 38.2895 25.2579 38.2897 25.2686 38.2897C25.5767 38.2897 25.8621 38.1792 26.0753 37.9767C26.36 37.7063 26.6993 37.1888 26.6993 36.2591C26.6993 35.5533 26.7697 35.2103 26.8442 34.8471C26.9208 34.4736 27 34.0874 27 33.3272V32.4301C26.9999 32.196 26.9056 31.9771 26.7343 31.8137ZM9.85798 35.9067C9.83781 35.37 9.77227 35.0501 9.70854 34.7393C9.63401 34.3761 9.56366 34.033 9.56366 33.3272V32.4301C9.56366 32.3451 9.59779 32.2657 9.65974 32.2066C9.72137 32.1478 9.80293 32.1167 9.88938 32.1183C10.7068 32.1359 12.231 32.3115 13.8153 33.228C12.873 33.3121 11.8062 33.8099 11.0103 34.4738C10.471 34.9238 10.0838 35.4118 9.85798 35.9067ZM10.7491 37.7398C10.5971 37.7434 10.4574 37.6975 10.35 37.6103C9.75037 36.384 10.981 35.2217 11.3767 34.8916C11.9489 34.4143 12.6591 34.0415 13.3254 33.8687C13.9948 33.6951 14.5564 33.7356 14.9071 33.9828C15.6921 34.623 16.4551 35.4799 17.1169 36.6249V37.187C16.128 37.2972 12.4458 37.6977 10.7491 37.7398ZM13.8689 38.0727C15.219 37.9487 16.5299 37.8059 17.1169 37.7404V37.8661C16.9243 38.0006 16.7452 38.1474 16.5804 38.3063C13.9836 38.5019 12.5293 39.0624 11.8008 39.4588C12.253 38.4723 13.7149 38.1085 13.8689 38.0727ZM15.0381 43.4149C13.8044 43.0717 11.7516 42.1998 11.6708 40.1933C11.9739 39.96 13.1621 39.1997 16.0655 38.9037C15.565 39.6069 15.2719 40.4701 15.2042 41.4602C15.1424 42.3639 15.2831 43.1243 15.3571 43.448C15.252 43.4546 15.1442 43.4445 15.0381 43.4149ZM16.0935 43.0056C16.0386 43.0973 15.9688 43.1763 15.8886 43.2414C15.8199 42.9129 15.7146 42.2568 15.7666 41.4967C15.8516 40.2526 16.3054 39.2699 17.1169 38.5678V39.7773C17.1169 40.1015 17.3015 40.3842 17.5735 40.5312L16.0935 43.0056ZM18.3194 39.7773C18.3194 39.9491 18.1761 40.0889 18 40.0889C17.8238 40.0889 17.6805 39.9491 17.6805 39.7773V37.355C17.7797 37.3926 17.8873 37.4135 18 37.4135C18.1126 37.4135 18.2203 37.3926 18.3194 37.355V39.7773ZM18 36.8638C17.8238 36.8638 17.6805 36.7241 17.6805 36.5523C17.6805 36.3808 17.8234 36.2412 17.9992 36.2408C17.9994 36.2408 17.9996 36.2409 17.9998 36.2409H17.9999H18.0001C18.0003 36.2409 18.0005 36.2408 18.0007 36.2408C18.1764 36.2412 18.3193 36.3808 18.3193 36.5523C18.3194 36.7241 18.1761 36.8638 18 36.8638ZM20.1111 43.2412C20.031 43.1761 19.9612 43.0972 19.9064 43.0056L18.4264 40.5312C18.6984 40.3842 18.8831 40.1015 18.8831 39.7773V38.5678C19.6908 39.2668 20.1442 40.2441 20.2322 41.4806C20.2866 42.2441 20.1802 42.9093 20.1111 43.2412ZM24.3291 40.1952C24.247 42.2003 22.1951 43.0718 20.9618 43.415C20.8557 43.4445 20.748 43.4546 20.6429 43.4479C20.717 43.1242 20.8576 42.3638 20.7958 41.4602C20.7281 40.4702 20.435 39.607 19.9346 38.9039C22.8088 39.1987 24.019 39.9617 24.3291 40.1952ZM24.2002 39.4594C23.472 39.063 22.0176 38.5019 19.4195 38.3063C19.2547 38.1474 19.0756 38.0006 18.883 37.8661V37.7404C19.47 37.8059 20.781 37.9487 22.1313 38.0728C22.2869 38.1085 23.7495 38.4696 24.2002 39.4594ZM25.6499 37.6103C25.5424 37.6975 25.4023 37.7436 25.2508 37.7398C23.5543 37.6977 19.872 37.2972 18.8831 37.187V36.6249C19.5448 35.4799 20.3079 34.623 21.0928 33.9827C21.4435 33.7356 22.005 33.695 22.6745 33.8687C23.3407 34.0415 24.0511 34.4143 24.6232 34.8916C25.0189 35.2216 26.2495 36.384 25.6499 37.6103ZM26.4363 33.3272C26.4363 34.033 26.3659 34.3761 26.2914 34.7393C26.2277 35.0501 26.1622 35.37 26.142 35.9067C25.9161 35.4118 25.529 34.9237 24.9896 34.4738C24.1938 33.8099 23.127 33.3121 22.1846 33.2279C23.7689 32.3115 25.2931 32.1359 26.1105 32.1183C26.1978 32.1166 26.2785 32.1478 26.3401 32.2066C26.4021 32.2657 26.4362 32.3451 26.4362 32.4301V33.3272H26.4363Z" />
  </mask>
  <path
    d="M26.7343 31.8137C26.5634 31.6506 26.337 31.5636 26.0981 31.5688C24.6389 31.6002 21.0736 32.1003 18.6345 35.9542C18.5644 35.8835 18.4821 35.8245 18.3909 35.7804L20.3626 31.3852C20.4249 31.2461 20.3599 31.084 20.2173 31.0232C20.0746 30.9624 19.9086 31.0258 19.8462 31.1648L18 35.2802L16.1538 31.1648C16.0914 31.0258 15.9253 30.9622 15.7826 31.0231C15.6401 31.084 15.575 31.246 15.6374 31.3851L17.6091 35.7803C17.5179 35.8244 17.4356 35.8835 17.3655 35.9542C14.9263 32.1002 11.3611 31.6001 9.90182 31.5688C9.66202 31.5637 9.43653 31.6506 9.2656 31.8137C9.09432 31.9771 9 32.196 9 32.4301V33.3272C9 34.0874 9.07917 34.4736 9.15581 34.8471C9.23031 35.2103 9.30066 35.5534 9.30066 36.2591C9.30066 37.1888 9.63998 37.7063 9.92468 37.9767C10.1379 38.1792 10.4233 38.2897 10.7314 38.2897C10.7421 38.2897 10.7528 38.2896 10.7635 38.2893C11.1567 38.2795 11.6484 38.2515 12.1853 38.2128C11.4769 38.7014 11.1044 39.3384 11.1044 40.0705C11.1044 40.0715 11.1044 40.0724 11.1044 40.0734C11.1044 40.0739 11.1044 40.0742 11.1044 40.0746C11.1056 41.1612 11.5756 42.0802 12.5016 42.8062C13.2769 43.4142 14.2248 43.7603 14.8835 43.9435C15.0205 43.9817 15.1591 44 15.2961 44C15.8159 44 16.3096 43.7353 16.5804 43.2826L17.7182 41.3804V41.8296C17.7182 41.9814 17.8443 42.1045 18 42.1045C18.1557 42.1045 18.2818 41.9814 18.2818 41.8296V41.3804L19.4196 43.2826C19.6904 43.7353 20.1841 44 20.7039 44C20.8408 44 20.9796 43.9816 21.1165 43.9435C21.7752 43.7602 22.723 43.4142 23.4984 42.8062C24.4243 42.0802 24.8943 41.1612 24.8955 40.0746C24.8955 40.0742 24.8955 40.0738 24.8955 40.0734C24.8955 40.0724 24.8956 40.0715 24.8956 40.0705C24.8956 39.3384 24.5231 38.7014 23.8147 38.2128C24.3516 38.2515 24.8433 38.2795 25.2365 38.2893C25.2473 38.2895 25.2579 38.2897 25.2686 38.2897C25.5767 38.2897 25.8621 38.1792 26.0753 37.9767C26.36 37.7063 26.6993 37.1888 26.6993 36.2591C26.6993 35.5533 26.7697 35.2103 26.8442 34.8471C26.9208 34.4736 27 34.0874 27 33.3272V32.4301C26.9999 32.196 26.9056 31.9771 26.7343 31.8137ZM9.85798 35.9067C9.83781 35.37 9.77227 35.0501 9.70854 34.7393C9.63401 34.3761 9.56366 34.033 9.56366 33.3272V32.4301C9.56366 32.3451 9.59779 32.2657 9.65974 32.2066C9.72137 32.1478 9.80293 32.1167 9.88938 32.1183C10.7068 32.1359 12.231 32.3115 13.8153 33.228C12.873 33.3121 11.8062 33.8099 11.0103 34.4738C10.471 34.9238 10.0838 35.4118 9.85798 35.9067ZM10.7491 37.7398C10.5971 37.7434 10.4574 37.6975 10.35 37.6103C9.75037 36.384 10.981 35.2217 11.3767 34.8916C11.9489 34.4143 12.6591 34.0415 13.3254 33.8687C13.9948 33.6951 14.5564 33.7356 14.9071 33.9828C15.6921 34.623 16.4551 35.4799 17.1169 36.6249V37.187C16.128 37.2972 12.4458 37.6977 10.7491 37.7398ZM13.8689 38.0727C15.219 37.9487 16.5299 37.8059 17.1169 37.7404V37.8661C16.9243 38.0006 16.7452 38.1474 16.5804 38.3063C13.9836 38.5019 12.5293 39.0624 11.8008 39.4588C12.253 38.4723 13.7149 38.1085 13.8689 38.0727ZM15.0381 43.4149C13.8044 43.0717 11.7516 42.1998 11.6708 40.1933C11.9739 39.96 13.1621 39.1997 16.0655 38.9037C15.565 39.6069 15.2719 40.4701 15.2042 41.4602C15.1424 42.3639 15.2831 43.1243 15.3571 43.448C15.252 43.4546 15.1442 43.4445 15.0381 43.4149ZM16.0935 43.0056C16.0386 43.0973 15.9688 43.1763 15.8886 43.2414C15.8199 42.9129 15.7146 42.2568 15.7666 41.4967C15.8516 40.2526 16.3054 39.2699 17.1169 38.5678V39.7773C17.1169 40.1015 17.3015 40.3842 17.5735 40.5312L16.0935 43.0056ZM18.3194 39.7773C18.3194 39.9491 18.1761 40.0889 18 40.0889C17.8238 40.0889 17.6805 39.9491 17.6805 39.7773V37.355C17.7797 37.3926 17.8873 37.4135 18 37.4135C18.1126 37.4135 18.2203 37.3926 18.3194 37.355V39.7773ZM18 36.8638C17.8238 36.8638 17.6805 36.7241 17.6805 36.5523C17.6805 36.3808 17.8234 36.2412 17.9992 36.2408C17.9994 36.2408 17.9996 36.2409 17.9998 36.2409H17.9999H18.0001C18.0003 36.2409 18.0005 36.2408 18.0007 36.2408C18.1764 36.2412 18.3193 36.3808 18.3193 36.5523C18.3194 36.7241 18.1761 36.8638 18 36.8638ZM20.1111 43.2412C20.031 43.1761 19.9612 43.0972 19.9064 43.0056L18.4264 40.5312C18.6984 40.3842 18.8831 40.1015 18.8831 39.7773V38.5678C19.6908 39.2668 20.1442 40.2441 20.2322 41.4806C20.2866 42.2441 20.1802 42.9093 20.1111 43.2412ZM24.3291 40.1952C24.247 42.2003 22.1951 43.0718 20.9618 43.415C20.8557 43.4445 20.748 43.4546 20.6429 43.4479C20.717 43.1242 20.8576 42.3638 20.7958 41.4602C20.7281 40.4702 20.435 39.607 19.9346 38.9039C22.8088 39.1987 24.019 39.9617 24.3291 40.1952ZM24.2002 39.4594C23.472 39.063 22.0176 38.5019 19.4195 38.3063C19.2547 38.1474 19.0756 38.0006 18.883 37.8661V37.7404C19.47 37.8059 20.781 37.9487 22.1313 38.0728C22.2869 38.1085 23.7495 38.4696 24.2002 39.4594ZM25.6499 37.6103C25.5424 37.6975 25.4023 37.7436 25.2508 37.7398C23.5543 37.6977 19.872 37.2972 18.8831 37.187V36.6249C19.5448 35.4799 20.3079 34.623 21.0928 33.9827C21.4435 33.7356 22.005 33.695 22.6745 33.8687C23.3407 34.0415 24.0511 34.4143 24.6232 34.8916C25.0189 35.2216 26.2495 36.384 25.6499 37.6103ZM26.4363 33.3272C26.4363 34.033 26.3659 34.3761 26.2914 34.7393C26.2277 35.0501 26.1622 35.37 26.142 35.9067C25.9161 35.4118 25.529 34.9237 24.9896 34.4738C24.1938 33.8099 23.127 33.3121 22.1846 33.2279C23.7689 32.3115 25.2931 32.1359 26.1105 32.1183C26.1978 32.1166 26.2785 32.1478 26.3401 32.2066C26.4021 32.2657 26.4362 32.3451 26.4362 32.4301V33.3272H26.4363Z"
    fill="#BE6000" />
  <path
    d="M26.7343 31.8137C26.5634 31.6506 26.337 31.5636 26.0981 31.5688C24.6389 31.6002 21.0736 32.1003 18.6345 35.9542C18.5644 35.8835 18.4821 35.8245 18.3909 35.7804L20.3626 31.3852C20.4249 31.2461 20.3599 31.084 20.2173 31.0232C20.0746 30.9624 19.9086 31.0258 19.8462 31.1648L18 35.2802L16.1538 31.1648C16.0914 31.0258 15.9253 30.9622 15.7826 31.0231C15.6401 31.084 15.575 31.246 15.6374 31.3851L17.6091 35.7803C17.5179 35.8244 17.4356 35.8835 17.3655 35.9542C14.9263 32.1002 11.3611 31.6001 9.90182 31.5688C9.66202 31.5637 9.43653 31.6506 9.2656 31.8137C9.09432 31.9771 9 32.196 9 32.4301V33.3272C9 34.0874 9.07917 34.4736 9.15581 34.8471C9.23031 35.2103 9.30066 35.5534 9.30066 36.2591C9.30066 37.1888 9.63998 37.7063 9.92468 37.9767C10.1379 38.1792 10.4233 38.2897 10.7314 38.2897C10.7421 38.2897 10.7528 38.2896 10.7635 38.2893C11.1567 38.2795 11.6484 38.2515 12.1853 38.2128C11.4769 38.7014 11.1044 39.3384 11.1044 40.0705C11.1044 40.0715 11.1044 40.0724 11.1044 40.0734C11.1044 40.0739 11.1044 40.0742 11.1044 40.0746C11.1056 41.1612 11.5756 42.0802 12.5016 42.8062C13.2769 43.4142 14.2248 43.7603 14.8835 43.9435C15.0205 43.9817 15.1591 44 15.2961 44C15.8159 44 16.3096 43.7353 16.5804 43.2826L17.7182 41.3804V41.8296C17.7182 41.9814 17.8443 42.1045 18 42.1045C18.1557 42.1045 18.2818 41.9814 18.2818 41.8296V41.3804L19.4196 43.2826C19.6904 43.7353 20.1841 44 20.7039 44C20.8408 44 20.9796 43.9816 21.1165 43.9435C21.7752 43.7602 22.723 43.4142 23.4984 42.8062C24.4243 42.0802 24.8943 41.1612 24.8955 40.0746C24.8955 40.0742 24.8955 40.0738 24.8955 40.0734C24.8955 40.0724 24.8956 40.0715 24.8956 40.0705C24.8956 39.3384 24.5231 38.7014 23.8147 38.2128C24.3516 38.2515 24.8433 38.2795 25.2365 38.2893C25.2473 38.2895 25.2579 38.2897 25.2686 38.2897C25.5767 38.2897 25.8621 38.1792 26.0753 37.9767C26.36 37.7063 26.6993 37.1888 26.6993 36.2591C26.6993 35.5533 26.7697 35.2103 26.8442 34.8471C26.9208 34.4736 27 34.0874 27 33.3272V32.4301C26.9999 32.196 26.9056 31.9771 26.7343 31.8137ZM9.85798 35.9067C9.83781 35.37 9.77227 35.0501 9.70854 34.7393C9.63401 34.3761 9.56366 34.033 9.56366 33.3272V32.4301C9.56366 32.3451 9.59779 32.2657 9.65974 32.2066C9.72137 32.1478 9.80293 32.1167 9.88938 32.1183C10.7068 32.1359 12.231 32.3115 13.8153 33.228C12.873 33.3121 11.8062 33.8099 11.0103 34.4738C10.471 34.9238 10.0838 35.4118 9.85798 35.9067ZM10.7491 37.7398C10.5971 37.7434 10.4574 37.6975 10.35 37.6103C9.75037 36.384 10.981 35.2217 11.3767 34.8916C11.9489 34.4143 12.6591 34.0415 13.3254 33.8687C13.9948 33.6951 14.5564 33.7356 14.9071 33.9828C15.6921 34.623 16.4551 35.4799 17.1169 36.6249V37.187C16.128 37.2972 12.4458 37.6977 10.7491 37.7398ZM13.8689 38.0727C15.219 37.9487 16.5299 37.8059 17.1169 37.7404V37.8661C16.9243 38.0006 16.7452 38.1474 16.5804 38.3063C13.9836 38.5019 12.5293 39.0624 11.8008 39.4588C12.253 38.4723 13.7149 38.1085 13.8689 38.0727ZM15.0381 43.4149C13.8044 43.0717 11.7516 42.1998 11.6708 40.1933C11.9739 39.96 13.1621 39.1997 16.0655 38.9037C15.565 39.6069 15.2719 40.4701 15.2042 41.4602C15.1424 42.3639 15.2831 43.1243 15.3571 43.448C15.252 43.4546 15.1442 43.4445 15.0381 43.4149ZM16.0935 43.0056C16.0386 43.0973 15.9688 43.1763 15.8886 43.2414C15.8199 42.9129 15.7146 42.2568 15.7666 41.4967C15.8516 40.2526 16.3054 39.2699 17.1169 38.5678V39.7773C17.1169 40.1015 17.3015 40.3842 17.5735 40.5312L16.0935 43.0056ZM18.3194 39.7773C18.3194 39.9491 18.1761 40.0889 18 40.0889C17.8238 40.0889 17.6805 39.9491 17.6805 39.7773V37.355C17.7797 37.3926 17.8873 37.4135 18 37.4135C18.1126 37.4135 18.2203 37.3926 18.3194 37.355V39.7773ZM18 36.8638C17.8238 36.8638 17.6805 36.7241 17.6805 36.5523C17.6805 36.3808 17.8234 36.2412 17.9992 36.2408C17.9994 36.2408 17.9996 36.2409 17.9998 36.2409H17.9999H18.0001C18.0003 36.2409 18.0005 36.2408 18.0007 36.2408C18.1764 36.2412 18.3193 36.3808 18.3193 36.5523C18.3194 36.7241 18.1761 36.8638 18 36.8638ZM20.1111 43.2412C20.031 43.1761 19.9612 43.0972 19.9064 43.0056L18.4264 40.5312C18.6984 40.3842 18.8831 40.1015 18.8831 39.7773V38.5678C19.6908 39.2668 20.1442 40.2441 20.2322 41.4806C20.2866 42.2441 20.1802 42.9093 20.1111 43.2412ZM24.3291 40.1952C24.247 42.2003 22.1951 43.0718 20.9618 43.415C20.8557 43.4445 20.748 43.4546 20.6429 43.4479C20.717 43.1242 20.8576 42.3638 20.7958 41.4602C20.7281 40.4702 20.435 39.607 19.9346 38.9039C22.8088 39.1987 24.019 39.9617 24.3291 40.1952ZM24.2002 39.4594C23.472 39.063 22.0176 38.5019 19.4195 38.3063C19.2547 38.1474 19.0756 38.0006 18.883 37.8661V37.7404C19.47 37.8059 20.781 37.9487 22.1313 38.0728C22.2869 38.1085 23.7495 38.4696 24.2002 39.4594ZM25.6499 37.6103C25.5424 37.6975 25.4023 37.7436 25.2508 37.7398C23.5543 37.6977 19.872 37.2972 18.8831 37.187V36.6249C19.5448 35.4799 20.3079 34.623 21.0928 33.9827C21.4435 33.7356 22.005 33.695 22.6745 33.8687C23.3407 34.0415 24.0511 34.4143 24.6232 34.8916C25.0189 35.2216 26.2495 36.384 25.6499 37.6103ZM26.4363 33.3272C26.4363 34.033 26.3659 34.3761 26.2914 34.7393C26.2277 35.0501 26.1622 35.37 26.142 35.9067C25.9161 35.4118 25.529 34.9237 24.9896 34.4738C24.1938 33.8099 23.127 33.3121 22.1846 33.2279C23.7689 32.3115 25.2931 32.1359 26.1105 32.1183C26.1978 32.1166 26.2785 32.1478 26.3401 32.2066C26.4021 32.2657 26.4362 32.3451 26.4362 32.4301V33.3272H26.4363Z"
    stroke="#FEF5D6" mask="url(#path-6-outside-1_169_538)" />
</svg>