<svg width="52" height="52" viewBox="0 0 52 52" fill="none" xmlns="http://www.w3.org/2000/svg">
  <g clip-path="url(#clip0_6_2600)">
    <path
      d="M16.8784 25.9059C13.6268 25.9059 10.9813 28.5513 10.9813 31.803C10.9813 35.187 15.5363 40.7083 16.8784 40.7083C18.2205 40.7083 22.7755 35.187 22.7755 31.803C22.7755 28.5513 20.1301 25.9059 16.8784 25.9059ZM16.8784 33.9756C14.9959 33.9756 13.4643 32.444 13.4643 30.5615C13.4643 28.6789 14.9959 27.1474 16.8784 27.1474C18.761 27.1474 20.2925 28.6789 20.2925 30.5615C20.2926 32.444 18.761 33.9756 16.8784 33.9756Z"
      fill="#FFC7A2" />
    <path
      d="M36.1216 9.24146C32.8699 9.24146 30.2245 11.8869 30.2245 15.1385C30.2245 18.5226 34.7795 24.0439 36.1216 24.0439C37.4637 24.0439 42.0187 18.5226 42.0187 15.1385C42.0187 11.8869 39.3732 9.24146 36.1216 9.24146ZM36.1216 17.3111C34.239 17.3111 32.7075 15.7796 32.7075 13.8971C32.7075 12.0145 34.239 10.483 36.1216 10.483C38.0041 10.483 39.5356 12.0145 39.5356 13.8971C39.5356 15.7796 38.0041 17.3111 36.1216 17.3111Z"
      fill="#FEB888" />
    <path
      d="M36.1216 8C32.1853 8 28.983 11.2022 28.983 15.1386C28.983 18.369 33.4647 25.2854 36.1216 25.2854C38.7785 25.2854 43.2602 18.369 43.2602 15.1386C43.2602 11.2022 40.0579 8 36.1216 8ZM36.1216 24.0439C34.7795 24.0439 30.2245 18.5227 30.2245 15.1386C30.2245 11.887 32.8699 9.24154 36.1216 9.24154C39.3732 9.24154 42.0187 11.887 42.0187 15.1386C42.0187 18.5227 37.4637 24.0439 36.1216 24.0439Z"
      fill="#CF7110" />
    <path
      d="M16.8784 24.6644C12.9421 24.6644 9.73987 27.8667 9.73987 31.803C9.73987 35.0335 14.2215 41.9498 16.8784 41.9498C19.5354 41.9498 24.017 35.0335 24.017 31.803C24.0171 27.8667 20.8148 24.6644 16.8784 24.6644ZM16.8784 40.7083C15.5363 40.7083 10.9813 35.1871 10.9813 31.803C10.9813 28.5513 13.6268 25.9059 16.8784 25.9059C20.1301 25.9059 22.7755 28.5513 22.7755 31.803C22.7755 35.1871 18.2206 40.7083 16.8784 40.7083Z"
      fill="#CF7110" />
    <path
      d="M36.1216 10.483C34.239 10.483 32.7075 12.0145 32.7075 13.897C32.7075 15.7796 34.239 17.3111 36.1216 17.3111C38.0041 17.3111 39.5357 15.7796 39.5357 13.897C39.5357 12.0145 38.0041 10.483 36.1216 10.483ZM36.1216 16.0697C34.9237 16.0697 33.949 15.095 33.949 13.8971C33.949 12.6993 34.9237 11.7245 36.1216 11.7245C37.3195 11.7245 38.2942 12.6993 38.2942 13.8971C38.2942 15.095 37.3195 16.0697 36.1216 16.0697Z"
      fill="#CF7110" />
    <path
      d="M16.8784 27.1473C14.9959 27.1473 13.4644 28.6789 13.4644 30.5614C13.4644 32.444 14.9959 33.9755 16.8784 33.9755C18.761 33.9755 20.2925 32.444 20.2925 30.5614C20.2926 28.6789 18.761 27.1473 16.8784 27.1473ZM16.8784 32.7341C15.6806 32.7341 14.7058 31.7593 14.7058 30.5615C14.7058 29.3636 15.6806 28.3889 16.8784 28.3889C18.0763 28.3889 19.051 29.3636 19.051 30.5615C19.0511 31.7593 18.0763 32.7341 16.8784 32.7341Z"
      fill="#CF7110" />
    <path
      d="M34.005 34.659C33.8025 34.4514 33.5876 34.2401 33.3661 34.0228C33.0093 33.6721 32.6347 33.3047 32.2704 32.9077C32.0385 32.6555 31.6457 32.6379 31.3932 32.8701C31.1407 33.102 31.1237 33.4947 31.3556 33.7473C31.7384 34.1643 32.1236 34.5426 32.4962 34.9084C32.7111 35.1194 32.9196 35.3242 33.1164 35.5258C33.2379 35.6507 33.3994 35.7131 33.5607 35.7131C33.7171 35.7131 33.8735 35.6544 33.9942 35.5368C34.2396 35.2973 34.2445 34.9042 34.005 34.659Z"
      fill="#CF7110" />
    <path
      d="M32.0591 40.454C31.4502 40.7804 30.7173 41.0499 29.8804 41.2551C29.5477 41.3367 29.344 41.6728 29.4255 42.0059C29.4949 42.2893 29.7486 42.4787 30.0277 42.4787C30.0768 42.4787 30.1265 42.473 30.1763 42.4608C31.1141 42.2308 31.9449 41.9237 32.6454 41.5482C32.9476 41.3863 33.0612 41.0098 32.8994 40.708C32.7374 40.4055 32.3607 40.2916 32.0591 40.454Z"
      fill="#CF7110" />
    <path
      d="M34.7822 36.5245C34.4488 36.6051 34.2442 36.9407 34.3245 37.2738C34.3524 37.3884 34.3657 37.4987 34.3657 37.6115C34.3657 38.0406 34.1645 38.5068 33.7504 39.0372C33.5394 39.3073 33.5874 39.6974 33.8577 39.9083C33.9711 39.9968 34.1057 40.0398 34.2393 40.0398C34.4239 40.0398 34.6063 39.958 34.7288 39.801C35.3199 39.0441 35.6073 38.3279 35.6073 37.6114C35.6073 37.4019 35.5818 37.1904 35.5315 36.9821C35.4511 36.6488 35.1135 36.4457 34.7822 36.5245Z"
      fill="#CF7110" />
    <path
      d="M29.7605 27.1416C29.855 27.1931 29.9572 27.2176 30.0578 27.2176C30.2776 27.2176 30.4904 27.101 30.6031 26.8949C31.0147 26.1419 31.6382 25.6173 32.0889 25.3097C32.372 25.1166 32.4447 24.7301 32.2514 24.447C32.059 24.1636 31.6719 24.0912 31.3888 24.2846C30.8259 24.6689 30.044 25.3302 29.5138 26.299C29.3492 26.5996 29.4598 26.977 29.7605 27.1416Z"
      fill="#CF7110" />
    <path
      d="M27.5196 41.6439C26.7637 41.7173 25.9487 41.7558 25.0973 41.7585C24.7544 41.7594 24.4774 42.0382 24.4783 42.381C24.4792 42.7232 24.7572 43 25.0991 43C25.0997 43 25.1003 43 25.101 43C25.9911 42.9972 26.8453 42.9566 27.6397 42.8793C27.981 42.8463 28.2307 42.5428 28.1974 42.2016C28.164 41.86 27.8621 41.6087 27.5196 41.6439Z"
      fill="#CF7110" />
    <path
      d="M22.66 41.6749C21.2334 41.5757 20.2534 41.4218 20.2437 41.42C19.9049 41.369 19.5872 41.5969 19.5333 41.9355C19.4793 42.2741 19.71 42.5923 20.0486 42.6463C20.0904 42.6527 21.0882 42.8103 22.574 42.9133C22.5885 42.9142 22.6031 42.9148 22.6176 42.9148C22.9406 42.9148 23.2135 42.6645 23.2362 42.3371C23.2599 41.9949 23.0019 41.6985 22.66 41.6749Z"
      fill="#CF7110" />
    <path
      d="M28.9557 29.0508C29.0133 29.6585 29.1812 30.2905 29.4549 30.9298C29.5589 31.1735 29.6741 31.4077 29.798 31.6336C29.9108 31.8394 30.1233 31.9558 30.3427 31.9558C30.4437 31.9558 30.5461 31.9312 30.6406 31.8791C30.9413 31.7142 31.0513 31.3368 30.8861 31.0365C30.7815 30.8458 30.6846 30.6479 30.5963 30.4415C30.3733 29.9204 30.2372 29.4131 30.1917 28.9339C30.1593 28.5923 29.8568 28.3431 29.5152 28.3743C29.1736 28.4068 28.9233 28.7095 28.9557 29.0508Z"
      fill="#CF7110" />
    <path
      d="M37.1326 31.4332C36.9737 31.4332 36.8148 31.3726 36.6936 31.2514C36.4512 31.009 36.4512 30.616 36.6936 30.3735L38.8883 28.1788C39.1308 27.9365 39.5238 27.9365 39.7663 28.1788C40.0087 28.4213 40.0087 28.8143 39.7663 29.0568L37.5716 31.2514C37.4503 31.3726 37.2914 31.4332 37.1326 31.4332Z"
      fill="#CF7110" />
    <path
      d="M39.3273 31.4329C39.1684 31.4329 39.0095 31.3722 38.8883 31.2511L36.6936 29.0563C36.4512 28.8139 36.4512 28.4208 36.6936 28.1784C36.9363 27.9361 37.3292 27.9362 37.5716 28.1784L39.7663 30.3731C40.0087 30.6156 40.0087 31.0087 39.7663 31.2511C39.645 31.3722 39.4861 31.4329 39.3273 31.4329Z"
      fill="#CF7110" />
    <path
      d="M26.2695 38.8821C25.0715 38.8821 24.0969 37.9075 24.0969 36.7095C24.0969 35.5115 25.0715 34.5369 26.2695 34.5369C27.4675 34.5369 28.4421 35.5115 28.4421 36.7095C28.4421 37.9075 27.4675 38.8821 26.2695 38.8821ZM26.2695 35.7783C25.7561 35.7783 25.3384 36.196 25.3384 36.7095C25.3384 37.2229 25.7561 37.6406 26.2695 37.6406C26.783 37.6406 27.2006 37.2229 27.2006 36.7095C27.2006 36.196 26.783 35.7783 26.2695 35.7783Z"
      fill="#CF7110" />
    <path
      d="M19.6452 18.1842C19.4864 18.1842 19.3275 18.1236 19.2063 18.0024L17.4505 16.2468C17.334 16.1303 17.2687 15.9724 17.2687 15.8078C17.2687 15.6432 17.3341 15.4853 17.4505 15.3689L19.2063 13.6132C19.4488 13.3709 19.8419 13.371 20.0842 13.6132L21.8399 15.3689C22.0823 15.6114 22.0823 16.0044 21.8399 16.2468L20.0842 18.0025C19.9629 18.1236 19.8041 18.1842 19.6452 18.1842ZM18.7673 15.8078L19.6452 16.6856L20.5231 15.8078L19.6452 14.9299L18.7673 15.8078Z"
      fill="#CF7110" />
  </g>
  <defs>
    <clipPath id="clip0_6_2600">
      <rect width="35" height="35" fill="white" transform="translate(9 8)" />
    </clipPath>
  </defs>
</svg>